<?xml version="1.0" encoding="UTF-8"?>
<svg width="371px" height="99px" viewBox="0 0 371 99" version="1.1" xmlns="http://www.w3.org/2000/svg" xmlns:xlink="http://www.w3.org/1999/xlink">
    <!-- Generator: Sketch 44.1 (41455) - http://www.bohemiancoding.com/sketch -->
    <title>Path-5 Copy</title>
    <desc>Created with Sketch.</desc>
    <defs></defs>
    <g id="Dragon" stroke="none" stroke-width="1" fill="none" fill-rule="evenodd">
        <g id="Dragon-without-tail-sit" transform="translate(-869.000000, -636.000000)" stroke="#000000" fill-rule="nonzero" stroke-width="2" fill="#000000">
            <polygon id="Path-5-Copy" transform="translate(1048.902838, 679.510839) rotate(71.000000) translate(-1048.902838, -679.510839) " points="986.323044 817.164353 1013.48263 787.386484 1015.48263 783.386484 1017.48263 776.386484 1019.48263 777.386484 1026.48263 777.386484 1029.48263 773.386484 1029.48263 769.386484 1027.48263 764.386484 1034.48263 764.386484 1036.48263 757.386484 1035.48263 751.386484 1042.48263 744.386484 1039.48263 738.386484 1045.48263 732.386484 1040.48263 726.386484 1040.48263 722.386484 1045.48263 717.386484 1048.48263 708.386484 1048.48263 699.386484 1043.48263 684.386484 1036.48263 671.386484 1031.48263 661.386484 1027.48263 647.386484 1026.48263 643.386484 1026.48263 630.386484 1030.48263 640.386484 1034.48263 645.386484 1035.48263 600.386484 1039.48263 580.386484 1045.48263 561.386484 1045.48263 580.386484 1050.48263 593.386484 1059.48263 575.386484 1072.48263 545.386484 1089.48263 520.386484 1111.48263 503.386484 1099.48263 533.386484 1093.48263 557.386484 1089.48263 580.386484 1104.48263 557.386484 1102.48263 578.386484 1093.48263 603.386484 1084.48263 628.386484 1104.48263 595.386484 1104.48263 611.386484 1102.48263 628.386484 1093.48263 647.386484 1084.48263 665.386484 1082.48263 675.386484 1093.48263 665.386484 1099.48263 649.886484 1099.48263 665.386484 1095.48263 675.386484 1089.48263 684.386484 1084.48263 699.386484 1082.48263 713.386484 1079.48263 734.386484 1076.48263 761.386484 1068.48263 787.386484 1056.48263 805.386484 1043.48263 821.386484 1012.64495 855.635195"></polygon>
        </g>
    </g>
</svg>