<?xml version="1.0" encoding="UTF-8"?>
<svg width="1236px" height="697px" viewBox="0 0 1236 697" version="1.1" xmlns="http://www.w3.org/2000/svg" xmlns:xlink="http://www.w3.org/1999/xlink">
    <!-- Generator: Sketch 44.1 (41455) - http://www.bohemiancoding.com/sketch -->
    <title>Dragon-without-tail-sit</title>
    <desc>Created with Sketch.</desc>
    <defs></defs>
    <g id="Dragon" stroke="none" stroke-width="1" fill="none" fill-rule="evenodd">
        <g id="Dragon-without-tail-sit" transform="translate(-4.000000, -38.000000)">
            <path d="M907.039272,343.17009 L889.503866,364.465854 L877.662408,391.107548 L878.462719,422.242086 L880.412628,438.122825 L816.209962,473.208686 L777.221741,492.100975 L743.45758,504.306772 L684.496567,524.643901 L592.39833,554.08732 L540.5246,566.501672 L504.166001,573.988476 L460.49397,579.350727 L526.159068,556.17542 L546.89826,544.561379 L552.871128,535.767924 L551.896173,527.827555 L536.659964,518.615718 L508.520655,510.988183 L484.960878,507.835901 L412.296453,498.622793 L505.230183,484.189436 L534.397221,475.570625 L566.193881,455.546329 L584.094894,437.228204 L598.165184,412.327864 L602.188143,387.653671 L599.872625,368.795294 L587.527368,342.100826 L548.801747,297.487753 L591.550327,317.426633 L623.903559,326.551783 L666.199844,326.396001 L701.583489,310.968828 L722.96721,288.193041 L730.107268,256.083547 L720.757241,220.961232 L772.177406,245.880435 L796.991059,242.833701 L910.788004,214.481975 C910.788004,214.481975 918.376264,259.012758 917.716191,281.672015 C917.056119,304.331272 907.039272,343.17009 907.039272,343.17009 Z" id="Path-2" stroke="#000000" fill="#000000" fill-rule="nonzero" transform="translate(665.026669, 396.916351) scale(-1, -1) rotate(60.000000) translate(-665.026669, -396.916351) "></path>
            <path d="M806.541808,423.411163 L789.006402,444.706927 L777.164944,471.348621 L777.965255,502.48316 L779.915164,518.363898 L715.712498,553.44976 L676.724277,572.342049 L642.960116,584.547845 L583.999103,604.884975 L491.900866,634.328393 L440.027136,646.742745 L403.668537,654.22955 L359.996506,659.591801 L425.661604,636.416493 L446.400796,624.802452 L452.373664,616.008998 L451.398709,608.068628 L436.1625,598.856791 L408.023191,591.229256 L384.463414,588.076974 L311.798989,578.863867 L404.732719,564.43051 L433.899757,555.811699 L465.696417,535.787403 L483.59743,517.469278 L497.66772,492.568937 L501.690679,467.894744 L499.375161,449.036367 L487.029904,422.341899 L448.304283,377.728826 L491.052863,397.667706 L523.406095,406.792856 L565.70238,406.637075 L601.086025,391.209901 L622.469746,368.434114 L629.609804,336.324621 L620.259777,301.202306 L671.679942,326.121508 L696.493595,323.074774 L832.771832,334.974321 C832.771832,334.974321 817.8788,339.253832 817.218727,361.913088 C816.558655,384.572345 806.541808,423.411163 806.541808,423.411163 Z" id="Path-2" stroke="#000000" fill="#000000" fill-rule="nonzero" transform="translate(572.285410, 480.397053) scale(-1, -1) rotate(60.000000) translate(-572.285410, -480.397053) "></path>
            <path d="M279.231794,57.5174639 C279.231794,57.5174639 279.154282,127.793669 276.476557,151.134794 C275.587537,158.884179 273.706966,194.43849 269.182403,223.628495 C266.723914,239.489321 246.583848,275.310546 239.58555,304.702047 C236.592652,317.27164 225.215307,329.399447 219.145483,333.451795 C213.075658,337.504144 214.780368,343.424041 214.780368,343.424041 L239.893234,364.211601 C238.011828,369.327083 236.787866,372.993749 236.221348,375.211601 C235.65483,377.429453 234.920453,381.429453 234.018217,387.211601 C232.896394,394.382392 232.162017,399.715725 231.815086,403.211601 C231.468155,406.707477 230.97857,413.707477 230.346332,424.211601 L314.799693,416.211601 C314.365266,410.309311 314.365266,405.642644 314.799693,402.211601 C315.234121,398.780558 315.234121,393.780558 314.799693,387.211601 C314.591024,380.564502 314.591024,375.564502 314.799693,372.211601 C315.008362,368.8587 315.008362,363.8587 314.799693,357.211601 L317.737201,351.211601 L322.143464,347.211601 L325.080972,347.211601 L320.67471,338.211601 L320.67471,328.211601 L325.080972,323.211601 L334.627874,323.211601 L330.955988,315.211601 L330.955988,307.211601 L334.627874,301.211601 L340.50289,300.211601 L346.377907,299.211601 L340.50289,288.211601 L340.50289,281.711601 L346.377907,277.211601 L354.456054,273.211601 L350.049792,260.211601 L348.581038,245.211601 L354.456054,249.211601 L362.534202,249.211601 L358.862317,239.211601 L352.9873,228.211601 L357.393563,224.211601 L362.534202,217.211601 L352.9873,209.211601 L348.581038,202.211601 L352.9873,200.211601 L357.393563,197.211601 C354.447717,193.058776 351.999794,190.058776 350.049792,188.211601 C348.09979,186.364426 344.91749,184.031093 340.50289,181.211601 L354.266774,179.593745 L345.749933,171.983044 L342.706021,162.211601 L332.424743,157.211601 L325.080972,159.211601 L332.424743,147.211601 C326.647048,145.878268 328.58513,132.926398 325.5503,132.926398 C322.51547,132.926398 318.892834,133.55887 314.094308,134.892203 L279.231794,57.5174639 Z" id="Path-Copy" stroke="#000000" fill="#000000" fill-rule="nonzero" transform="translate(288.547021, 240.864532) rotate(-56.000000) translate(-288.547021, -240.864532) "></path>
            <path d="M92.0675069,66.9255449 L84.4280242,76.9255449 L82.2453148,104.925545 L68.0577041,124.925545 L63.6922854,131.925545 L61.509576,136.925545 L61.509576,144.925545 L61.509576,155.925545 L60.4182213,172.925545 L61.9414939,181.589851 L63.0643114,199.925212 L51.0973857,226.922526 L48.468172,253.354468 C48.468172,253.354468 68.4650667,257.46272 70.1259214,257.199103 C71.7867761,256.935487 77.5976339,259.738989 77.5976339,259.738989 L99.7069897,248.925545 L113.8946,250.925545 L134.335239,254.722621 C133.599022,252.236243 125.527069,244.7725 124.808147,243.925545 C124.089225,243.07859 141.614329,242.607698 138.695402,240.787986 L120.442728,232.925545 L124.808147,229.925545 L130.264921,229.925545 L142.269822,227.925545 L134.630339,226.925545 L125.899502,221.925545 L125.899502,219.925545 L133.538985,219.925545 L126.990857,214.925545 L126.990857,212.925545 L136.813049,210.925545 L146.635241,205.925545 L130.264921,205.925545 L143.361177,187.925545 L149.909305,176.925545 L156.457433,162.925545 L160.822851,150.925545 L163.005561,144.925545 L171.736398,139.925545 L183.7413,141.925545 L231.917198,138.990273 L240.491743,86.9255449 L251.40529,74.9255449 C227.537854,76.9658098 237.779252,60.981423 233.269204,60.981423 C228.759156,60.981423 221.430299,73.5922116 214.299231,74.9255449 L221.938713,63.9255449 C212.320298,67.0855275 206.135954,69.0855275 203.385684,69.9255449 C200.635413,70.7655623 196.269995,72.4322289 190.289428,74.9255449 L193.563492,63.9255449 L171.736398,76.9255449 L171.736398,69.9255449 L163.005561,76.9255449 L165.18827,63.9255449 L143.361177,80.9255449 L142.269822,56.9255449 L130.264921,69.9255449 L122.625438,91.9255449 L119.351374,80.9255449 L116.07731,63.9255449 L116.07731,49.9255449 L120.442728,38.9255449 L104.072408,60.9255449 L99.7069897,74.9255449 L102.981054,100.925545 L92.0675069,91.9255449 L90.9761523,80.9255449 L92.0675069,66.9255449 Z" id="Path-Copy" stroke="#000000" fill="#000000" fill-rule="nonzero" transform="translate(149.936731, 149.332267) rotate(50.000000) translate(-149.936731, -149.332267) "></path>
            <path d="M60.124301,125.064904 C60.124301,125.064904 51.0450716,128.835659 56.9199254,131.450368 C57.8240069,131.852745 54.2313761,133.638924 55.3068007,136.408648 C55.4665616,136.820107 58.3166483,138.167678 59.0749957,140.600995 C59.1984365,140.997081 56.2323814,142.443586 56.9243302,145.070655 C57.0506464,145.55023 61.9165627,147.666553 62.8652397,150.618113 C63.0513592,151.197175 60.0697782,153.839081 60.7881067,156.838067 C60.9440027,157.488925 67.6020459,159.430158 68.5807037,162.495674 C68.8474729,163.331294 64.8541658,166.442547 65.4190735,170.174 C65.5507223,171.043596 69.7410016,172.84638 70.4428577,175.197669 C70.634418,175.839415 71.273187,178.21493 70.1437234,180.905914 C69.0142598,183.596898 66.6127192,183.452113 66.7837954,184.659007 C66.8914946,185.418796 70.036455,187.118676 70.4902096,188.075726 C70.9439641,189.032775 73.4794057,195.989856 73.4794057,195.989856 L43.3677987,194.689712 C43.3677987,194.689712 50.6306273,189.094019 51.3616845,186.14597 C51.6512583,184.978239 51.0838662,185.111325 49.6672464,178.808095 C48.2506267,172.504864 52.5405236,175.065615 51.4752624,172.597182 C49.9949788,169.167056 46.7863382,168.477027 45.1996201,166.558885 C43.6129021,164.640742 33.3163493,159.342116 32.9892058,158.528253 C31.8342387,155.654943 35.7887927,153.829084 35.2493121,151.990069 C34.7098315,150.151054 30.0783436,144.091963 29.9272922,143.102911 C29.6349048,141.188422 34.5435266,139.254688 34.3597755,137.931247 C34.1760244,136.607807 29.4643986,134.463327 29.4794414,132.855818 C29.4860115,132.153724 32.1391879,130.89175 34.2648696,129.558806 C36.3905513,128.225863 41.0065221,125.157781 41.0379761,124.381823 C41.5521686,111.696922 60.124301,125.064904 60.124301,125.064904 Z" id="Triangle" fill="#FFFFFF" transform="translate(51.479406, 157.452875) scale(1, -1) rotate(122.000000) translate(-51.479406, -157.452875) "></path>
            <path d="M741.78501,494.818045 C746.718273,494.938709 750.496051,495.241774 753.118343,495.72724 C755.740636,496.212706 760.148042,497.424966 766.340565,499.364021 C772.997458,500.969055 777.71968,502.484381 780.507232,503.909997 C783.294784,505.335613 788.646636,508.972394 796.562788,514.82034 C801.962605,518.120413 805.740383,520.847999 807.896121,523.003097 C810.051859,525.158195 814.459266,530.613367 821.118343,539.368612 C825.395234,544.656113 828.228568,548.595959 829.618343,551.18815 C831.008119,553.780341 833.211822,559.235512 836.229454,567.553664 C838.434802,579.456047 840.638505,587.94187 842.840565,593.011131 C845.042625,598.080393 850.079662,606.26315 857.951677,617.559403 L865.504976,638.089706 L905.305574,601.02543 L894.78501,578.464007 L886.28501,578.464007 L890.062788,570.28125 L892.896121,564.826079 L882.507232,562.098493 L886.28501,556.643321 L890.062788,553.00654 L882.507232,547.551369 L877.78501,545.732978 L877.78501,539.368612 L884.396121,532.09505 L870.229454,532.09505 L874.007232,526.639878 L879.673899,520.275512 L872.118343,520.275512 L868.340565,516.638731 L877.78501,504.819192 L866.451677,503.909997 L866.451677,500.273216 L872.118343,490.272068 L859.840565,490.272068 L863.618343,476.63414 L848.507232,476.63414 L848.507232,464.814601 L840.007232,467.542187 L836.229454,462.996211 L836.229454,455.722649 L829.618343,457.541039 L821.118343,455.722649 L821.118343,438.447939 L812.618343,444.812306 L807.896121,444.812306 L805.062788,441.175525 L805.062788,434.811158 L793.729454,434.811158 L790.896121,431.174377 L790.896121,422.082425 L785.229454,425.719206 L775.78501,427.537596 L772.007232,422.082425 L770.118343,413.899668 L763.507232,419.354839 L757.840565,422.082425 L753.118343,422.082425 L751.229454,419.354839 L751.229454,410.262887 L743.673899,413.899668 L741.78501,415.718058 L741.78501,494.818045 Z" id="Path-4" fill="#000000" fill-rule="nonzero" transform="translate(823.545292, 524.176297) scale(1, -1) rotate(-65.000000) translate(-823.545292, -524.176297) "></path>
            <path d="M328,349 L328,363 C329.642122,373.558148 331.308789,381.224815 333,386 C334.691211,390.775185 338.691211,399.108518 345,411 L370,440 L390,454 L422,468 C413.48773,470 458,483 458,483 L463,483 L476,488 L494,493 L509,496 L524,498 L545,500 L571,500 L592,496 L603,494 L609,492 L603,500 L592,505 L568,515 L548,519 L527,522 L513,528 L506,536 L506,549 L511,540 L516,536 L520,542 L518,549 L516,561 L520,568 L522,555 L527,549 L533,551 L531,561 L531,571 L533,580 L536,568 L548,561 L565,547 L586,536 L603,530 L622,528 L635,528 L643,532 L651,534 L659,536 L659,530 L647,522 L637,517 L630,510 L630,496 L637,491 C637,491 653.429531,488 668.399747,488 C683.369962,488 694.186698,498 694.186698,498 C694.186698,498 764.330999,485.723967 763.798659,464.520636 C763.704901,460.786206 717.289914,424.318734 714.547484,422.492776 C696.234102,410.299403 659,396 659,396 L656,393 L651,398 L647,398 L643,386 L635,391 L626,393 L620,384 L617,375 L607,379 L597,382 L592,367 L509,337.318169 L432.875491,313.143545 L328,349 Z" id="Path-4" fill="#000000" fill-rule="nonzero"></path>
            <path d="M112.391304,84 L105.102949,88 L98.4782609,98.1499525 L95,105.224929 L95,114 C99.2604701,112.312559 102.159021,111.15628 103.695652,110.531161 C105.232283,109.906042 108.130834,108.137298 112.391304,105.224929 C113.855904,103.432063 114.725469,102.023753 115,101 C115.274531,99.9762466 115.274531,98.1418588 115,95.4968364 C115.188327,93.3789076 115.188327,91.9049542 115,91.0749763 C114.811673,90.2449983 113.942108,87.8866729 112.391304,84 Z" id="Path-2" stroke="#FFFFFF" fill="#FFFFFF" fill-rule="nonzero" transform="translate(105.102949, 99.000000) rotate(12.000000) translate(-105.102949, -99.000000) "></path>
            <polygon id="Path-4" fill="#000000" fill-rule="nonzero" points="423.221181 468.883389 415 495.377075 404 505.116419 380 515.116419 360 519.116419 339 522.116419 325 528.116419 318 536.116419 318 549.116419 323 540.116419 328 536.116419 332 542.116419 330 549.116419 328 561.116419 332 568.116419 334 555.116419 339 549.116419 345 551.116419 343 561.116419 343 571.116419 345 580.116419 348 568.116419 360 561.116419 377 547.116419 398 536.116419 415 530.116419 434 528.116419 447 528.116419 455 532.116419 463 534.116419 471 536.116419 471 530.116419 459 522.116419 449 517.116419 442 510.116419 455 481.676866"></polygon>
            <path d="M498,278.574568 L485,276.503164 L471,280.251582 C489.463369,283.711088 499.463369,285.128282 501,284.503164 C502.536631,283.878045 505.536631,282.460851 510,280.251582 C512.921537,278.77639 514.519571,277.526917 514.794102,276.503164 C515.068633,275.47941 515.068633,273.645022 514.794102,271 L498,278.574568 Z" id="Path-2" stroke="#FFFFFF" fill="#FFFFFF" fill-rule="nonzero" transform="translate(493.000000, 277.823334) rotate(180.000000) translate(-493.000000, -277.823334) "></path>
            <path d="M142.929685,39.3776448 C142.929685,39.3776448 132.050032,48.7323372 131.416464,54.781409 C131.1033,57.7713779 130.701574,61.351328 131.416464,64.1347778 C132.131353,66.9182276 134,69 134,69 L125,69 C125,69 123.819238,59.6926143 125,55.3790899 C125.811003,52.4163551 132.995839,45.5173374 138.024096,41.7734239 C143.052352,38.0295104 142.929685,39.3776448 142.929685,39.3776448 Z" id="Triangle-2" stroke="#000000" fill="#000000"></path>
            <polygon id="Path-5-Copy" stroke="#000000" stroke-width="2" fill="#000000" fill-rule="nonzero" transform="translate(1048.902838, 679.510839) rotate(71.000000) translate(-1048.902838, -679.510839) " points="986.323044 817.164353 1013.48263 787.386484 1015.48263 783.386484 1017.48263 776.386484 1019.48263 777.386484 1026.48263 777.386484 1029.48263 773.386484 1029.48263 769.386484 1027.48263 764.386484 1034.48263 764.386484 1036.48263 757.386484 1035.48263 751.386484 1042.48263 744.386484 1039.48263 738.386484 1045.48263 732.386484 1040.48263 726.386484 1040.48263 722.386484 1045.48263 717.386484 1048.48263 708.386484 1048.48263 699.386484 1043.48263 684.386484 1036.48263 671.386484 1031.48263 661.386484 1027.48263 647.386484 1026.48263 643.386484 1026.48263 630.386484 1030.48263 640.386484 1034.48263 645.386484 1035.48263 600.386484 1039.48263 580.386484 1045.48263 561.386484 1045.48263 580.386484 1050.48263 593.386484 1059.48263 575.386484 1072.48263 545.386484 1089.48263 520.386484 1111.48263 503.386484 1099.48263 533.386484 1093.48263 557.386484 1089.48263 580.386484 1104.48263 557.386484 1102.48263 578.386484 1093.48263 603.386484 1084.48263 628.386484 1104.48263 595.386484 1104.48263 611.386484 1102.48263 628.386484 1093.48263 647.386484 1084.48263 665.386484 1082.48263 675.386484 1093.48263 665.386484 1099.48263 649.886484 1099.48263 665.386484 1095.48263 675.386484 1089.48263 684.386484 1084.48263 699.386484 1082.48263 713.386484 1079.48263 734.386484 1076.48263 761.386484 1068.48263 787.386484 1056.48263 805.386484 1043.48263 821.386484 1012.64495 855.635195"></polygon>
            <path d="M124.596357,42 C124.596357,42 117.738742,54.1338787 117.931991,60.6179842 C118.12524,67.1020897 120.112205,70.5496913 120.112205,70.5496913 L113,70.5496913 C113,70.5496913 113.58683,63.6311178 114.676203,60.6179842 C115.135622,59.3472604 116.187791,55.4176316 117.931991,51.6825427 C119.67619,47.9474537 124.596357,42 124.596357,42 Z" id="Triangle-2" stroke="#000000" fill="#000000"></path>
        </g>
    </g>
</svg>