<?xml version="1.0" encoding="UTF-8"?>
<svg width="1935px" height="681px" viewBox="0 0 1935 681" version="1.1" xmlns="http://www.w3.org/2000/svg" xmlns:xlink="http://www.w3.org/1999/xlink">
    <!-- Generator: Sketch 44.1 (41455) - http://www.bohemiancoding.com/sketch -->
    <title>dragonFire</title>
    <desc>Created with Sketch.</desc>
    <defs></defs>
    <g id="Dragon" stroke="none" stroke-width="1" fill="none" fill-rule="evenodd">
        <g id="Group" transform="translate(1385.187929, 299.592810) rotate(24.000000) translate(-1385.187929, -299.592810) translate(46.687929, -650.907190)" stroke="#000000" fill-rule="nonzero">
            <g id="dragonFire" transform="translate(0.000000, 371.000000)">
                <path d="M280.562268,620.880472 C280.562268,620.880472 268.921809,620.677664 242.494227,625.787578 C237.823313,626.690724 229.363748,629.144277 217.115533,633.148237 C205.854614,628.241131 197.395049,625.787578 191.736838,625.787578 C186.078628,625.787578 173.389281,628.241131 153.668797,633.148237 C143.026674,640.979027 136.682,646.703985 134.634776,650.323109 C132.587552,653.942232 131.530107,661.302891 131.462439,672.405086 L93.3943979,692.03351 C79.3321722,687.126404 67.7002705,684.672851 58.4986932,684.672851 C49.2971159,684.672851 39.7801055,687.126404 29.9476621,692.03351 C23.6029885,701.48432 20.4306517,708.844979 20.4306517,714.115488 C20.4306517,719.385997 23.6029885,727.564507 29.9476621,738.651018 C18.5956836,737.517926 10.136119,737.517926 4.5689678,738.651018 C-3.78175899,740.350658 -19.2469281,767.617798 -11.2927161,773.000761 C-5.9899082,776.589404 4.58454778,780.678657 20.4306517,785.268527 C-0.204712125,796.932266 -10.7791681,805.110776 -11.2927161,809.804057 C-12.6686191,822.37834 15.554346,831.253864 20.4306517,834.339588 C28.0370382,839.152904 40.7263854,845.695711 58.4986932,853.968012 C50.1143552,860.394456 44.8271275,865.301562 42.6370093,868.68933 C40.4468911,872.077098 40.4468911,875.348504 42.6370093,878.503543 C52.9639144,888.485683 61.4234789,895.028492 68.0157036,898.131967 C74.6079282,901.235442 90.4696122,906.142548 115.600755,912.853285 L182.219828,920.213944 C197.00844,919.169197 206.52545,919.169197 210.770859,920.213944 C215.016268,921.258692 225.590723,926.983648 242.494227,937.388816 C231.00216,940.660219 222.542596,942.295922 217.115533,942.295922 C214.277273,942.295922 176.603248,933.795661 179.047491,942.295922 C179.879876,945.190678 181.223361,954.977754 191.736838,964.377899 C197.242858,969.300856 209.932206,977.479367 229.80488,988.91343 C236.211576,996.500842 243.613695,1001.40795 252.011237,1003.63475 C256.57294,1004.84439 272.999445,1015.56458 290.079279,1018.35607 C299.65399,1019.92093 316.573119,1019.92093 340.836667,1018.35607 C359.508077,1015.87718 372.197424,1013.42363 378.904709,1010.99541 C382.541222,1009.67889 403.630539,1038.55479 425.726033,1031.14847 C432.844084,1028.76253 456.977158,993.192031 464.557802,988.91343 C469.94311,985.873902 478.407738,1012.22201 489.941558,998.904517 C509.548075,992.334625 523.325813,983.559801 531.212883,978.67978 C537.050088,975.068083 557.025941,980.647848 579.70821,963.567264 C582.903756,961.160899 610.356169,977.389252 637.080445,972.654133 C663.80472,967.919014 673.17756,942.757339 680.276704,947.203028 C681.266965,956.704209 683.381854,962.429165 686.621377,964.377899 C689.860901,966.326634 697.263019,966.326634 708.827735,964.377899 L731.034092,947.203028 C731.034092,947.203028 796.380789,919.799695 825.496715,912.853285 C830.591984,911.637668 889.930046,914.053774 938.600262,903.039073 C947.22576,901.087011 994.354509,889.527241 1039.57085,878.503543 C1049.07964,876.185308 1114.71949,881.532777 1167.05458,868.68933 C1179.76842,865.569255 1230.91318,837.083529 1285.53911,821.753563 C1306.42508,815.89222 1388.7372,805.94662 1470.56422,785.268527 C1513.14962,774.506986 1580.94823,731.478474 1641.85874,713.341471 C1702.76924,695.204469 1762.79645,661.697397 1762.79645,661.697397 C1762.79645,661.697397 1974.0281,612.768604 1969.85453,598.49358 C1965.68096,584.218557 1770.5444,612.778792 1770.5444,612.778792 C1770.5444,612.778792 1647.51096,622.40849 1582.54415,633.148237 C1517.57735,643.887984 1435.14463,650.323109 1435.14463,650.323109 L1313.30988,650.323109 C1313.30988,650.323109 1180.15791,655.44807 1123.82124,650.323109 C1108.06437,648.889703 1018.11794,654.49768 938.600262,650.323109 C859.082588,646.148537 861.439384,637.751062 825.496715,633.148237 C781.450202,627.507633 741.411823,634.369858 708.827735,625.787578 C676.243647,617.205298 639.036325,588.984282 639.036325,588.984282 L639.036325,505.563478 C626.396943,501.553843 615.822485,499.10029 607.312958,498.202819 C598.803431,497.305349 586.114083,497.305349 569.244916,498.202819 L543.866222,498.202819 L569.244916,525.191903 L578.761927,554.634539 L543.866222,542.366774 L508.970517,505.563478 C497.726188,501.430905 489.266623,498.977352 483.591823,498.202819 C477.917023,497.428286 468.400013,497.428286 455.040792,498.202819 L489.936496,525.191903 L508.970517,554.634539 L521.659864,576.716517 L477.247149,542.366774 L455.040792,517.831244 C446.169917,514.55984 438.767798,512.924138 432.834434,512.924138 C426.90107,512.924138 418.441507,514.55984 407.45574,517.831244 L382.077046,525.191903 L369.387698,532.552562 L382.077046,542.366774 L407.45574,554.634539 L394.766393,554.634539 L382.077046,554.634539 L340.836667,554.634539 C323.075629,555.696572 310.386282,557.332275 302.768626,559.541646 C295.150971,561.751016 282.461624,567.475975 264.700584,576.716517 L252.011237,601.252047 C271.045258,614.337663 280.562268,620.880472 280.562268,620.880472 Z" id="Dragon-fire" fill="#000000" transform="translate(978.207393, 764.947530) rotate(-33.000000) translate(-978.207393, -764.947530) "></path>
                <path d="M267.024454,741.472829 C263.274206,741.996498 251.387975,717.811615 241.553959,720.133226 C232.512636,717.287945 230.814604,741.472829 226.271661,741.472829 C223.739211,741.472829 263.549001,762.174527 284.853802,779.884114 C306.158602,797.593701 302.137302,805.65509 295.13016,806.914277 C291.774352,808.697543 247.18861,802.74133 226.271661,792.687876 C205.354712,782.634421 181.422916,754.424924 180.424769,755.69923 C178.781065,757.797702 177.932049,762.065622 177.877719,768.502992 L216.083463,826.83124 C204.792989,823.98596 126.683469,775.616193 119.295579,775.616193 C111.90769,775.616193 104.266541,777.038833 96.3721329,779.884114 C91.2780338,785.363963 88.7309842,789.631884 88.7309842,792.687876 C88.7309842,795.743867 91.2780338,800.486001 96.3721329,806.914277 C87.2576997,806.257278 80.4655676,806.257278 75.9957363,806.914277 C69.2909895,807.899777 56.8741009,823.710044 63.2604884,826.83124 C67.5180801,828.912038 134.949311,845.509506 147.67205,848.170843 C131.104044,854.933813 63.672813,845.449544 63.2604884,848.170843 C62.1557845,855.461772 84.8158285,860.608055 88.7309842,862.397245 C94.8381048,865.188144 105.026303,868.98185 119.295579,873.778367 C112.563846,877.504603 108.318764,880.349883 106.560331,882.314208 C104.801899,884.278532 104.801899,886.175387 106.560331,888.004769 C114.851739,893.792699 121.643871,897.586407 126.936728,899.38589 C132.229584,901.185373 144.964832,904.030654 165.142471,907.921731 L218.630513,912.189652 C230.504198,911.583877 238.145346,911.583877 241.553959,912.189652 C244.962571,912.795426 253.452736,916.11492 267.024454,922.148133 C257.797545,924.044986 251.005413,924.993414 246.648058,924.993414 C244.369237,924.993414 214.120995,920.064719 216.083463,924.993414 C216.75178,926.671876 217.830456,932.346702 226.271661,937.797175 C230.692411,940.651646 240.880609,945.393781 256.836256,952.023577 C261.980153,956.422975 267.923269,959.268256 274.665603,960.559419 C278.328166,961.260803 291.516906,967.476676 305.230198,969.09526 C312.917675,970.002614 349.425385,908.829086 368.906438,907.921731 C383.897597,906.484401 371.162349,966.235289 376.547586,964.827339 C379.46732,964.063986 391.918895,964.853814 409.659231,960.559419 C415.37427,959.175981 420.455522,955.595744 427.488578,953.446218 C431.168598,952.321485 439.231472,954.504433 445.317925,952.023577 C449.641755,950.261172 456.433888,945.519039 465.694321,937.797175 C481.436272,933.987765 492.473486,930.66827 498.805966,927.838694 C503.492621,925.744529 518.800257,922.093463 537.011709,912.189652 C541.275279,909.871023 547.218397,905.128889 554.841057,897.96325 C559.931572,900.333817 564.176655,901.756457 567.576304,902.231171 C570.975953,902.705884 576.919071,902.705884 585.405651,902.231171 C585.405651,902.231171 805.791963,916.369711 905.89763,900.201719 C1006.0033,884.033727 1712.88246,720.133226 1712.88246,720.133226 L815.362846,768.502992 C805.214763,766.178091 566.767402,668.015917 559.935156,667.495538 C553.102909,666.975159 542.914711,666.975159 529.370561,667.495538 L508.994164,667.495538 L529.370561,683.144581 L537.011709,700.216263 L508.994164,693.103062 L480.976619,671.763459 C471.948617,669.367275 465.156484,667.944635 460.600222,667.495538 C456.043961,667.046442 448.402812,667.046442 437.676776,667.495538 L465.694321,683.144581 L480.976619,700.216263 L491.164817,713.020025 L455.506123,693.103062 L437.676776,678.87666 C430.554405,676.979807 424.61129,676.03138 419.847429,676.03138 C415.083568,676.03138 408.291437,676.979807 399.471032,678.87666 L379.094636,683.144581 L368.906438,687.412501 L379.094636,693.103062 L399.471032,700.216263 L389.282834,700.216263 L379.094636,700.216263 L345.982991,700.216263 C331.722764,700.83206 321.534565,701.780487 315.418396,703.061543 C309.302228,704.342599 299.11403,707.662094 284.853802,713.020025 C284.853802,713.020025 330.912939,731.525119 345.982991,741.472829 C361.053043,751.420538 368.906438,768.502992 368.906438,768.502992 C376.779947,772.412063 355.12956,764.331967 329.385344,755.984028 C305.160639,748.128813 277.311107,740.036441 267.024454,741.472829 Z" id="Dragon-fire" fill-opacity="0.339390851" fill="#FFFFFF" transform="translate(887.185055, 818.105254) rotate(-33.000000) translate(-887.185055, -818.105254) "></path>
            </g>
        </g>
    </g>
</svg>