<?xml version="1.0" encoding="UTF-8"?>
<svg width="1250px" height="545px" viewBox="0 0 1250 545" version="1.1" xmlns="http://www.w3.org/2000/svg" xmlns:xlink="http://www.w3.org/1999/xlink">
    <!-- Generator: Sketch 44.1 (41455) - http://www.bohemiancoding.com/sketch -->
    <title>Dragon-About to fly</title>
    <desc>Created with Sketch.</desc>
    <defs></defs>
    <g id="Dragon" stroke="none" stroke-width="1" fill="none" fill-rule="evenodd">
        <g id="Dragon-About-to-fly" transform="translate(-6.000000, -53.000000)">
            <path d="M901.039272,358.17009 L883.503866,379.465854 L871.662408,406.107548 L872.462719,437.242086 L874.412628,453.122825 L810.209962,488.208686 L771.221741,507.100975 L737.45758,519.306772 L678.496567,539.643901 L586.39833,569.08732 L534.5246,581.501672 L498.166001,588.988476 L454.49397,594.350727 L520.159068,571.17542 L540.89826,559.561379 L546.871128,550.767924 L545.896173,542.827555 L530.659964,533.615718 L502.520655,525.988183 L478.960878,522.835901 L406.296453,513.622793 L499.230183,499.189436 L528.397221,490.570625 L560.193881,470.546329 L578.094894,452.228204 L592.165184,427.327864 L596.188143,402.653671 L593.872625,383.795294 L581.527368,357.100826 L542.801747,312.487753 L585.550327,332.426633 L617.903559,341.551783 L660.199844,341.396001 L695.583489,325.968828 L716.96721,303.193041 L724.107268,271.083547 L714.757241,235.961232 L766.177406,260.880435 L790.991059,257.833701 L904.788004,229.481975 C904.788004,229.481975 912.376264,274.012758 911.716191,296.672015 C911.056119,319.331272 901.039272,358.17009 901.039272,358.17009 Z" id="Path-2" stroke="#000000" fill="#000000" fill-rule="nonzero" transform="translate(659.026669, 411.916351) scale(-1, -1) rotate(60.000000) translate(-659.026669, -411.916351) "></path>
            <path d="M921.763896,242.796204 L904.22849,264.091968 L892.387032,290.733662 L893.187343,321.868201 L895.137252,337.748939 L830.934586,372.8348 L791.946365,391.72709 L758.182204,403.932886 L699.22119,424.270016 L607.122954,453.713434 L555.249224,466.127786 L518.890625,473.61459 L475.218594,478.976842 L540.883692,455.801534 L561.622883,444.187493 L567.595752,435.394038 L566.620797,427.453669 L551.384588,418.241832 L523.245279,410.614297 L499.685502,407.462015 L427.021077,398.248908 L519.954807,383.815551 L549.121845,375.19674 L580.918504,355.172444 L598.819518,336.854318 L612.889808,311.953978 L616.912766,287.279785 L614.597249,268.421408 L602.251992,241.72694 L563.526371,197.113867 L606.274951,217.052747 L638.628183,226.177897 L680.924468,226.022116 L716.308113,210.594942 L737.691834,187.819155 L744.831892,155.709661 L735.481864,120.587347 L786.902029,145.506549 L811.715683,142.459815 L925.512628,114.10809 C925.512628,114.10809 933.100888,158.638873 932.440815,181.298129 C931.780743,203.957386 921.763896,242.796204 921.763896,242.796204 Z" id="Path-2" stroke="#000000" fill="#000000" fill-rule="nonzero" transform="translate(679.751293, 296.542466) scale(-1, -1) rotate(36.000000) translate(-679.751293, -296.542466) "></path>
            <path d="M273.231794,72.5174639 C273.231794,72.5174639 273.154282,142.793669 270.476557,166.134794 C269.587537,173.884179 267.706966,209.43849 263.182403,238.628495 C260.723914,254.489321 240.583848,290.310546 233.58555,319.702047 C230.592652,332.27164 219.215307,344.399447 213.145483,348.451795 C207.075658,352.504144 208.780368,358.424041 208.780368,358.424041 L233.893234,379.211601 C232.011828,384.327083 230.787866,387.993749 230.221348,390.211601 C229.65483,392.429453 228.920453,396.429453 228.018217,402.211601 C226.896394,409.382392 226.162017,414.715725 225.815086,418.211601 C225.468155,421.707477 224.97857,428.707477 224.346332,439.211601 L308.799693,431.211601 C308.365266,425.309311 308.365266,420.642644 308.799693,417.211601 C309.234121,413.780558 309.234121,408.780558 308.799693,402.211601 C308.591024,395.564502 308.591024,390.564502 308.799693,387.211601 C309.008362,383.8587 309.008362,378.8587 308.799693,372.211601 L311.737201,366.211601 L316.143464,362.211601 L319.080972,362.211601 L314.67471,353.211601 L314.67471,343.211601 L319.080972,338.211601 L328.627874,338.211601 L324.955988,330.211601 L324.955988,322.211601 L328.627874,316.211601 L334.50289,315.211601 L340.377907,314.211601 L334.50289,303.211601 L334.50289,296.711601 L340.377907,292.211601 L348.456054,288.211601 L344.049792,275.211601 L342.581038,260.211601 L348.456054,264.211601 L356.534202,264.211601 L352.862317,254.211601 L346.9873,243.211601 L351.393563,239.211601 L356.534202,232.211601 L346.9873,224.211601 L342.581038,217.211601 L346.9873,215.211601 L351.393563,212.211601 C348.447717,208.058776 345.999794,205.058776 344.049792,203.211601 C342.09979,201.364426 338.91749,199.031093 334.50289,196.211601 L348.266774,194.593745 L339.749933,186.983044 L336.706021,177.211601 L326.424743,172.211601 L319.080972,174.211601 L326.424743,162.211601 C320.647048,160.878268 322.58513,147.926398 319.5503,147.926398 C316.51547,147.926398 312.892834,148.55887 308.094308,149.892203 L273.231794,72.5174639 Z" id="Path-Copy" stroke="#000000" fill="#000000" fill-rule="nonzero" transform="translate(282.547021, 255.864532) rotate(-56.000000) translate(-282.547021, -255.864532) "></path>
            <path d="M83.6718209,79.2365274 L76.6718209,89.2365274 L74.6718209,117.236527 L61.6718209,137.236527 L57.6718209,144.236527 L55.6718209,149.236527 L55.6718209,157.236527 L55.6718209,168.236527 L54.6718209,185.236527 L56.067584,193.900833 L57.0964132,212.236194 C57.0964132,212.236194 57.505061,222.730836 56.2619467,227.160167 C55.0188324,231.589497 53.6889333,245.754101 53.6889333,245.754101 L56.7644356,266.767484 C56.7644356,266.767484 62.0450842,269.773702 63.5669128,269.510086 C65.0887414,269.24647 70.4131862,272.049972 70.4131862,272.049972 L90.6718209,261.236527 L103.671821,263.236527 L122.401423,267.033604 C121.726832,264.547226 114.330564,257.083482 113.671821,256.236527 C113.013078,255.389572 129.071198,254.91868 126.396607,253.098968 L109.671821,245.236527 L113.671821,242.236527 L118.671821,242.236527 L129.671821,240.236527 L122.671821,239.236527 L114.671821,234.236527 L114.671821,232.236527 L121.671821,232.236527 L115.671821,227.236527 L115.671821,225.236527 L124.671821,223.236527 L133.671821,218.236527 L118.671821,218.236527 L130.671821,200.236527 L136.671821,189.236527 L142.671821,175.236527 L146.671821,163.236527 L148.671821,157.236527 L156.671821,152.236527 L167.671821,154.236527 L211.815031,151.301256 L219.671821,99.2365274 L229.671821,87.2365274 C207.802271,89.2767923 217.186387,73.2924055 213.053864,73.2924055 C208.921341,73.2924055 202.205965,85.9031941 195.671821,87.2365274 L202.671821,76.2365274 C193.85854,79.39651 188.191873,81.39651 185.671821,82.2365274 C183.151769,83.0765448 179.151769,84.7432114 173.671821,87.2365274 L176.671821,76.2365274 L156.671821,89.2365274 L156.671821,82.2365274 L148.671821,89.2365274 L150.671821,76.2365274 L130.671821,93.2365274 L129.671821,69.2365274 L118.671821,82.2365274 L111.671821,104.236527 L108.671821,93.2365274 L105.671821,76.2365274 L105.671821,62.2365274 L109.671821,51.2365274 L94.6718209,73.2365274 L90.6718209,87.2365274 L93.6718209,113.236527 L83.6718209,104.236527 L82.6718209,93.2365274 L83.6718209,79.2365274 Z" id="Path-Copy" stroke="#000000" fill="#000000" fill-rule="nonzero" transform="translate(141.680377, 161.643250) rotate(50.000000) translate(-141.680377, -161.643250) "></path>
            <path d="M48.3888149,149.434232 C48.3888149,149.434232 46.4640055,152.308661 47.7094827,154.301841 C47.9011493,154.608572 47.1395065,155.970168 47.367498,158.081515 C47.4013676,158.395169 48.00559,159.422416 48.1663607,161.277323 C48.1925303,161.579257 47.5637225,162.681921 47.7104166,164.684524 C47.7371958,165.050102 48.7687769,166.663365 48.9698977,168.913325 C49.0093553,169.354741 48.3772559,171.368655 48.5295426,173.654768 C48.5625928,174.150914 49.9741073,175.630707 50.1815841,177.967536 C50.2381395,178.604525 49.3915528,180.976218 49.511314,183.820688 C49.5392238,184.483577 50.4275689,185.857831 50.5763633,187.650208 C50.6169744,188.139408 50.7523943,189.950252 50.5129464,192.001577 C50.2734986,194.052901 49.7643686,193.942532 49.800637,194.862543 C49.8234694,195.441726 50.4902054,196.737537 50.586402,197.467091 C50.6825986,198.196646 51.2201158,203.499997 51.2201158,203.499997 L44.8364129,202.508903 C44.8364129,202.508903 46.3761427,198.243332 46.5311279,195.996047 C46.5925179,195.105891 46.47223,195.207343 46.1719046,190.402419 C45.8715793,185.597495 46.7810434,187.549544 46.5552066,185.667869 C46.2413844,183.053099 45.5611481,182.527094 45.2247616,181.064902 C44.8883751,179.602711 42.7054915,175.563592 42.6361367,174.943189 C42.391282,172.752878 43.229653,171.361034 43.1152824,169.959161 C43.0009117,168.557289 42.0190298,163.938471 41.9870067,163.184522 C41.9250201,161.725115 42.9656548,160.251038 42.9266993,159.242186 C42.8877439,158.233334 41.8888726,156.598607 41.8920617,155.37321 C41.8934546,154.838006 42.4559317,153.876009 42.9065792,152.859913 C43.3572267,151.843816 44.3358189,149.505031 44.3424872,148.913522 C44.4514968,139.24388 48.3888149,149.434232 48.3888149,149.434232 Z" id="Triangle" fill="#FFFFFF" transform="translate(46.556085, 174.123433) scale(1, -1) rotate(122.000000) translate(-46.556085, -174.123433) "></path>
            <path d="M735.78501,509.818045 C740.718273,509.938709 744.496051,510.241774 747.118343,510.72724 C749.740636,511.212706 754.148042,512.424966 760.340565,514.364021 C766.997458,515.969055 771.71968,517.484381 774.507232,518.909997 C777.294784,520.335613 782.646636,523.972394 790.562788,529.82034 C795.962605,533.120413 799.740383,535.847999 801.896121,538.003097 C804.051859,540.158195 808.459266,545.613367 815.118343,554.368612 C819.395234,559.656113 822.228568,563.595959 823.618343,566.18815 C825.008119,568.780341 827.211822,574.235512 830.229454,582.553664 C832.434802,594.456047 834.638505,602.94187 836.840565,608.011131 C839.042625,613.080393 844.079662,621.26315 851.951677,632.559403 L859.504976,653.089706 L899.305574,616.02543 L888.78501,593.464007 L880.28501,593.464007 L884.062788,585.28125 L886.896121,579.826079 L876.507232,577.098493 L880.28501,571.643321 L884.062788,568.00654 L876.507232,562.551369 L871.78501,560.732978 L871.78501,554.368612 L878.396121,547.09505 L864.229454,547.09505 L868.007232,541.639878 L873.673899,535.275512 L866.118343,535.275512 L862.340565,531.638731 L871.78501,519.819192 L860.451677,518.909997 L860.451677,515.273216 L866.118343,505.272068 L853.840565,505.272068 L857.618343,491.63414 L842.507232,491.63414 L842.507232,479.814601 L834.007232,482.542187 L830.229454,477.996211 L830.229454,470.722649 L823.618343,472.541039 L815.118343,470.722649 L815.118343,453.447939 L806.618343,459.812306 L801.896121,459.812306 L799.062788,456.175525 L799.062788,449.811158 L787.729454,449.811158 L784.896121,446.174377 L784.896121,437.082425 L779.229454,440.719206 L769.78501,442.537596 L766.007232,437.082425 L764.118343,428.899668 L757.507232,434.354839 L751.840565,437.082425 L747.118343,437.082425 L745.229454,434.354839 L745.229454,425.262887 L737.673899,428.899668 L735.78501,430.718058 L735.78501,509.818045 Z" id="Path-4" fill="#000000" fill-rule="nonzero" transform="translate(817.545292, 539.176297) scale(1, -1) rotate(-65.000000) translate(-817.545292, -539.176297) "></path>
            <path d="M322,364 L322,378 C323.642122,388.558148 325.308789,396.224815 327,401 C328.691211,405.775185 332.691211,414.108518 339,426 L364,455 L384,469 L416,483 C407.48773,485 452,498 452,498 L457,498 L470,503 L488,508 L503,511 L518,513 L539,515 L565,515 L586,511 L597,509 L603,507 L597,515 L586,520 L562,530 L542,534 L521,537 L507,543 L500,551 L500,564 L505,555 L510,551 L514,557 L512,564 L510,576 L514,583 L516,570 L521,564 L527,566 L525,576 L525,586 L527,595 L530,583 L542,576 L559,562 L580,551 L597,545 L616,543 L629,543 L637,547 L645,549 L653,551 L653,545 L641,537 L631,532 L624,525 L624,511 L631,506 C631,506 647.429531,503 662.399747,503 C677.369962,503 688.186698,513 688.186698,513 C688.186698,513 758.330999,500.723967 757.798659,479.520636 C757.704901,475.786206 711.289914,439.318734 708.547484,437.492776 C690.234102,425.299403 653,411 653,411 L650,408 L645,413 L641,413 L637,401 L629,406 L620,408 L614,399 L611,390 L601,394 L591,397 L586,382 L503,352.318169 L426.875491,328.143545 L322,364 Z" id="Path-4" fill="#000000" fill-rule="nonzero"></path>
            <path d="M106.391304,99 L99.102949,103 L92.4782609,113.149952 L89,120.224929 L89,129 C93.2604701,127.312559 96.1590209,126.15628 97.6956522,125.531161 C99.2322835,124.906042 102.130834,123.137298 106.391304,120.224929 C107.855904,118.432063 108.725469,117.023753 109,116 C109.274531,114.976247 109.274531,113.141859 109,110.496836 C109.188327,108.378908 109.188327,106.904954 109,106.074976 C108.811673,105.244998 107.942108,102.886673 106.391304,99 Z" id="Path-2" stroke="#FFFFFF" fill="#FFFFFF" fill-rule="nonzero" transform="translate(99.102949, 114.000000) rotate(12.000000) translate(-99.102949, -114.000000) "></path>
            <polygon id="Path-4" fill="#000000" fill-rule="nonzero" points="417.221181 483.883389 409 510.377075 398 520.116419 374 530.116419 354 534.116419 333 537.116419 319 543.116419 312 551.116419 312 564.116419 317 555.116419 322 551.116419 326 557.116419 324 564.116419 322 576.116419 326 583.116419 328 570.116419 333 564.116419 339 566.116419 337 576.116419 337 586.116419 339 595.116419 342 583.116419 354 576.116419 371 562.116419 392 551.116419 409 545.116419 428 543.116419 441 543.116419 449 547.116419 457 549.116419 465 551.116419 465 545.116419 453 537.116419 443 532.116419 436 525.116419 449 496.676866"></polygon>
            <polygon id="Path-5-Copy" stroke="#000000" stroke-width="2" fill="#000000" fill-rule="nonzero" transform="translate(1079.315964, 485.014250) rotate(48.000000) translate(-1079.315964, -485.014250) " points="1016.73617 622.667764 1043.89576 592.889894 1045.89576 588.889894 1047.89576 581.889894 1049.89576 582.889894 1056.89576 582.889894 1059.89576 578.889894 1059.89576 574.889894 1057.89576 569.889894 1064.89576 569.889894 1066.89576 562.889894 1065.89576 556.889894 1072.89576 549.889894 1069.89576 543.889894 1075.89576 537.889894 1070.89576 531.889894 1070.89576 527.889894 1075.89576 522.889894 1078.89576 513.889894 1078.89576 504.889894 1073.89576 489.889894 1066.89576 476.889894 1061.89576 466.889894 1057.89576 452.889894 1056.89576 448.889894 1056.89576 435.889894 1060.89576 445.889894 1064.89576 450.889894 1065.89576 405.889894 1069.89576 385.889894 1075.89576 366.889894 1075.89576 385.889894 1080.89576 398.889894 1089.89576 380.889894 1102.89576 350.889894 1119.89576 325.889894 1141.89576 308.889894 1129.89576 338.889894 1123.89576 362.889894 1119.89576 385.889894 1134.89576 362.889894 1132.89576 383.889894 1123.89576 408.889894 1114.89576 433.889894 1134.89576 400.889894 1134.89576 416.889894 1132.89576 433.889894 1123.89576 452.889894 1114.89576 470.889894 1112.89576 480.889894 1123.89576 470.889894 1129.89576 455.389894 1129.89576 470.889894 1125.89576 480.889894 1119.89576 489.889894 1114.89576 504.889894 1112.89576 518.889894 1109.89576 539.889894 1106.89576 566.889894 1098.89576 592.889894 1086.89576 610.889894 1073.89576 626.889894 1043.05808 661.138606"></polygon>
            <path d="M492,293.574568 L479,291.503164 L465,295.251582 C483.463369,298.711088 493.463369,300.128282 495,299.503164 C496.536631,298.878045 499.536631,297.460851 504,295.251582 C506.921537,293.77639 508.519571,292.526917 508.794102,291.503164 C509.068633,290.47941 509.068633,288.645022 508.794102,286 L492,293.574568 Z" id="Path-2" stroke="#FFFFFF" fill="#FFFFFF" fill-rule="nonzero" transform="translate(487.000000, 292.823334) rotate(180.000000) translate(-487.000000, -292.823334) "></path>
            <path d="M136.929685,54.3776448 C136.929685,54.3776448 126.050032,63.7323372 125.416464,69.781409 C125.1033,72.7713779 124.701574,76.351328 125.416464,79.1347778 C126.131353,81.9182276 128,84 128,84 L119,84 C119,84 117.819238,74.6926143 119,70.3790899 C119.811003,67.4163551 126.995839,60.5173374 132.024096,56.7734239 C137.052352,53.0295104 136.929685,54.3776448 136.929685,54.3776448 Z" id="Triangle-2" stroke="#000000" fill="#000000"></path>
            <path d="M118.596357,57 C118.596357,57 111.738742,69.1338787 111.931991,75.6179842 C112.12524,82.1020897 114.112205,85.5496913 114.112205,85.5496913 L107,85.5496913 C107,85.5496913 107.58683,78.6311178 108.676203,75.6179842 C109.135622,74.3472604 110.187791,70.4176316 111.931991,66.6825427 C113.67619,62.9474537 118.596357,57 118.596357,57 Z" id="Triangle-2" stroke="#000000" fill="#000000"></path>
        </g>
    </g>
</svg>