<?xml version="1.0" encoding="UTF-8"?>
<svg width="1361px" height="730px" viewBox="0 0 1361 730" version="1.1" xmlns="http://www.w3.org/2000/svg" xmlns:xlink="http://www.w3.org/1999/xlink">
    <!-- Generator: Sketch 44.1 (41455) - http://www.bohemiancoding.com/sketch -->
    <title>dragon in fire</title>
    <desc>Created with Sketch.</desc>
    <defs></defs>
    <g id="Dragon" stroke="none" stroke-width="1" fill="none" fill-rule="evenodd">
        <g id="dragon-in-fire" transform="translate(1.000000, -181.000000)" fill-rule="nonzero">
            <g id="Group" transform="translate(958.654214, 498.405075) rotate(24.000000) translate(-958.654214, -498.405075) translate(562.654214, 129.405075)">
                <polygon id="Path-5" stroke="#000000" stroke-width="2" fill="#000000" points="555 688 556 690 560 690 564 686 566 690 571 690 575 685 578 680 579 678 580 680 586 681 588 677 590 670 592 671 599 671 602 667 602 663 600 658 607 658 609 651 608 645 615 638 612 632 618 626 613 620 613 616 618 611 621 602 621 593 616 578 609 565 604 555 600 541 599 537 599 524 603 534 607 539 608 494 612 474 618 455 618 474 623 487 632 469 645 439 662 414 684 397 672 427 666 451 662 474 677 451 675 472 666 497 657 522 677 489 677 505 675 522 666 541 657 559 655 569 666 559 672 543.5 672 559 668 569 662 578 657 593 655 607 652 628 649 655 641 681 629 699 616 715 596 730 573 738 550 738 533 733"></polygon>
                <polygon id="Path-3" stroke="#000000" fill="#000000" points="187.197351 391.156242 203.197351 391.156242 242.197351 361.156242 262.197351 342.156242 277.197351 317.156242 280.197351 286.156242 280.197351 270.156242 348.197351 243.156242 389.197351 229.156242 424.197351 221.156242 485.197351 208.156242 580.197351 190.156242 633.197351 184.156242 670.197351 181.156242 714.197351 181.156242 646.197351 196.156242 624.197351 205.156242 617.197351 213.156242 617.197351 221.156242 631.197351 232.156242 658.197351 243.156242 681.197351 249.156242 752.197351 267.156242 658.197351 270.156242 628.197351 275.156242 594.197351 291.156242 574.197351 307.156242 557.197351 330.156242 550.197351 354.156242 550.197351 373.156242 559.197351 401.156242 592.197351 450.156242 552.197351 425.156242 521.197351 412.156242 479.197351 407.156242 442.197351 418.156242 418.197351 438.156242 407.197351 469.156242 412.197351 505.156242 364.197351 474.156242 339.197351 474.156242 187.197351 450.156242"></polygon>
                <polygon id="Path-3" stroke="#000000" fill="#000000" transform="translate(469.697351, 252.677267) rotate(-21.000000) translate(-469.697351, -252.677267) " points="187.197351 300.677267 203.197351 300.677267 242.197351 270.677267 262.197351 251.677267 277.197351 226.677267 280.197351 195.677267 280.197351 179.677267 348.197351 152.677267 389.197351 138.677267 424.197351 130.677267 485.197351 117.677267 580.197351 99.6772671 633.197351 93.6772671 670.197351 90.6772671 714.197351 90.6772671 646.197351 105.677267 624.197351 114.677267 617.197351 122.677267 617.197351 130.677267 631.197351 141.677267 658.197351 152.677267 681.197351 158.677267 752.197351 176.677267 658.197351 179.677267 628.197351 184.677267 594.197351 200.677267 574.197351 216.677267 557.197351 239.677267 550.197351 263.677267 550.197351 282.677267 559.197351 310.677267 592.197351 359.677267 552.197351 334.677267 521.197351 321.677267 479.197351 316.677267 442.197351 327.677267 418.197351 347.677267 407.197351 378.677267 412.197351 414.677267 364.197351 383.677267 339.197351 383.677267 187.197351 359.677267"></polygon>
                <path d="M53,445 L53,459 C54.6421219,469.558148 56.3087886,477.224815 58,482 C59.6912114,486.775185 63.6912114,495.108518 70,507 L95,536 L115,550 L147,564 C138.48773,566 131.821064,567 127,567 C122.178936,567 115.51227,566 107,564 L85,559 L71,559 L62,563 L54,570 L53,574 L53,582 L58,573 L63,570 L67,571 L68,576 L64,583 L60,590 L58,592 L58,598 L59,601 L62,596 L68,588 L73,587 L77,588 L77,593 L74,597 L71,603 L69,609 L69,615 L74,608 L82,606 L87,604 L95,601 L110,594 L127,592 L142,590 L161,591 C166.036288,591.791029 169.702955,592.791029 172,594 C174.297045,595.208971 176.963712,597.542305 180,601 L180,593 L178,585 L183,579 L188,579 L201,584 L219,589 L234,592 L249,594 L270,596 L296,596 L317,592 L328,590 L334,588 L328,596 L317,601 L293,611 L273,615 L252,618 L238,624 L231,632 L231,645 L236,636 L241,632 L245,638 L243,645 L241,657 L245,664 L247,651 L252,645 L258,647 L256,657 L256,667 L258,676 L261,664 L273,657 L290,643 L311,632 L328,626 L347,624 L360,624 L368,628 L376,630 L384,632 L384,626 L372,618 L362,613 L355,606 L355,592 L362,587 L376,585 L394,587 C399.223455,587.132716 403.223455,587.466049 406,588 C408.776545,588.533951 413.443211,589.867284 420,592 C427.048474,593.765335 432.048474,595.432002 435,597 C437.951526,598.567998 443.618192,602.567998 452,609 C457.717454,612.629664 461.717454,615.629664 464,618 C466.282546,620.370336 470.949212,626.370336 478,636 C482.528473,641.815584 485.528473,646.148917 487,649 C488.471527,651.851083 490.80486,657.851083 494,667 C496.335074,680.091118 498.668407,689.424452 501,695 C503.331593,700.575548 508.664926,709.575548 517,722 L532,734 L556,687 L556,679 L547,679 L551,670 L554,664 L543,661 L547,655 L551,651 L543,645 L538,643 L538,636 L545,628 L530,628 L534,622 L540,615 L532,615 L528,611 L538,598 L526,597 L526,593 L532,582 L519,582 L523,567 L507,567 L507,554 L498,557 L494,552 L494,544 L487,546 L478,544 L478,525 L469,532 L464,532 L461,528 L461,521 L449,521 L446,517 L446,507 L440,511 L430,513 L426,507 L424,498 L417,504 L411,507 L406,507 L404,504 L404,494 L396,498 L394,500 L388,498 L384,492 L381,489 L376,494 L372,494 L368,482 L360,487 L351,489 L345,480 L342,471 L332,475 L322,478 L317,463 L216,445 L166,436 L53,445 Z" id="Path-4" fill="#000000"></path>
                <g id="Group-2" transform="translate(142.198689, 304.424114) rotate(10.000000) translate(-142.198689, -304.424114) translate(25.698689, 147.924114)">
                    <path d="M46,28 L39,38 L37,66 L24,86 L20,93 L18,98 L18,106 L18,117 L17,134 L15,140 L1,177 L0,182 L0,193 L3,203 L12,211 L16,212 L20,212 L25,211 L26,204 L31,197 L34,196 L32,193 L32,190 L31,190 L31,185 L32,185 L32,180 L35,175 L31,166 L31,159 L33,153 L37,145 L45,134 L52,128 L53,141 L58,153 C60.1223763,159.76343 61.1223763,164.430097 61,167 C60.8776237,169.569903 59.210957,172.903236 56,177 L49,184 L49,186 L56,195 L56,204 L53,210 L66,212 L78,210 C77.3254095,207.513622 76.6587429,205.846955 76,205 C75.3412571,204.153045 73.6745905,202.819712 71,201 L72,194 L76,191 L81,191 L92,189 L85,188 L77,183 L77,181 L84,181 L78,176 L78,174 L87,172 L96,167 L81,167 L93,149 L99,138 L105,124 L109,112 L111,106 L119,101 L130,103 L139,111 L141,123 L136,137 C133.706778,143.548591 131.706778,148.215258 130,151 C128.293222,153.784742 125.293222,160.784742 121,172 C116.671559,178.153346 113.338226,182.820012 111,186 C108.661774,189.179988 103.661774,195.513321 96,205 L74,238 L66,253 C63.4380933,258.115482 61.7714267,261.782148 61,264 C60.2285733,266.217852 59.2285733,270.217852 58,276 C56.4724157,283.170791 55.4724157,288.504124 55,292 C54.5275843,295.495876 53.8609177,302.495876 53,313 L168,305 C167.408441,299.09771 167.408441,294.431043 168,291 C168.591559,287.568957 168.591559,282.568957 168,276 C167.715856,269.352901 167.715856,264.352901 168,261 C168.284144,257.647099 168.284144,252.647099 168,246 L172,240 L178,236 L182,236 L176,227 L176,217 L182,212 L195,212 L190,204 L190,196 L195,190 L203,189 L211,188 L203,177 L203,170.5 L211,166 L222,162 L216,149 L214,134 L222,138 L233,138 L228,128 L220,117 L226,113 L233,106 L220,98 L214,91 L220,89 L226,86 C221.988647,81.847175 218.655314,78.847175 216,77 C213.344686,75.152825 209.011353,72.8194916 203,70 L214,62 L192,59 L206,51 L192,46 L182,48 L192,36 C184.132523,34.6666667 178.132523,34 174,34 C169.867477,34 164.534144,34.6666667 158,36 L165,25 C156.186719,28.1599826 150.520052,30.1599826 148,31 C145.479948,31.8400174 141.479948,33.506684 136,36 L139,25 L119,38 L119,31 L111,38 L113,25 L93,42 L92,18 L81,31 L74,53 L71,42 L68,25 L68,11 L72,0 L57,22 L53,36 L56,62 L46,53 L45,42 L46,28 Z" id="Path" stroke="#000000" fill="#000000"></path>
                    <path d="M50.3913043,81 L43.102949,85 L36.4782609,95.1499525 L33,102.224929 L33,111 C37.2604701,109.312559 40.1590209,108.15628 41.6956522,107.531161 C43.2322835,106.906042 46.1308342,105.137298 50.3913043,102.224929 C51.855904,100.432063 52.7254692,99.0237534 53,98 C53.2745308,96.9762466 53.2745308,95.1418588 53,92.4968364 C53.1883266,90.3789076 53.1883266,88.9049542 53,88.0749763 C52.8116734,87.2449983 51.9421082,84.8866729 50.3913043,81 Z" id="Path-2" stroke="#FFFFFF" fill="#FFFFFF"></path>
                </g>
                <path d="M254.423031,426.239788 L241.423031,424.168383 L227.423031,427.916801 C245.8864,431.376308 255.8864,432.793502 257.423031,432.168383 C258.959662,431.543264 261.959662,430.12607 266.423031,427.916801 C269.344568,426.441609 270.942602,425.192136 271.217133,424.168383 C271.491664,423.14463 271.491664,421.310242 271.217133,418.66522 L254.423031,426.239788 Z" id="Path-2" stroke="#FFFFFF" fill="#FFFFFF" transform="translate(249.423031, 425.488553) rotate(180.000000) translate(-249.423031, -425.488553) "></path>
            </g>
            <path d="M127.879653,310.928731 C127.879653,310.928731 122.817548,310.80718 111.324945,313.869744 C109.293697,314.411033 105.614873,315.881539 100.288473,318.281263 C95.3914195,315.34025 91.7125957,313.869744 89.2520009,313.869744 C86.7914061,313.869744 81.2731701,315.34025 72.697293,318.281263 C68.0693365,322.974548 65.3102185,326.405731 64.419939,328.574807 C63.5296595,330.743883 63.0698066,335.155402 63.04038,341.809364 L46.4856722,353.573414 C40.3704104,350.632401 35.3120274,349.161895 31.3105233,349.161895 C27.3090192,349.161895 23.1703422,350.632401 18.8944924,353.573414 C16.1353744,359.237638 14.7558154,363.649157 14.7558154,366.807971 C14.7558154,369.966784 16.1353744,374.868472 18.8944924,381.513034 C13.95784,380.833929 10.2790161,380.833929 7.85802043,381.513034 C4.226527,382.531692 -2.49883493,398.873911 0.960225478,402.100122 C3.26626575,404.25093 7.86479572,406.701773 14.7558154,409.452654 C5.78208288,416.44317 1.18355291,421.344857 0.960225478,424.157717 C0.361884455,431.693956 12.6352488,437.01339 14.7558154,438.86278 C18.0636164,441.747581 23.5818524,445.66893 31.3105233,450.62683 C27.6644133,454.478439 25.3651484,457.419452 24.4127283,459.449868 C23.4603082,461.480284 23.4603082,463.44096 24.4127283,465.331893 C28.9036055,471.314564 32.5824293,475.235915 35.4492002,477.095944 C38.3159711,478.955972 45.2137661,481.896985 56.1425851,485.918982 L85.1133239,490.3305 C91.5444705,489.704344 95.6831474,489.704344 97.5293548,490.3305 C99.3755622,490.956657 103.974092,494.387838 111.324945,500.624045 C106.327372,502.584719 102.648548,503.565057 100.288473,503.565057 C99.0541946,503.565057 82.6708332,498.470532 83.7337649,503.565057 C84.0957455,505.299993 84.6799888,511.165754 89.2520009,516.799614 C91.6464123,519.750126 97.1646482,524.651815 105.806709,531.504677 C108.592799,536.052097 111.81177,538.99311 115.463622,540.327715 C117.447376,541.052698 124.590796,547.477711 132.01833,549.150753 C136.182099,550.088636 143.539747,550.088636 154.091273,549.150753 C162.210938,547.665062 167.729174,546.194556 170.645981,544.739234 C172.227397,543.950197 178.971547,544.7666 188.580248,540.327715 C191.675686,538.89773 194.427846,535.197033 198.237161,532.975183 C200.230371,531.812608 204.597467,534.069003 207.894074,531.504677 C210.235991,529.682974 213.914816,524.781287 218.930546,516.799614 C227.456862,512.862032 233.434951,509.43085 236.864813,506.50607 C239.403247,504.341445 247.694325,500.567535 257.558198,490.3305 C259.867476,487.933859 263.086448,483.032172 267.215111,475.625437 C269.972288,478.075764 272.271553,479.54627 274.112906,480.036956 C275.954258,480.527642 279.17323,480.527642 283.769818,480.036956 C285.084204,486.727719 286.463763,491.139238 287.908495,493.271513 C289.353228,495.403788 293.951758,499.815307 301.704085,506.50607 C302.134722,512.200483 303.054427,515.631664 304.463203,516.799614 C305.87198,517.967564 309.090951,517.967564 314.120116,516.799614 L323.777029,506.50607 L341.711296,516.799614 L349.98865,516.799614 L362.404681,516.799614 C366.083505,498.208453 367.922917,487.914909 367.922917,485.918982 C367.922917,483.923055 366.083505,478.531198 362.404681,469.743412 C370.454817,469.817382 376.432906,468.346875 380.338948,465.331893 C384.24499,462.316911 392.06249,455.454548 403.791451,444.744805 L421.725718,438.86278 C432.149417,432.000416 439.047212,428.569236 442.419102,428.569236 C445.790993,428.569236 451.309229,427.098729 458.97381,424.157717 C462.735277,427.598085 465.494395,429.068592 467.251164,428.569236 C469.007933,428.06988 473.14661,424.638699 479.667195,418.275691 C484.316299,422.197042 487.995124,424.157717 490.703667,424.157717 C493.41221,424.157717 497.091035,422.197042 501.740139,418.275691 L508.637934,409.452654 L547.265586,402.100122 C555.284696,392.924549 561.722637,387.042524 566.579412,384.454046 C571.436186,381.865569 580.633245,379.414724 594.170591,377.101515 L630.039125,368.278477 L612.104858,360.925945 L630.039125,353.573414 L639.696038,341.809364 L620.382212,341.809364 L594.170591,349.161895 L577.615883,353.573414 L561.061176,360.925945 L536.229114,360.925945 C525.644612,365.827633 517.82711,368.278477 512.776611,368.278477 C507.726112,368.278477 502.207876,365.827633 496.221903,360.925945 C489.18357,357.186544 483.665334,354.735701 479.667195,353.573414 C464.492046,349.161895 446.922696,356.251422 442.419102,357.984933 C437.206221,359.991462 425.789268,366.49051 414.827923,368.278477 C405.369669,369.821265 396.288565,366.807971 391.37542,366.807971 C384.304032,366.807971 377.406237,367.298139 370.682035,368.278477 L354.127327,377.101515 L341.711296,360.925945 L354.127327,341.809364 L323.777029,328.574807 L334.813501,299.164681 L308.60188,284.459618 L283.769818,291.812149 L301.704085,263.872529 L283.769818,241.814935 C278.273311,239.41181 273.67478,237.941303 269.974229,237.403416 C266.273677,236.865528 260.755442,236.865528 253.419521,237.403416 L242.383049,237.403416 L253.419521,253.578985 L257.558198,271.225061 L242.383049,263.872529 L227.2079,241.814935 C222.318061,239.338129 218.639237,237.867622 216.171428,237.403416 C213.703619,236.939209 209.564942,236.939209 203.755397,237.403416 L218.930546,253.578985 L227.2079,271.225061 L232.726136,284.459618 L213.41231,263.872529 L203.755397,249.167466 C199.897706,247.206792 196.678735,246.226454 194.098484,246.226454 C191.518233,246.226454 187.83941,247.206792 183.062012,249.167466 L172.02554,253.578985 L166.507304,257.990504 L172.02554,263.872529 L183.062012,271.225061 L177.543776,271.225061 L172.02554,271.225061 L154.091273,271.225061 C146.367503,271.861577 140.849267,272.841915 137.536566,274.166073 C134.223864,275.490232 128.705628,278.921414 120.981858,284.459618 L115.463622,299.164681 C123.740976,307.00738 127.879653,310.928731 127.879653,310.928731 Z" id="Path-18" stroke="#000000" fill="#000000"></path>
        </g>
    </g>
</svg>