<?xml version="1.0" encoding="UTF-8"?>
<svg width="1250px" height="619px" viewBox="0 0 1250 619" version="1.1" xmlns="http://www.w3.org/2000/svg" xmlns:xlink="http://www.w3.org/1999/xlink">
    <!-- Generator: Sketch 44.1 (41455) - http://www.bohemiancoding.com/sketch -->
    <title>Dragon-sit</title>
    <desc>Created with Sketch.</desc>
    <defs></defs>
    <g id="Dragon" stroke="none" stroke-width="1" fill="none" fill-rule="evenodd">
        <g id="Dragon-sit" transform="translate(-6.000000, -30.000000)">
            <path d="M901.039272,335.17009 L883.503866,356.465854 L871.662408,383.107548 L872.462719,414.242086 L874.412628,430.122825 L810.209962,465.208686 L771.221741,484.100975 L737.45758,496.306772 L678.496567,516.643901 L586.39833,546.08732 L534.5246,558.501672 L498.166001,565.988476 L454.49397,571.350727 L520.159068,548.17542 L540.89826,536.561379 L546.871128,527.767924 L545.896173,519.827555 L530.659964,510.615718 L502.520655,502.988183 L478.960878,499.835901 L406.296453,490.622793 L499.230183,476.189436 L528.397221,467.570625 L560.193881,447.546329 L578.094894,429.228204 L592.165184,404.327864 L596.188143,379.653671 L593.872625,360.795294 L581.527368,334.100826 L542.801747,289.487753 L585.550327,309.426633 L617.903559,318.551783 L660.199844,318.396001 L695.583489,302.968828 L716.96721,280.193041 L724.107268,248.083547 L714.757241,212.961232 L766.177406,237.880435 L790.991059,234.833701 L904.788004,206.481975 C904.788004,206.481975 912.376264,251.012758 911.716191,273.672015 C911.056119,296.331272 901.039272,335.17009 901.039272,335.17009 Z" id="Path-2" stroke="#000000" fill="#000000" fill-rule="nonzero" transform="translate(659.026669, 388.916351) scale(-1, -1) rotate(60.000000) translate(-659.026669, -388.916351) "></path>
            <path d="M800.541808,415.411163 L783.006402,436.706927 L771.164944,463.348621 L771.965255,494.48316 L773.915164,510.363898 L709.712498,545.44976 L670.724277,564.342049 L636.960116,576.547845 L577.999103,596.884975 L485.900866,626.328393 L434.027136,638.742745 L397.668537,646.22955 L353.996506,651.591801 L419.661604,628.416493 L440.400796,616.802452 L446.373664,608.008998 L445.398709,600.068628 L430.1625,590.856791 L402.023191,583.229256 L378.463414,580.076974 L305.798989,570.863867 L398.732719,556.43051 L427.899757,547.811699 L459.696417,527.787403 L477.59743,509.469278 L491.66772,484.568937 L495.690679,459.894744 L493.375161,441.036367 L481.029904,414.341899 L442.304283,369.728826 L485.052863,389.667706 L517.406095,398.792856 L559.70238,398.637075 L595.086025,383.209901 L616.469746,360.434114 L623.609804,328.324621 L614.259777,293.202306 L665.679942,318.121508 L690.493595,315.074774 L826.771832,326.974321 C826.771832,326.974321 811.8788,331.253832 811.218727,353.913088 C810.558655,376.572345 800.541808,415.411163 800.541808,415.411163 Z" id="Path-2" stroke="#000000" fill="#000000" fill-rule="nonzero" transform="translate(566.285410, 472.397053) scale(-1, -1) rotate(60.000000) translate(-566.285410, -472.397053) "></path>
            <path d="M273.231794,49.5174639 C273.231794,49.5174639 273.154282,119.793669 270.476557,143.134794 C269.587537,150.884179 267.706966,186.43849 263.182403,215.628495 C260.723914,231.489321 240.583848,267.310546 233.58555,296.702047 C230.592652,309.27164 219.215307,321.399447 213.145483,325.451795 C207.075658,329.504144 208.780368,335.424041 208.780368,335.424041 L233.893234,356.211601 C232.011828,361.327083 230.787866,364.993749 230.221348,367.211601 C229.65483,369.429453 228.920453,373.429453 228.018217,379.211601 C226.896394,386.382392 226.162017,391.715725 225.815086,395.211601 C225.468155,398.707477 224.97857,405.707477 224.346332,416.211601 L308.799693,408.211601 C308.365266,402.309311 308.365266,397.642644 308.799693,394.211601 C309.234121,390.780558 309.234121,385.780558 308.799693,379.211601 C308.591024,372.564502 308.591024,367.564502 308.799693,364.211601 C309.008362,360.8587 309.008362,355.8587 308.799693,349.211601 L311.737201,343.211601 L316.143464,339.211601 L319.080972,339.211601 L314.67471,330.211601 L314.67471,320.211601 L319.080972,315.211601 L328.627874,315.211601 L324.955988,307.211601 L324.955988,299.211601 L328.627874,293.211601 L334.50289,292.211601 L340.377907,291.211601 L334.50289,280.211601 L334.50289,273.711601 L340.377907,269.211601 L348.456054,265.211601 L344.049792,252.211601 L342.581038,237.211601 L348.456054,241.211601 L356.534202,241.211601 L352.862317,231.211601 L346.9873,220.211601 L351.393563,216.211601 L356.534202,209.211601 L346.9873,201.211601 L342.581038,194.211601 L346.9873,192.211601 L351.393563,189.211601 C348.447717,185.058776 345.999794,182.058776 344.049792,180.211601 C342.09979,178.364426 338.91749,176.031093 334.50289,173.211601 L348.266774,171.593745 L339.749933,163.983044 L336.706021,154.211601 L326.424743,149.211601 L319.080972,151.211601 L326.424743,139.211601 C320.647048,137.878268 322.58513,124.926398 319.5503,124.926398 C316.51547,124.926398 312.892834,125.55887 308.094308,126.892203 L273.231794,49.5174639 Z" id="Path-Copy" stroke="#000000" fill="#000000" fill-rule="nonzero" transform="translate(282.547021, 232.864532) rotate(-56.000000) translate(-282.547021, -232.864532) "></path>
            <path d="M83.6718209,56.2365274 L76.6718209,66.2365274 L74.6718209,94.2365274 L61.6718209,114.236527 L57.6718209,121.236527 L55.6718209,126.236527 L55.6718209,134.236527 L55.6718209,145.236527 L54.6718209,162.236527 L56.067584,170.900833 L57.0964132,189.236194 C57.0964132,189.236194 57.505061,199.730836 56.2619467,204.160167 C55.0188324,208.589497 53.6889333,222.754101 53.6889333,222.754101 L56.7644356,243.767484 C56.7644356,243.767484 62.0450842,246.773702 63.5669128,246.510086 C65.0887414,246.24647 70.4131862,249.049972 70.4131862,249.049972 L90.6718209,238.236527 L103.671821,240.236527 L122.401423,244.033604 C121.726832,241.547226 114.330564,234.083482 113.671821,233.236527 C113.013078,232.389572 129.071198,231.91868 126.396607,230.098968 L109.671821,222.236527 L113.671821,219.236527 L118.671821,219.236527 L129.671821,217.236527 L122.671821,216.236527 L114.671821,211.236527 L114.671821,209.236527 L121.671821,209.236527 L115.671821,204.236527 L115.671821,202.236527 L124.671821,200.236527 L133.671821,195.236527 L118.671821,195.236527 L130.671821,177.236527 L136.671821,166.236527 L142.671821,152.236527 L146.671821,140.236527 L148.671821,134.236527 L156.671821,129.236527 L167.671821,131.236527 L211.815031,128.301256 L219.671821,76.2365274 L229.671821,64.2365274 C207.802271,66.2767923 217.186387,50.2924055 213.053864,50.2924055 C208.921341,50.2924055 202.205965,62.9031941 195.671821,64.2365274 L202.671821,53.2365274 C193.85854,56.39651 188.191873,58.39651 185.671821,59.2365274 C183.151769,60.0765448 179.151769,61.7432114 173.671821,64.2365274 L176.671821,53.2365274 L156.671821,66.2365274 L156.671821,59.2365274 L148.671821,66.2365274 L150.671821,53.2365274 L130.671821,70.2365274 L129.671821,46.2365274 L118.671821,59.2365274 L111.671821,81.2365274 L108.671821,70.2365274 L105.671821,53.2365274 L105.671821,39.2365274 L109.671821,28.2365274 L94.6718209,50.2365274 L90.6718209,64.2365274 L93.6718209,90.2365274 L83.6718209,81.2365274 L82.6718209,70.2365274 L83.6718209,56.2365274 Z" id="Path-Copy" stroke="#000000" fill="#000000" fill-rule="nonzero" transform="translate(141.680377, 138.643250) rotate(50.000000) translate(-141.680377, -138.643250) "></path>
            <path d="M48.3888149,126.434232 C48.3888149,126.434232 46.4640055,129.308661 47.7094827,131.301841 C47.9011493,131.608572 47.1395065,132.970168 47.367498,135.081515 C47.4013676,135.395169 48.00559,136.422416 48.1663607,138.277323 C48.1925303,138.579257 47.5637225,139.681921 47.7104166,141.684524 C47.7371958,142.050102 48.7687769,143.663365 48.9698977,145.913325 C49.0093553,146.354741 48.3772559,148.368655 48.5295426,150.654768 C48.5625928,151.150914 49.9741073,152.630707 50.1815841,154.967536 C50.2381395,155.604525 49.3915528,157.976218 49.511314,160.820688 C49.5392238,161.483577 50.4275689,162.857831 50.5763633,164.650208 C50.6169744,165.139408 50.7523943,166.950252 50.5129464,169.001577 C50.2734986,171.052901 49.7643686,170.942532 49.800637,171.862543 C49.8234694,172.441726 50.4902054,173.737537 50.586402,174.467091 C50.6825986,175.196646 51.2201158,180.499997 51.2201158,180.499997 L44.8364129,179.508903 C44.8364129,179.508903 46.3761427,175.243332 46.5311279,172.996047 C46.5925179,172.105891 46.47223,172.207343 46.1719046,167.402419 C45.8715793,162.597495 46.7810434,164.549544 46.5552066,162.667869 C46.2413844,160.053099 45.5611481,159.527094 45.2247616,158.064902 C44.8883751,156.602711 42.7054915,152.563592 42.6361367,151.943189 C42.391282,149.752878 43.229653,148.361034 43.1152824,146.959161 C43.0009117,145.557289 42.0190298,140.938471 41.9870067,140.184522 C41.9250201,138.725115 42.9656548,137.251038 42.9266993,136.242186 C42.8877439,135.233334 41.8888726,133.598607 41.8920617,132.37321 C41.8934546,131.838006 42.4559317,130.876009 42.9065792,129.859913 C43.3572267,128.843816 44.3358189,126.505031 44.3424872,125.913522 C44.4514968,116.24388 48.3888149,126.434232 48.3888149,126.434232 Z" id="Triangle" fill="#FFFFFF" transform="translate(46.556085, 151.123433) scale(1, -1) rotate(122.000000) translate(-46.556085, -151.123433) "></path>
            <path d="M735.78501,486.818045 C740.718273,486.938709 744.496051,487.241774 747.118343,487.72724 C749.740636,488.212706 754.148042,489.424966 760.340565,491.364021 C766.997458,492.969055 771.71968,494.484381 774.507232,495.909997 C777.294784,497.335613 782.646636,500.972394 790.562788,506.82034 C795.962605,510.120413 799.740383,512.847999 801.896121,515.003097 C804.051859,517.158195 808.459266,522.613367 815.118343,531.368612 C819.395234,536.656113 822.228568,540.595959 823.618343,543.18815 C825.008119,545.780341 827.211822,551.235512 830.229454,559.553664 C832.434802,571.456047 834.638505,579.94187 836.840565,585.011131 C839.042625,590.080393 844.079662,598.26315 851.951677,609.559403 L859.504976,630.089706 L899.305574,593.02543 L888.78501,570.464007 L880.28501,570.464007 L884.062788,562.28125 L886.896121,556.826079 L876.507232,554.098493 L880.28501,548.643321 L884.062788,545.00654 L876.507232,539.551369 L871.78501,537.732978 L871.78501,531.368612 L878.396121,524.09505 L864.229454,524.09505 L868.007232,518.639878 L873.673899,512.275512 L866.118343,512.275512 L862.340565,508.638731 L871.78501,496.819192 L860.451677,495.909997 L860.451677,492.273216 L866.118343,482.272068 L853.840565,482.272068 L857.618343,468.63414 L842.507232,468.63414 L842.507232,456.814601 L834.007232,459.542187 L830.229454,454.996211 L830.229454,447.722649 L823.618343,449.541039 L815.118343,447.722649 L815.118343,430.447939 L806.618343,436.812306 L801.896121,436.812306 L799.062788,433.175525 L799.062788,426.811158 L787.729454,426.811158 L784.896121,423.174377 L784.896121,414.082425 L779.229454,417.719206 L769.78501,419.537596 L766.007232,414.082425 L764.118343,405.899668 L757.507232,411.354839 L751.840565,414.082425 L747.118343,414.082425 L745.229454,411.354839 L745.229454,402.262887 L737.673899,405.899668 L735.78501,407.718058 L735.78501,486.818045 Z" id="Path-4" fill="#000000" fill-rule="nonzero" transform="translate(817.545292, 516.176297) scale(1, -1) rotate(-65.000000) translate(-817.545292, -516.176297) "></path>
            <path d="M322,341 L322,355 C323.642122,365.558148 325.308789,373.224815 327,378 C328.691211,382.775185 332.691211,391.108518 339,403 L364,432 L384,446 L416,460 C407.48773,462 452,475 452,475 L457,475 L470,480 L488,485 L503,488 L518,490 L539,492 L565,492 L586,488 L597,486 L603,484 L597,492 L586,497 L562,507 L542,511 L521,514 L507,520 L500,528 L500,541 L505,532 L510,528 L514,534 L512,541 L510,553 L514,560 L516,547 L521,541 L527,543 L525,553 L525,563 L527,572 L530,560 L542,553 L559,539 L580,528 L597,522 L616,520 L629,520 L637,524 L645,526 L653,528 L653,522 L641,514 L631,509 L624,502 L624,488 L631,483 C631,483 647.429531,480 662.399747,480 C677.369962,480 688.186698,490 688.186698,490 C688.186698,490 758.330999,477.723967 757.798659,456.520636 C757.704901,452.786206 711.289914,416.318734 708.547484,414.492776 C690.234102,402.299403 653,388 653,388 L650,385 L645,390 L641,390 L637,378 L629,383 L620,385 L614,376 L611,367 L601,371 L591,374 L586,359 L503,329.318169 L426.875491,305.143545 L322,341 Z" id="Path-4" fill="#000000" fill-rule="nonzero"></path>
            <path d="M106.391304,76 L99.102949,80 L92.4782609,90.1499525 L89,97.224929 L89,106 C93.2604701,104.312559 96.1590209,103.15628 97.6956522,102.531161 C99.2322835,101.906042 102.130834,100.137298 106.391304,97.224929 C107.855904,95.432063 108.725469,94.0237534 109,93 C109.274531,91.9762466 109.274531,90.1418588 109,87.4968364 C109.188327,85.3789076 109.188327,83.9049542 109,83.0749763 C108.811673,82.2449983 107.942108,79.8866729 106.391304,76 Z" id="Path-2" stroke="#FFFFFF" fill="#FFFFFF" fill-rule="nonzero" transform="translate(99.102949, 91.000000) rotate(12.000000) translate(-99.102949, -91.000000) "></path>
            <polygon id="Path-4" fill="#000000" fill-rule="nonzero" points="417.221181 460.883389 409 487.377075 398 497.116419 374 507.116419 354 511.116419 333 514.116419 319 520.116419 312 528.116419 312 541.116419 317 532.116419 322 528.116419 326 534.116419 324 541.116419 322 553.116419 326 560.116419 328 547.116419 333 541.116419 339 543.116419 337 553.116419 337 563.116419 339 572.116419 342 560.116419 354 553.116419 371 539.116419 392 528.116419 409 522.116419 428 520.116419 441 520.116419 449 524.116419 457 526.116419 465 528.116419 465 522.116419 453 514.116419 443 509.116419 436 502.116419 449 473.676866"></polygon>
            <polygon id="Path-5-Copy" stroke="#000000" stroke-width="2" fill="#000000" fill-rule="nonzero" transform="translate(1079.315964, 462.014250) rotate(48.000000) translate(-1079.315964, -462.014250) " points="1016.73617 599.667764 1043.89576 569.889894 1045.89576 565.889894 1047.89576 558.889894 1049.89576 559.889894 1056.89576 559.889894 1059.89576 555.889894 1059.89576 551.889894 1057.89576 546.889894 1064.89576 546.889894 1066.89576 539.889894 1065.89576 533.889894 1072.89576 526.889894 1069.89576 520.889894 1075.89576 514.889894 1070.89576 508.889894 1070.89576 504.889894 1075.89576 499.889894 1078.89576 490.889894 1078.89576 481.889894 1073.89576 466.889894 1066.89576 453.889894 1061.89576 443.889894 1057.89576 429.889894 1056.89576 425.889894 1056.89576 412.889894 1060.89576 422.889894 1064.89576 427.889894 1065.89576 382.889894 1069.89576 362.889894 1075.89576 343.889894 1075.89576 362.889894 1080.89576 375.889894 1089.89576 357.889894 1102.89576 327.889894 1119.89576 302.889894 1141.89576 285.889894 1129.89576 315.889894 1123.89576 339.889894 1119.89576 362.889894 1134.89576 339.889894 1132.89576 360.889894 1123.89576 385.889894 1114.89576 410.889894 1134.89576 377.889894 1134.89576 393.889894 1132.89576 410.889894 1123.89576 429.889894 1114.89576 447.889894 1112.89576 457.889894 1123.89576 447.889894 1129.89576 432.389894 1129.89576 447.889894 1125.89576 457.889894 1119.89576 466.889894 1114.89576 481.889894 1112.89576 495.889894 1109.89576 516.889894 1106.89576 543.889894 1098.89576 569.889894 1086.89576 587.889894 1073.89576 603.889894 1043.05808 638.138606"></polygon>
            <path d="M492,270.574568 L479,268.503164 L465,272.251582 C483.463369,275.711088 493.463369,277.128282 495,276.503164 C496.536631,275.878045 499.536631,274.460851 504,272.251582 C506.921537,270.77639 508.519571,269.526917 508.794102,268.503164 C509.068633,267.47941 509.068633,265.645022 508.794102,263 L492,270.574568 Z" id="Path-2" stroke="#FFFFFF" fill="#FFFFFF" fill-rule="nonzero" transform="translate(487.000000, 269.823334) rotate(180.000000) translate(-487.000000, -269.823334) "></path>
            <path d="M136.929685,31.3776448 C136.929685,31.3776448 126.050032,40.7323372 125.416464,46.781409 C125.1033,49.7713779 124.701574,53.351328 125.416464,56.1347778 C126.131353,58.9182276 128,61 128,61 L119,61 C119,61 117.819238,51.6926143 119,47.3790899 C119.811003,44.4163551 126.995839,37.5173374 132.024096,33.7734239 C137.052352,30.0295104 136.929685,31.3776448 136.929685,31.3776448 Z" id="Triangle-2" stroke="#000000" fill="#000000"></path>
            <path d="M118.596357,34 C118.596357,34 111.738742,46.1338787 111.931991,52.6179842 C112.12524,59.1020897 114.112205,62.5496913 114.112205,62.5496913 L107,62.5496913 C107,62.5496913 107.58683,55.6311178 108.676203,52.6179842 C109.135622,51.3472604 110.187791,47.4176316 111.931991,43.6825427 C113.67619,39.9474537 118.596357,34 118.596357,34 Z" id="Triangle-2" stroke="#000000" fill="#000000"></path>
        </g>
    </g>
</svg>