<?xml version="1.0" encoding="UTF-8"?>
<svg width="801px" height="602px" viewBox="0 0 801 602" version="1.1" xmlns="http://www.w3.org/2000/svg" xmlns:xlink="http://www.w3.org/1999/xlink">
    <!-- Generator: Sketch 44.1 (41455) - http://www.bohemiancoding.com/sketch -->
    <title>Group-dragon-without-tail-flying</title>
    <desc>Created with Sketch.</desc>
    <defs></defs>
    <g id="Dragon" stroke="none" stroke-width="1" fill="none" fill-rule="evenodd">
        <g id="Group-dragon-without-tail-flying" transform="translate(1.000000, 0.000000)" fill-rule="nonzero">
            <polygon id="Path-3" stroke="#000000" fill="#000000" transform="translate(417.137121, 195.220566) rotate(-7.000000) translate(-417.137121, -195.220566) " points="134.637121 243.220566 150.637121 243.220566 189.637121 213.220566 209.637121 194.220566 224.637121 169.220566 227.637121 138.220566 227.637121 122.220566 295.637121 95.2205661 336.637121 81.2205661 371.637121 73.2205661 432.637121 60.2205661 527.637121 42.2205661 580.637121 36.2205661 617.637121 33.2205661 661.637121 33.2205661 593.637121 48.2205661 571.637121 57.2205661 564.637121 65.2205661 564.637121 73.2205661 578.637121 84.2205661 605.637121 95.2205661 628.637121 101.220566 699.637121 119.220566 605.637121 122.220566 575.637121 127.220566 541.637121 143.220566 521.637121 159.220566 504.637121 182.220566 497.637121 206.220566 497.637121 225.220566 506.637121 253.220566 539.637121 302.220566 499.637121 277.220566 468.637121 264.220566 426.637121 259.220566 389.637121 270.220566 365.637121 290.220566 354.637121 321.220566 359.637121 357.220566 311.637121 326.220566 286.637121 326.220566 134.637121 302.220566"></polygon>
            <polygon id="Path-3" stroke="#000000" fill="#000000" points="235 367 251 367 290 337 310 318 325 293 328 262 328 246 396 219 437 205 472 197 533 184 628 166 681 160 718 157 762 157 694 172 672 181 665 189 665 197 679 208 706 219 729 225 800 243 706 246 676 251 642 267 622 283 605 306 598 330 598 349 607 377 640 426 600 401 569 388 527 383 490 394 466 414 455 445 460 481 412 450 387 450 235 426"></polygon>
            <path d="M53,313 L53,327 C54.6421219,337.558148 56.3087886,345.224815 58,350 C59.6912114,354.775185 63.6912114,363.108518 70,375 L95,404 L115,418 L147,432 C138.48773,434 131.821064,435 127,435 C122.178936,435 115.51227,434 107,432 L85,427 L71,427 L62,431 L54,438 L53,442 L53,450 L58,441 L63,438 L67,439 L68,444 L64,451 L60,458 L58,460 L58,466 L59,469 L62,464 L68,456 L73,455 L77,456 L77,461 L74,465 L71,471 L69,477 L69,483 L74,476 L82,474 L87,472 L95,469 L110,462 L127,460 L142,458 L161,459 C166.036288,459.791029 169.702955,460.791029 172,462 C174.297045,463.208971 176.963712,465.542305 180,469 L180,461 L178,453 L183,447 L188,447 L201,452 L219,457 L234,460 L249,462 L270,464 L296,464 L317,460 L328,458 L334,456 L328,464 L317,469 L293,479 L273,483 L252,486 L238,492 L231,500 L231,513 L236,504 L241,500 L245,506 L243,513 L241,525 L245,532 L247,519 L252,513 L258,515 L256,525 L256,535 L258,544 L261,532 L273,525 L290,511 L311,500 L328,494 L347,492 L360,492 L368,496 L376,498 L384,500 L384,494 L372,486 L362,481 L355,474 L355,460 L362,455 L376,453 L394,455 C399.223455,455.132716 403.223455,455.466049 406,456 C408.776545,456.533951 413.443211,457.867284 420,460 C427.048474,461.765335 432.048474,463.432002 435,465 C437.951526,466.567998 443.618192,470.567998 452,477 C457.717454,480.629664 461.717454,483.629664 464,486 C466.282546,488.370336 470.949212,494.370336 478,504 C482.528473,509.815584 485.528473,514.148917 487,517 C488.471527,519.851083 490.80486,525.851083 494,535 C496.335074,548.091118 498.668407,557.424452 501,563 C503.331593,568.575548 508.664926,577.575548 517,590 L532,602 L556,555 L556,547 L547,547 L551,538 L554,532 L543,529 L547,523 L551,519 L543,513 L538,511 L538,504 L545,496 L530,496 L534,490 L540,483 L532,483 L528,479 L538,466 L526,465 L526,461 L532,450 L519,450 L523,435 L507,435 L507,422 L498,425 L494,420 L494,412 L487,414 L478,412 L478,393 L469,400 L464,400 L461,396 L461,389 L449,389 L446,385 L446,375 L440,379 L430,381 L426,375 L424,366 L417,372 L411,375 L406,375 L404,372 L404,362 L396,366 L394,368 L388,366 L384,360 L381,357 L376,362 L372,362 L368,350 L360,355 L351,357 L345,348 L342,339 L332,343 L322,346 L317,331 L216,313 L166,304 L53,313 Z" id="Path-4" fill="#000000"></path>
            <path d="M46,28 L39,38 L37,66 L24,86 L20,93 L18,98 L18,106 L18,117 L17,134 L15,140 L1,177 L0,182 L0,193 L3,203 L12,211 L16,212 L20,212 L25,211 L26,204 L31,197 L34,196 L32,193 L32,190 L31,190 L31,185 L32,185 L32,180 L35,175 L31,166 L31,159 L33,153 L37,145 L45,134 L52,128 L53,141 L58,153 C60.1223763,159.76343 61.1223763,164.430097 61,167 C60.8776237,169.569903 59.210957,172.903236 56,177 L49,184 L49,186 L56,195 L56,204 L53,210 L66,212 L78,210 C77.3254095,207.513622 76.6587429,205.846955 76,205 C75.3412571,204.153045 73.6745905,202.819712 71,201 L72,194 L76,191 L81,191 L92,189 L85,188 L77,183 L77,181 L84,181 L78,176 L78,174 L87,172 L96,167 L81,167 L93,149 L99,138 L105,124 L109,112 L111,106 L119,101 L130,103 L139,111 L141,123 L136,137 C133.706778,143.548591 131.706778,148.215258 130,151 C128.293222,153.784742 125.293222,160.784742 121,172 C116.671559,178.153346 113.338226,182.820012 111,186 C108.661774,189.179988 103.661774,195.513321 96,205 L74,238 L66,253 C63.4380933,258.115482 61.7714267,261.782148 61,264 C60.2285733,266.217852 59.2285733,270.217852 58,276 C56.4724157,283.170791 55.4724157,288.504124 55,292 C54.5275843,295.495876 53.8609177,302.495876 53,313 L168,305 C167.408441,299.09771 167.408441,294.431043 168,291 C168.591559,287.568957 168.591559,282.568957 168,276 C167.715856,269.352901 167.715856,264.352901 168,261 C168.284144,257.647099 168.284144,252.647099 168,246 L172,240 L178,236 L182,236 L176,227 L176,217 L182,212 L195,212 L190,204 L190,196 L195,190 L203,189 L211,188 L203,177 L203,170.5 L211,166 L222,162 L216,149 L214,134 L222,138 L233,138 L228,128 L220,117 L226,113 L233,106 L220,98 L214,91 L220,89 L226,86 C221.988647,81.847175 218.655314,78.847175 216,77 C213.344686,75.152825 209.011353,72.8194916 203,70 L214,62 L192,59 L206,51 L192,46 L182,48 L192,36 C184.132523,34.6666667 178.132523,34 174,34 C169.867477,34 164.534144,34.6666667 158,36 L165,25 C156.186719,28.1599826 150.520052,30.1599826 148,31 C145.479948,31.8400174 141.479948,33.506684 136,36 L139,25 L119,38 L119,31 L111,38 L113,25 L93,42 L92,18 L81,31 L74,53 L71,42 L68,25 L68,11 L72,0 L57,22 L53,36 L56,62 L46,53 L45,42 L46,28 Z" id="Path" stroke="#000000" fill="#000000"></path>
            <path d="M50.3913043,81 L43.102949,85 L36.4782609,95.1499525 L33,102.224929 L33,111 C37.2604701,109.312559 40.1590209,108.15628 41.6956522,107.531161 C43.2322835,106.906042 46.1308342,105.137298 50.3913043,102.224929 C51.855904,100.432063 52.7254692,99.0237534 53,98 C53.2745308,96.9762466 53.2745308,95.1418588 53,92.4968364 C53.1883266,90.3789076 53.1883266,88.9049542 53,88.0749763 C52.8116734,87.2449983 51.9421082,84.8866729 50.3913043,81 Z" id="Path-2" stroke="#FFFFFF" fill="#FFFFFF"></path>
            <path d="M240,286.431064 L227,284.35966 L213,288.108078 C231.463369,291.567584 241.463369,292.984778 243,292.35966 C244.536631,291.734541 247.536631,290.317347 252,288.108078 C254.921537,286.632886 256.519571,285.383413 256.794102,284.35966 C257.068633,283.335906 257.068633,281.501518 256.794102,278.856496 L240,286.431064 Z" id="Path-2" stroke="#FFFFFF" fill="#FFFFFF" transform="translate(235.000000, 285.679830) rotate(180.000000) translate(-235.000000, -285.679830) "></path>
        </g>
    </g>
</svg>