<?xml version="1.0" encoding="UTF-8"?>
<svg width="518px" height="1217px" viewBox="0 0 518 1217" version="1.1" xmlns="http://www.w3.org/2000/svg" xmlns:xlink="http://www.w3.org/1999/xlink">
    <!-- Generator: Sketch 44.1 (41455) - http://www.bohemiancoding.com/sketch -->
    <title>prince-walking-left-leg-bend</title>
    <desc>Created with Sketch.</desc>
    <defs></defs>
    <g id="prince" stroke="none" stroke-width="1" fill="none" fill-rule="evenodd">
        <g id="prince-walking-left-leg-bend" transform="translate(-38.000000, -2.000000)" fill-rule="nonzero" fill="#000000">
            <path d="M199.096464,174.64732 C194.224849,177.83961 190.558182,179.83961 188.096464,180.64732 C180.589643,183.110371 173.800415,182.843632 172.096464,182.64732 C165.701186,181.910519 165.672784,176.871999 165.096464,175.64732 C164.176514,173.692427 163.843181,170.359094 164.096464,165.64732 L158.096464,163.64732 C156.873488,161.863512 156.206821,160.530179 156.096464,159.64732 C155.986107,158.764461 156.31944,157.431128 157.096464,155.64732 C155.221043,154.438566 153.88771,153.438566 153.096464,152.64732 C152.305218,151.856074 151.638552,150.856074 151.096464,149.64732 L154.096464,141.64732 C145.429447,139.586205 140.429447,137.586205 139.096464,135.64732 C137.763481,133.708435 140.096814,129.041769 146.096464,121.64732 L149.096464,110.64732 L153.096464,99.6473198 C151.536052,95.7521178 150.202719,93.0854518 149.096464,91.6473198 C147.990209,90.2091878 145.990209,88.5425218 143.096464,86.6473198 L139.096464,76.6473198 L131.096464,76.6473198 C126.246519,71.3643687 123.579852,67.0310358 123.096464,63.6473198 C122.613076,60.2636038 123.946409,55.2636038 127.096464,48.6473198 C128.478164,44.1222648 129.811497,40.7889308 131.096464,38.6473198 C132.381431,36.5057088 135.048098,33.1723748 139.096464,28.6473198 C143.16821,25.0422118 146.501543,22.7088778 149.096464,21.6473198 C151.691385,20.5857618 155.691385,19.9190948 161.096464,19.6473198 C166.994597,16.2719018 171.661264,14.2719018 175.096464,13.6473198 C177.420391,13.2247878 184.848361,16.5492138 194.096464,13.6473198 C196.154357,13.0015888 200.918894,6.63973075 213.096464,3.64731975 C216.608805,2.78422675 223.608805,2.78422675 234.096464,3.64731975 L252.096464,13.6473198 L266.096464,19.6473198 L277.096464,34.6473198 C282.550317,42.0128618 286.216984,47.6795288 288.096464,51.6473198 C289.376202,54.3489888 293.395891,61.7978288 295.096464,73.6473198 C295.466966,76.2289548 298.215251,85.8085358 297.096464,101.64732 C296.772742,106.230282 295.439409,114.563615 293.096464,126.64732 L285.096464,141.64732 C282.664522,146.63341 281.331188,150.300077 281.096464,152.64732 C280.86174,154.994563 280.86174,160.66123 281.096464,169.64732 L283.096464,179.64732 L283.096464,187.64732 L208.096464,190.64732 L208.096464,179.64732 L199.096464,174.64732 Z" id="Path-6" transform="translate(210.181258, 96.823660) rotate(-2.000000) translate(-210.181258, -96.823660) "></path>
            <path d="M376,197 C387.870235,205.227169 395.870235,211.560502 400,216 C404.129765,220.439498 410.129765,227.772831 418,238 C424.280521,250.825039 427.947188,260.491706 429,267 C430.052812,273.508294 430.052812,286.508294 429,306 L435,375 L447,412 L457,466 L473,500 L482,533 L497,561 L500,577 L494,577 L494,592 L505,607 C507.88449,611.879207 509.88449,615.545874 511,618 C511.7231,619.590823 515.29255,625.266424 519,636 C520.3413,639.883246 522.3413,647.216579 525,658 L527,676 L515,712 L510,724 C506.89245,727.891115 504.89245,729.557782 504,729 C503.10755,728.442218 501.77422,726.442218 500,723 L497,709 L497,687 L497,676 C495.55353,672.553531 494.2202,670.220198 493,669 C491.7798,667.779802 489.44647,666.446469 486,665 C483.48441,665.617805 481.81775,666.284472 481,667 C480.18225,667.715528 479.18225,669.382195 478,672 C477.72188,676.290378 477.72188,678.957045 478,680 C478.27812,681.042955 479.27812,683.709622 481,688 C481.35877,689.949126 481.35877,691.282459 481,692 C480.64123,692.717541 478.64123,692.717541 475,692 L470,686 C467.157049,682.633649 465.157049,679.966983 464,678 C462.842951,676.033017 461.842951,673.033017 461,669 C459.753032,662.45463 459.086366,657.45463 459,654 C458.942426,651.69704 460.684549,647.63911 461,641 C461.105168,638.786599 460.771834,634.786599 460,629 L452,604 L441,581 L425,557 L400,490 L384,443 L367,375 L362,316 L357,261 L376,197 Z" id="Path-7" transform="translate(442.000000, 463.052449) rotate(-8.000000) translate(-442.000000, -463.052449) "></path>
            <polygon id="Path-7" transform="translate(162.225578, 369.206315) scale(-1, 1) rotate(-8.000000) translate(-162.225578, -369.206315) " points="131.872637 226.706315 159.996774 251.821177 178.394462 278.250802 184.484402 327.706315 190.55499 396.706315 202.696166 433.706315 212.813813 487.706315 155.143225 511.706315 138.95499 464.706315 121.75499 396.706315 116.696166 337.706315 111.637343 282.706315"></polygon>
            <polygon id="Path-7" transform="translate(100.948986, 591.437627) scale(1, -1) rotate(182.000000) translate(-100.948986, -591.437627) " points="94.372515 460.437627 110.560751 494.437627 119.666633 527.437627 134.843104 555.437627 137.878398 571.437627 131.80781 571.437627 131.80781 586.437627 142.937221 601.437627 153.054868 623.437627 165.196045 652.437627 165.196045 670.437627 153.054868 706.437627 145.972515 722.437627 137.878398 717.437627 134.843104 703.437627 134.843104 681.437627 134.843104 670.437627 123.713692 659.437627 115.619574 663.437627 119.666633 681.437627 115.619574 688.437627 106.513692 681.437627 97.40781 663.437627 97.40781 623.437627 89.313692 598.437627 78.18428 575.437627 61.996045 551.437627 36.701927 484.437627"></polygon>
            <path d="M339,184 L359,189 L377,200 L391,217 C395.987969,222.410474 398.987969,226.077141 400,228 C401.012031,229.922859 405.012031,237.256192 412,250 L376.5,482 L381,538 L391,589 C395.743947,607.811481 398.743947,622.144814 400,632 C401.256053,641.855186 403.92272,661.521853 408,691 L408,741 L408,782 L404,809 C371.005748,810.38822 346.005748,810.38822 329,809 C311.994252,807.611776 287.994252,803.611776 257,797 C230.880145,792.898039 211.546812,788.898039 199,785 C186.453188,781.101961 171.453188,774.435295 154,765 C132.008788,749.82885 116.008788,737.495516 106,728 C95.991212,718.504484 85.991212,706.17115 76,691 C116.096421,618.696837 137.429754,577.696837 140,568 C142.570246,558.303163 147.236913,544.636496 154,527 C164.032825,502.758775 170.699492,484.425442 174,472 C177.300508,459.574558 181.967175,435.241225 188,399 L188,384 L216,235 L265,194 L339,184 Z" id="Path-8" transform="translate(244.000000, 497.020583) rotate(-15.000000) translate(-244.000000, -497.020583) "></path>
            <path d="M357,438 C357,444 360.666667,461.333333 368,490 L380,547 C383.916438,561.604886 386.249771,572.604886 387,580 C387.750229,587.395114 387.750229,599.395114 387,616 L400,680 C404.666667,708.012946 407,726.012946 407,734 C407,741.987054 404.666667,757.320387 400,780 C411.162715,782.05585 419.162715,782.05585 424,780 C428.837285,777.944154 436.503952,773.944154 447,768 C456.733804,767.191155 463.400471,765.857821 467,764 C470.599529,762.142179 474.2662,758.142179 478,752 C471.64772,738.550079 466.647716,728.883412 463,723 C459.352284,717.116588 456.352284,707.116588 454,693 C450.99294,675.149996 448.659607,661.816663 447,653 C445.340393,644.183337 442.340393,629.183337 438,608 L438,576 L407,497 L376,410 L368,342 C360.666667,400 357,432 357,438 Z" id="Path-9" transform="translate(417.500000, 561.770944) rotate(-8.000000) translate(-417.500000, -561.770944) "></path>
            <path d="M157.969178,767.352297 C157.969178,771.364108 148.969178,902.352297 148.969178,902.352297 L232.969178,902.352297 L232.969178,861.352297 L250.969178,805.352297 L257.969178,792.352297 L277.969178,744.352297 L181.969178,711.352297 C165.969178,742.68563 157.969178,761.352297 157.969178,767.352297 Z" id="Path-10" transform="translate(213.469178, 806.852297) rotate(19.000000) translate(-213.469178, -806.852297) "></path>
            <polygon id="Path-11" transform="translate(154.500000, 917.000000) rotate(16.000000) translate(-154.500000, -917.000000) " points="111 885 99 900 99 919 111 942 199 949 210 919 199 885"></polygon>
            <path d="M126.535263,935.781931 L126.535263,976.781931 L126.535263,1037.78193 L126.535263,1074.78193 C127.383839,1084.22084 127.383839,1091.22084 126.535263,1095.78193 C125.686687,1100.34302 123.020021,1107.67636 118.535263,1117.78193 C114.731939,1125.68611 111.065273,1131.35278 107.535263,1134.78193 C104.005253,1138.21108 96.0052527,1143.87775 83.5352627,1151.78193 L52.5352627,1173.78193 L34.5352627,1183.78193 C32.5352627,1187.79025 31.5352627,1190.79025 31.5352627,1192.78193 C31.5352627,1194.77361 32.5352627,1197.10694 34.5352627,1199.78193 C46.7810477,1203.01591 55.4477147,1204.68258 60.5352627,1204.78193 C78.6829237,1205.13633 90.4284187,1200.65069 94.5352627,1199.78193 C100.369086,1198.54785 108.369086,1196.21452 118.535263,1192.78193 L143.535263,1183.78193 L170.535263,1183.78193 C175.659042,1182.88399 178.992375,1181.88399 180.535263,1180.78193 C182.078151,1179.67987 183.411484,1177.34653 184.535263,1173.78193 L176.535263,1138.78193 L176.535263,1104.78193 L194.535263,1054.78193 C198.389353,1043.8033 200.722687,1035.46996 201.535263,1029.78193 C202.347839,1024.0939 204.014506,1016.0939 206.535263,1005.78193 L208.535263,971.781931 L210.535263,935.781931 C154.535263,931.115261 126.535263,931.115261 126.535263,935.781931 Z" id="Path-12" transform="translate(121.035263, 1068.541879) rotate(-5.000000) translate(-121.035263, -1068.541879) "></path>
            <path d="M306.057591,754 C306.057591,758.011811 299.74003,767.238922 297.057591,779 C296.287709,782.375526 292.489884,799.29751 293.057591,828 C293.114797,830.89223 293.114797,836.22557 293.057591,844 L297.057591,889 L381.057591,889 L381.057591,848 L399.057591,792 L406.057591,779 L426.057591,731 L330.057591,698 C314.057591,729.333333 306.057591,748 306.057591,754 Z" id="Path-10" transform="translate(359.528796, 793.500000) rotate(-3.000000) translate(-359.528796, -793.500000) "></path>
            <polygon id="Path-11" transform="translate(343.500000, 919.000000) rotate(-3.000000) translate(-343.500000, -919.000000) " points="300 887 288 902 288 921 300 944 388 951 399 921 388 887"></polygon>
            <path d="M308,946.500003 L308,987.500003 L308,1048.5 L308,1085.5 C308.848576,1094.93891 308.848576,1101.93891 308,1106.5 C307.151424,1111.06109 304.484758,1118.39443 300,1128.5 C296.196676,1136.40418 292.53001,1142.07085 289,1145.5 C285.46999,1148.92915 277.46999,1154.59582 265,1162.5 L234,1184.5 L216,1194.5 C214,1198.50832 213,1201.50832 213,1203.5 C213,1205.49168 214,1207.82501 216,1210.5 C228.245785,1213.73398 236.912452,1215.40065 242,1215.5 C260.147661,1215.8544 271.893156,1211.36876 276,1210.5 C281.833823,1209.26592 289.833823,1206.93259 300,1203.5 L325,1194.5 L352,1194.5 C357.123779,1193.60206 360.457112,1192.60206 362,1191.5 C363.542888,1190.39794 364.876221,1188.0646 366,1184.5 L358,1149.5 L358,1115.5 L376,1065.5 C379.85409,1054.52137 382.187424,1046.18803 383,1040.5 C383.812576,1034.81197 385.479243,1026.81197 388,1016.5 L390,982.500003 L392,946.500003 C336,941.833332 308,941.833332 308,946.500003 Z" id="Path-12" transform="translate(302.500000, 1079.259951) rotate(-3.000000) translate(-302.500000, -1079.259951) "></path>
        </g>
    </g>
</svg>