<?xml version="1.0" encoding="UTF-8"?>
<svg width="495px" height="1384px" viewBox="0 0 495 1384" version="1.1" xmlns="http://www.w3.org/2000/svg" xmlns:xlink="http://www.w3.org/1999/xlink">
    <!-- Generator: Sketch 44.1 (41455) - http://www.bohemiancoding.com/sketch -->
    <title>princ standing copy</title>
    <desc>Created with Sketch.</desc>
    <defs></defs>
    <g id="prince" stroke="none" stroke-width="1" fill="none" fill-rule="evenodd">
        <g id="princ-standing-copy" transform="translate(-128.000000, -48.000000)" fill-rule="nonzero" fill="#000000">
            <path d="M337.096464,378.64732 C332.224849,381.83961 328.558182,383.83961 326.096464,384.64732 C318.589643,387.110371 311.800415,386.843632 310.096464,386.64732 C303.701186,385.910519 303.672784,380.871999 303.096464,379.64732 C302.176514,377.692427 301.843181,374.359094 302.096464,369.64732 L296.096464,367.64732 C294.873488,365.863512 294.206821,364.530179 294.096464,363.64732 C294.03616,363.164888 302.385837,362.74606 306.999464,360.312102 C311.613091,357.878144 311.021441,354.244755 311.373866,353.435695 C310.627221,352.954464 306.909713,350.638808 303.229239,351.408908 C299.548765,352.179008 292.014976,357.053504 291.538742,356.57727 C290.747496,355.786024 289.638552,354.856074 289.096464,353.64732 L292.096464,345.64732 C283.429447,343.586205 278.429447,341.586205 277.096464,339.64732 C275.763481,337.708435 278.096814,333.041769 284.096464,325.64732 L287.096464,314.64732 L291.096464,303.64732 C289.536052,299.752118 288.202719,297.085452 287.096464,295.64732 C285.990209,294.209188 283.990209,292.542522 281.096464,290.64732 L277.096464,280.64732 L269.096464,280.64732 C264.246519,275.364369 261.579852,271.031036 261.096464,267.64732 C260.613076,264.263604 261.946409,259.263604 265.096464,252.64732 C266.478164,248.122265 267.811497,244.788931 269.096464,242.64732 C270.381431,240.505709 273.048098,237.172375 277.096464,232.64732 C281.16821,229.042212 284.501543,226.708878 287.096464,225.64732 C289.691385,224.585762 293.691385,223.919095 299.096464,223.64732 C304.994597,220.271902 309.661264,218.271902 313.096464,217.64732 C315.420391,217.224788 322.848361,220.549214 332.096464,217.64732 C334.154357,217.001589 338.918894,210.639731 351.096464,207.64732 C354.608805,206.784227 361.608805,206.784227 372.096464,207.64732 L390.096464,217.64732 L404.096464,223.64732 L415.096464,238.64732 C420.550317,246.012862 424.216984,251.679529 426.096464,255.64732 C427.376202,258.348989 431.395891,265.797829 433.096464,277.64732 C433.466966,280.228955 436.215251,289.808536 435.096464,305.64732 C434.772742,310.230282 433.439409,318.563615 431.096464,330.64732 L423.096464,345.64732 C420.664522,350.63341 419.331188,354.300077 419.096464,356.64732 C418.86174,358.994563 418.86174,364.66123 419.096464,373.64732 L421.096464,383.64732 L421.096464,391.64732 L346.096464,394.64732 L346.096464,383.64732 L337.096464,378.64732 Z" id="Path-6" transform="translate(348.181258, 300.823660) rotate(9.000000) translate(-348.181258, -300.823660) "></path>
            <g id="Group" transform="translate(250.101252, 291.171414) rotate(150.000000) translate(-250.101252, -291.171414) translate(108.101252, 37.671414)">
                <polygon id="Path-7" transform="translate(199.225578, 150.206315) scale(-1, 1) rotate(12.000000) translate(-199.225578, -150.206315) " points="168.872637 7.706315 196.996774 32.821177 215.394462 59.250802 221.484402 108.706315 227.55499 177.706315 239.696166 214.706315 249.813813 268.706315 192.143225 292.706315 175.95499 245.706315 158.75499 177.706315 153.696166 118.706315 148.637343 63.706315"></polygon>
                <polygon id="Path-7" transform="translate(141.882872, 373.558852) scale(-1, -1) rotate(230.000000) translate(-141.882872, -373.558852) " points="135.306401 242.558852 151.494637 276.558852 160.600519 309.558852 175.77699 337.558852 178.812284 353.558852 172.741696 353.558852 172.741696 368.558852 183.871107 383.558852 193.988754 405.558852 206.129931 434.558852 206.129931 452.558852 193.988754 488.558852 186.906401 504.558852 178.812284 499.558852 175.77699 485.558852 175.77699 463.558852 175.77699 452.558852 164.647578 441.558852 156.55346 445.558852 160.600519 463.558852 156.55346 470.558852 147.447578 463.558852 138.341696 445.558852 138.341696 405.558852 130.247578 380.558852 119.118166 357.558852 102.929931 333.558852 77.6358125 266.558852"></polygon>
            </g>
            <g id="Group" transform="translate(448.795165, 300.919637) scale(1, -1) rotate(341.000000) translate(-448.795165, -300.919637) translate(306.795165, 47.419637)">
                <polygon id="Path-7" transform="translate(199.225578, 150.206315) scale(-1, 1) rotate(12.000000) translate(-199.225578, -150.206315) " points="168.872637 7.706315 196.996774 32.821177 215.394462 59.250802 221.484402 108.706315 227.55499 177.706315 239.696166 214.706315 249.813813 268.706315 192.143225 292.706315 175.95499 245.706315 158.75499 177.706315 153.696166 118.706315 148.637343 63.706315"></polygon>
                <polygon id="Path-7" transform="translate(141.882872, 373.558852) scale(-1, -1) rotate(230.000000) translate(-141.882872, -373.558852) " points="135.306401 242.558852 151.494637 276.558852 160.600519 309.558852 175.77699 337.558852 178.812284 353.558852 172.741696 353.558852 172.741696 368.558852 183.871107 383.558852 193.988754 405.558852 206.129931 434.558852 206.129931 452.558852 193.988754 488.558852 186.906401 504.558852 178.812284 499.558852 175.77699 485.558852 175.77699 463.558852 175.77699 452.558852 164.647578 441.558852 156.55346 445.558852 160.600519 463.558852 156.55346 470.558852 147.447578 463.558852 138.341696 445.558852 138.341696 405.558852 130.247578 380.558852 119.118166 357.558852 102.929931 333.558852 77.6358125 266.558852"></polygon>
            </g>
            <path d="M412,388 L432,393 L450,404 L464,421 C468.987969,426.410474 471.987969,430.077141 473,432 C474.012031,433.922859 478.012031,441.256192 485,454 L449.5,686 L454,742 L464,793 C468.743947,811.811481 471.743947,826.144814 473,836 C474.256053,845.855186 476.92272,865.521853 481,895 L481,945 L481,986 L477,1013 C444.005748,1014.38822 419.005748,1014.38822 402,1013 C384.994252,1011.61178 360.994252,1007.61178 330,1001 C303.880145,996.898039 284.546812,992.898039 272,989 C259.453188,985.101961 244.453188,978.435295 227,969 C205.008788,953.82885 189.008788,941.495516 179,932 C168.991212,922.504484 158.991212,910.17115 149,895 C189.096421,822.696837 210.429754,781.696837 213,772 C215.570246,762.303163 220.236913,748.636496 227,731 C237.032825,706.758775 243.699492,688.425442 247,676 C250.300508,663.574558 254.967175,639.241225 261,603 L261,588 L289,439 L338,398 L412,388 Z" id="Path-8" transform="translate(317.000000, 701.020583) rotate(-6.000000) translate(-317.000000, -701.020583) "></path>
            <path d="M434.431557,619.725583 L455.373929,676.725583 C462.208888,691.330469 466.281015,702.330469 467.590313,709.725583 C468.899611,717.120697 468.899611,729.120697 467.590313,745.725583 L490.277883,809.725583 C498.422139,837.738529 502.494267,855.738529 502.494267,863.725583 C502.494267,871.712637 523.720609,911.781433 532.162627,909.725583 C540.604646,907.669737 553.984495,903.669737 572.302174,897.725583 C589.289586,896.916738 600.924238,895.583404 607.206127,893.725583 C613.488017,891.867762 619.887083,887.867762 626.403302,881.725583 C615.317318,868.275662 606.591322,858.608995 600.225337,852.725583 C593.859351,846.842171 588.623758,836.842171 584.518558,822.725583 C579.270643,804.875579 575.198516,791.542246 572.302174,782.725583 C569.405832,773.90892 564.170238,758.90892 556.595395,737.725583 L556.595395,705.725583 L502.494267,626.725583 L448.393138,539.725583 L434.431557,471.725583 C421.633441,529.725583 421.633441,591.058916 434.431557,619.725583 Z" id="Path-9" transform="translate(525.618136, 690.763766) rotate(1.000000) translate(-525.618136, -690.763766) "></path>
            <polygon id="Path-11" points="222 1104 210 1119 210 1138 222 1161 310 1168 321 1138 310 1104"></polygon>
            <path d="M223,1163 L223,1204 L223,1265 L223,1302 C223.848576,1311.43891 223.848576,1318.43891 223,1323 C222.151424,1327.56109 219.484758,1334.89443 215,1345 C211.196676,1352.90418 207.53001,1358.57085 204,1362 C200.46999,1365.42915 192.46999,1371.09582 180,1379 L149,1401 L131,1411 C129,1415.00832 128,1418.00832 128,1420 C128,1421.99168 129,1424.32501 131,1427 C143.245785,1430.23398 151.912452,1431.90065 157,1432 C175.147661,1432.3544 186.893156,1427.86876 191,1427 C196.833823,1425.76592 204.833823,1423.43259 215,1420 L240,1411 L267,1411 C272.123779,1410.10206 275.457112,1409.10206 277,1408 C278.542888,1406.89794 279.876221,1404.5646 281,1401 L273,1366 L273,1332 L291,1282 C294.85409,1271.02137 297.187424,1262.68803 298,1257 C298.812576,1251.31197 300.479243,1243.31197 303,1233 L305,1199 L307,1163 C251,1158.33333 223,1158.33333 223,1163 Z" id="Path-12"></path>
            <path d="M367.057591,969 C367.057591,973.011811 360.74003,982.238922 358.057591,994 C357.287709,997.375526 353.489884,1014.29751 354.057591,1043 C354.114797,1045.89223 354.114797,1051.22557 354.057591,1059 L358.057591,1104 L442.057591,1104 L442.057591,1063 L460.057591,1007 L467.057591,994 L487.057591,946 L391.057591,913 C375.057591,944.333333 367.057591,963 367.057591,969 Z" id="Path-10"></path>
            <path d="M358,1102 L446,1102 L457,1136 L446,1166 L358,1159 L346,1136 L346,1117 L358,1102 Z M235.207082,975 C235.207082,969 243.207082,950.333333 259.207082,919 L355.207082,952 L335.207082,1000 L328.207082,1013 L310.207082,1110 L226.207082,1110 C226.207082,1110 235.207082,979.011811 235.207082,975 Z" id="Path-11"></path>
            <path d="M359,1161.5 L359,1202.5 L359,1263.5 L359,1300.5 C359.848576,1309.93891 359.848576,1316.93891 359,1321.5 C358.151424,1326.06109 355.484758,1333.39443 351,1343.5 C347.196676,1351.40418 343.53001,1357.07085 340,1360.5 C336.46999,1363.92915 328.46999,1369.59582 316,1377.5 L285,1399.5 L267,1409.5 C265,1413.50832 264,1416.50832 264,1418.5 C264,1420.49168 265,1422.82501 267,1425.5 C279.245785,1428.73398 287.912452,1430.40065 293,1430.5 C311.147661,1430.8544 322.893156,1426.36876 327,1425.5 C332.833823,1424.26592 340.833823,1421.93259 351,1418.5 L376,1409.5 L403,1409.5 C408.123779,1408.60206 411.457112,1407.60206 413,1406.5 C414.542888,1405.39794 415.876221,1403.0646 417,1399.5 L409,1364.5 L409,1330.5 L427,1280.5 C430.85409,1269.52137 433.187424,1261.18803 434,1255.5 C434.812576,1249.81197 436.479243,1241.81197 439,1231.5 L441,1197.5 L443,1161.5 C387,1156.83333 359,1156.83333 359,1161.5 Z" id="Path-12"></path>
        </g>
    </g>
</svg>