<?xml version="1.0" encoding="UTF-8"?>
<svg width="861px" height="1509px" viewBox="0 0 861 1509" version="1.1" xmlns="http://www.w3.org/2000/svg" xmlns:xlink="http://www.w3.org/1999/xlink">
    <!-- Generator: Sketch 44.1 (41455) - http://www.bohemiancoding.com/sketch -->
    <title>princ with sword copy</title>
    <desc>Created with Sketch.</desc>
    <defs></defs>
    <g id="prince" stroke="none" stroke-width="1" fill="none" fill-rule="evenodd">
        <g id="princ-with-sword-copy" transform="translate(-195.000000, 0.000000)" fill-rule="nonzero">
            <path d="M764,383 C759.128385,386.19229 755.461718,388.19229 753,389 C745.493179,391.463051 738.703951,391.196312 737,391 C730.604722,390.263199 730.57632,385.224679 730,384 C729.08005,382.045107 728.746717,378.711774 729,374 L723,372 C721.777024,370.216192 721.110357,368.882859 721,368 C720.889643,367.117141 721.222976,365.783808 722,364 C720.124579,362.791246 718.791246,361.791246 718,361 C717.208754,360.208754 716.542088,359.208754 716,358 L719,350 C710.332983,347.938885 705.332983,345.938885 704,344 C702.667017,342.061115 705.00035,337.394449 711,330 L714,319 L718,308 C716.439588,304.104798 715.106255,301.438132 714,300 C712.893745,298.561868 710.893745,296.895202 708,295 L704,285 L696,285 C691.150055,279.717049 688.483388,275.383716 688,272 C687.516612,268.616284 688.849945,263.616284 692,257 C693.3817,252.474945 694.715033,249.141611 696,247 C697.284967,244.858389 699.951634,241.525055 704,237 C708.071746,233.394892 711.405079,231.061558 714,230 C716.594921,228.938442 720.594921,228.271775 726,228 C731.898133,224.624582 736.5648,222.624582 740,222 C742.323927,221.577468 749.751897,224.901894 759,222 C761.057893,221.354269 765.82243,214.992411 778,212 C781.512341,211.136907 788.512341,211.136907 799,212 L817,222 L831,228 L842,243 C847.453853,250.365542 851.12052,256.032209 853,260 C854.279738,262.701669 858.299427,270.150509 860,282 C860.370502,284.581635 863.118787,294.161216 862,310 C861.676278,314.582962 860.342945,322.916295 858,335 L850,350 C847.568058,354.98609 846.234724,358.652757 846,361 C845.765276,363.347243 845.765276,369.01391 846,378 L848,388 L848,396 L773,399 L773,388 L764,383 Z" id="Path-6" fill="#000000"></path>
            <path d="M905,416 C916.870235,424.227169 924.870235,430.560502 929,435 C933.129765,439.439498 939.129765,446.772831 947,457 C953.280521,469.825039 956.947188,479.491706 958,486 C959.052812,492.508294 959.052812,505.508294 958,525 L964,594 L976,631 L986,685 L1002,719 L1011,752 L1026,780 L1029,796 L1023,796 L1023,811 L1034,826 C1036.88449,830.879207 1038.88449,834.545874 1040,837 C1040.7231,838.590823 1044.29255,844.266424 1048,855 C1049.3413,858.883246 1051.3413,866.216579 1054,877 L1056,895 L1044,931 L1039,943 C1035.89245,946.891115 1033.89245,948.557782 1033,948 C1032.10755,947.442218 1030.77422,945.442218 1029,942 L1026,928 L1026,906 L1026,895 C1024.55353,891.553531 1023.2202,889.220198 1022,888 C1020.7798,886.779802 1018.44647,885.446469 1015,884 C1012.48441,884.617805 1010.81775,885.284472 1010,886 C1009.18225,886.715528 1008.18225,888.382195 1007,891 C1006.72188,895.290378 1006.72188,897.957045 1007,899 C1007.27812,900.042955 1008.27812,902.709622 1010,907 C1010.35877,908.949126 1010.35877,910.282459 1010,911 C1009.64123,911.717541 1007.64123,911.717541 1004,911 L999,905 C996.157049,901.633649 994.157049,898.966983 993,897 C991.842951,895.033017 990.842951,892.033017 990,888 C988.753032,881.45463 988.086366,876.45463 988,873 C987.942426,870.69704 989.684549,866.63911 990,860 C990.105168,857.786599 989.771834,853.786599 989,848 L981,823 L970,800 L954,776 L929,709 L913,662 L896,594 L891,535 L886,480 L905,416 Z" id="Path-7" fill="#000000"></path>
            <polygon id="Path-7" fill="#000000" transform="translate(656.225578, 549.206315) scale(-1, 1) rotate(-19.000000) translate(-656.225578, -549.206315) " points="625.872637 406.706315 653.996774 431.821177 672.394462 458.250802 678.484402 507.706315 684.55499 576.706315 696.696166 613.706315 706.813813 667.706315 649.143225 691.706315 632.95499 644.706315 615.75499 576.706315 610.696166 517.706315 605.637343 462.706315"></polygon>
            <polygon id="Path-7" fill="#000000" transform="translate(514.016818, 604.431604) rotate(131.000000) translate(-514.016818, -604.431604) " points="507.440347 473.431604 523.628583 507.431604 532.734465 540.431604 547.910936 568.431604 550.94623 584.431604 544.875642 584.431604 544.875642 599.431604 556.005053 614.431604 566.1227 636.431604 578.263877 665.431604 578.263877 683.431604 566.1227 719.431604 559.040347 735.431604 550.94623 730.431604 547.910936 716.431604 547.910936 694.431604 547.910936 683.431604 536.781524 672.431604 528.687406 676.431604 532.734465 694.431604 528.687406 701.431604 519.581524 694.431604 510.475642 676.431604 510.475642 636.431604 502.381524 611.431604 491.252112 588.431604 475.063877 564.431604 449.769759 497.431604"></polygon>
            <path d="M846,376 L866,381 L884,392 L898,409 C902.987969,414.410474 905.987969,418.077141 907,420 C908.012031,421.922859 912.012031,429.256192 919,442 L883.5,674 L888,730 L898,781 C902.743947,799.811481 905.743947,814.144814 907,824 C908.256053,833.855186 910.92272,853.521853 915,883 L915,933 L915,974 L911,1001 C878.005748,1002.38822 853.005748,1002.38822 836,1001 C818.994252,999.611776 794.994252,995.611776 764,989 C737.880145,984.898039 718.546812,980.898039 706,977 C693.453188,973.101961 678.453188,966.435295 661,957 C639.008788,941.82885 623.008788,929.495516 613,920 C602.991212,910.504484 592.991212,898.17115 583,883 C623.096421,810.696837 644.429754,769.696837 647,760 C649.570246,750.303163 654.236913,736.636496 661,719 C671.032825,694.758775 677.699492,676.425442 681,664 C684.300508,651.574558 688.967175,627.241225 695,591 L695,576 L723,427 L772,386 L846,376 Z" id="Path-8" fill="#000000"></path>
            <path d="M886,657 C886,663 889.666667,680.333333 897,709 L909,766 C912.916438,780.604886 915.249771,791.604886 916,799 C916.750229,806.395114 916.750229,818.395114 916,835 L929,899 C933.666667,927.012946 936,945.012946 936,953 C936,960.987054 933.666667,976.320387 929,999 C940.162715,1001.05585 948.162715,1001.05585 953,999 C957.837285,996.944154 965.503952,992.944154 976,987 C985.733804,986.191155 992.400471,984.857821 996,983 C999.599529,981.142179 1003.2662,977.142179 1007,971 C1000.64772,957.550079 995.647716,947.883412 992,942 C988.352284,936.116588 985.352284,926.116588 983,912 C979.99294,894.149996 977.659607,880.816663 976,872 C974.340393,863.183337 971.340393,848.183337 967,827 L967,795 L936,716 L905,629 L897,561 C889.666667,619 886,651 886,657 Z" id="Path-9" fill="#000000"></path>
            <path d="M665,959 C665,963.011811 658.682439,972.238922 656,984 C655.230118,987.375526 651.432293,1004.29751 652,1033 C652.057206,1035.89223 652.057206,1041.22557 652,1049 L656,1094 L740,1094 L740,1053 L758,997 L765,984 L785,936 L689,903 C673,934.333333 665,953 665,959 Z" id="Path-10" fill="#000000"></path>
            <polygon id="Path-11" fill="#000000" points="656 1092 644 1107 644 1126 656 1149 744 1156 755 1126 744 1092"></polygon>
            <path d="M657,1151 L657,1192 L657,1253 L657,1290 C657.848576,1299.43891 657.848576,1306.43891 657,1311 C656.151424,1315.56109 653.484758,1322.89443 649,1333 C645.196676,1340.90418 641.53001,1346.57085 638,1350 C634.46999,1353.42915 626.46999,1359.09582 614,1367 L583,1389 L565,1399 C563,1403.00832 562,1406.00832 562,1408 C562,1409.99168 563,1412.32501 565,1415 C577.245785,1418.23398 585.912452,1419.90065 591,1420 C609.147661,1420.3544 620.893156,1415.86876 625,1415 C630.833823,1413.76592 638.833823,1411.43259 649,1408 L674,1399 L701,1399 C706.123779,1398.10206 709.457112,1397.10206 711,1396 C712.542888,1394.89794 713.876221,1392.5646 715,1389 L707,1354 L707,1320 L725,1270 C728.85409,1259.02137 731.187424,1250.68803 732,1245 C732.812576,1239.31197 734.479243,1231.31197 737,1221 L739,1187 L741,1151 C685,1146.33333 657,1146.33333 657,1151 Z" id="Path-12" fill="#000000"></path>
            <polygon id="Path-13" fill="#000000" points="828 938 822 1006 835 1067 848 1136 936 1114 929 1079 913 1037 913 996 903 938"></polygon>
            <path d="M849,1128 L833,1132 L841,1171 L857,1191 L877,1202 L914,1202 L941,1191 L953,1167 L953,1143 L953,1119 L934,1111 L907,1111 C893.219692,1114.08138 883.219692,1116.74804 877,1119 C870.780308,1121.25196 861.446975,1124.25196 849,1128 Z" id="Path-14" fill="#000000"></path>
            <path d="M859,1190 L872,1240 L883,1288 L894,1334 L902,1364 L909,1391 C907.666667,1397.23885 907,1401.90551 907,1405 C907,1408.09449 907.666667,1413.09449 909,1420 C911.196507,1425.72635 912.863174,1429.72635 914,1432 C915.705239,1435.41048 926.136083,1453.23666 928,1458 C929.242612,1461.17556 930.575945,1464.5089 932,1468 L944,1490 C947.853354,1493.85335 950.520021,1496.52002 952,1498 C953.479979,1499.47998 957.479979,1502.47998 964,1507 C967.476689,1508.33333 970.143355,1509 972,1509 C973.856645,1509 976.523311,1508.33333 980,1507 C983.846327,1504.11774 986.512993,1501.78441 988,1500 C989.487007,1498.21559 991.82034,1494.54893 995,1489 C996.333333,1480.95257 997,1474.95257 997,1471 C997,1467.04743 996.333333,1462.04743 995,1456 L971,1411 L953,1372 L946,1317 L946,1274 L946,1240 L946,1177 L859,1190 Z" id="Path-15" fill="#000000"></path>
            <g id="sword" transform="translate(344.191261, 350.230992) scale(-1, 1) rotate(-21.000000) translate(-344.191261, -350.230992) translate(80.691261, 76.230992)">
                <path d="M148,336 L189,308 L269,234 L299,213 L377,135 L383,111 L527,0 L418,149 L399,156 L320,234 L304,268 L233,346 L206,386 L179,386 L163,401 L174,411 L189,406 L189,417 L153,426 L168,461 L226,456 L211,477 L163,491 L129,449 L121,439 L39,520 L34,537 C29.5083826,541.34491 25.8417159,544.011577 23,545 C20.1582841,545.988423 16.1582841,546.988423 11,548 L3,545 L0,537 C1.03944754,531.641519 2.03944754,527.641519 3,525 C3.96055246,522.358481 6.62721913,519.025147 11,515 L23,508 L101,426 L95,417 L39,392 L46,341 L69,322 L74,378 L113,392 L113,360 L129,355 L129,369 L137,378 L148,369 L148,336 Z" id="Path-17" stroke="#000000" fill="#000000"></path>
                <circle id="Oval" fill="#FFFFFF" cx="19" cy="528" r="7"></circle>
                <polygon id="Triangle" stroke="#FFFFFF" fill="#FFFFFF" transform="translate(445.952358, 82.319197) rotate(45.000000) translate(-445.952358, -82.319197) " points="445.952358 17.3191973 448.952358 147.319197 442.952358 147.319197"></polygon>
            </g>
        </g>
    </g>
</svg>