<?xml version="1.0" encoding="UTF-8"?>
<svg width="865px" height="927px" viewBox="0 0 865 927" version="1.1" xmlns="http://www.w3.org/2000/svg" xmlns:xlink="http://www.w3.org/1999/xlink">
    <!-- Generator: Sketch 44.1 (41455) - http://www.bohemiancoding.com/sketch -->
    <title>prince-kneeling</title>
    <desc>Created with Sketch.</desc>
    <defs></defs>
    <g id="prince" stroke="none" stroke-width="1" fill="none" fill-rule="evenodd">
        <g id="prince-kneeling" transform="translate(-1.000000, -26.000000)" fill-rule="nonzero" fill="#000000">
            <path d="M292.996575,192.951906 C288.12496,196.144196 284.458293,198.144196 281.996575,198.951906 C274.489754,201.414957 267.700526,201.148218 265.996575,200.951906 C259.601297,200.215105 259.572895,195.176585 258.996575,193.951906 C258.076625,191.997013 257.743292,188.66368 257.996575,183.951906 L251.996575,181.951906 C250.773599,180.168098 250.106932,178.834765 249.996575,177.951906 C249.886218,177.069047 250.219551,175.735714 250.996575,173.951906 C249.121154,172.743152 247.787821,171.743152 246.996575,170.951906 C246.205329,170.16066 245.538663,169.16066 244.996575,167.951906 L247.996575,159.951906 C239.329558,157.890791 234.329558,155.890791 232.996575,153.951906 C231.663592,152.013021 233.996925,147.346355 239.996575,139.951906 L242.996575,128.951906 L246.996575,117.951906 C245.436163,114.056704 244.10283,111.390038 242.996575,109.951906 C241.89032,108.513774 239.89032,106.847108 236.996575,104.951906 L232.996575,94.9519057 L224.996575,94.9519057 C220.14663,89.6689547 217.479963,85.3356217 216.996575,81.9519057 C216.513187,78.5681897 217.84652,73.5681897 220.996575,66.9519057 C222.378275,62.4268507 223.711608,59.0935167 224.996575,56.9519057 C226.281542,54.8102947 228.948209,51.4769607 232.996575,46.9519057 C237.068321,43.3467977 240.401654,41.0134637 242.996575,39.9519057 C245.591496,38.8903477 249.591496,38.2236807 254.996575,37.9519057 C260.894708,34.5764877 265.561375,32.5764877 268.996575,31.9519057 C271.320502,31.5293737 278.748472,34.8537997 287.996575,31.9519057 C290.054468,31.3061747 294.819005,24.9443167 306.996575,21.9519057 C310.508916,21.0888127 317.508916,21.0888127 327.996575,21.9519057 L345.996575,31.9519057 L359.996575,37.9519057 L370.996575,52.9519057 C376.450428,60.3174477 380.117095,65.9841147 381.996575,69.9519057 C383.276313,72.6535747 387.296002,80.1024147 388.996575,91.9519057 C389.367077,94.5335407 392.115362,104.113122 390.996575,119.951906 C390.672853,124.534868 389.33952,132.868201 386.996575,144.951906 L378.996575,159.951906 C376.564633,164.937996 375.231299,168.604663 374.996575,170.951906 C374.761851,173.299149 374.761851,178.965816 374.996575,187.951906 L376.996575,197.951906 L376.996575,205.951906 L321.078333,254.095599 L301.996575,197.951906 L292.996575,192.951906 Z" id="Path-6" transform="translate(304.081369, 137.700092) rotate(17.000000) translate(-304.081369, -137.700092) "></path>
            <path d="M507.197886,172.062267 C519.068121,180.289436 527.068121,186.622769 531.197886,191.062267 C535.327651,195.501765 541.327651,202.835098 549.197886,213.062267 C555.478407,225.887306 559.145074,235.553973 560.197886,242.062267 C561.250698,248.570561 561.250698,261.570561 560.197886,281.062267 L566.197886,350.062267 L578.197886,387.062267 L588.197886,441.062267 L604.197886,475.062267 L613.197886,508.062267 L628.197886,536.062267 L631.197886,552.062267 L625.197886,552.062267 L625.197886,567.062267 L636.197886,582.062267 C639.082376,586.941474 641.082376,590.608141 642.197886,593.062267 C642.920986,594.65309 646.490436,600.328691 650.197886,611.062267 C651.539186,614.945513 653.539186,622.278846 656.197886,633.062267 L658.197886,651.062267 L646.197886,687.062267 L641.197886,699.062267 C638.090336,702.953382 636.090336,704.620049 635.197886,704.062267 C634.305436,703.504485 632.972106,701.504485 631.197886,698.062267 L628.197886,684.062267 L628.197886,662.062267 L628.197886,651.062267 C626.751416,647.615798 625.418086,645.282465 624.197886,644.062267 C622.977686,642.842069 620.644356,641.508736 617.197886,640.062267 C614.682296,640.680072 613.015636,641.346739 612.197886,642.062267 C611.380136,642.777795 610.380136,644.444462 609.197886,647.062267 C608.919766,651.352645 608.919766,654.019312 609.197886,655.062267 C609.476006,656.105222 610.476006,658.771889 612.197886,663.062267 C612.556656,665.011393 612.556656,666.344726 612.197886,667.062267 C611.839116,667.779808 609.839116,667.779808 606.197886,667.062267 L601.197886,661.062267 C598.354935,657.695916 596.354935,655.02925 595.197886,653.062267 C594.040837,651.095284 593.040837,648.095284 592.197886,644.062267 C590.950918,637.516897 590.284252,632.516897 590.197886,629.062267 C590.140312,626.759307 591.882435,622.701377 592.197886,616.062267 C592.303054,613.848866 591.96972,609.848866 591.197886,604.062267 L583.197886,579.062267 L572.197886,556.062267 L556.197886,532.062267 L531.197886,465.062267 L515.197886,418.062267 L498.197886,350.062267 L493.197886,291.062267 L488.197886,236.062267 L507.197886,172.062267 Z" id="Path-7" transform="translate(573.197886, 438.114717) rotate(-23.000000) translate(-573.197886, -438.114717) "></path>
            <polygon id="Path-7" transform="translate(298.225578, 354.206315) scale(-1, 1) rotate(-8.000000) translate(-298.225578, -354.206315) " points="267.872637 211.706315 295.996774 236.821177 314.394462 263.250802 320.484402 312.706315 326.55499 381.706315 338.696166 418.706315 348.813813 472.706315 291.143225 496.706315 274.95499 449.706315 257.75499 381.706315 252.696166 322.706315 247.637343 267.706315"></polygon>
            <path d="M155.762785,271.048725 C155.762785,271.048725 172.580557,282.084015 178.921593,290.481272 C185.262628,298.878528 188.640922,314.588324 188.640922,314.588324 L197.746804,347.588324 L212.923275,375.588324 L215.958569,391.588324 L209.887981,391.588324 L209.887981,406.588324 L221.017392,421.588324 L231.135039,443.588324 L243.276216,472.588324 L243.276216,490.588324 L231.135039,526.588324 L224.052686,542.588324 L215.958569,537.588324 L212.923275,523.588324 L212.923275,501.588324 L212.923275,490.588324 L201.793863,479.588324 L193.699745,483.588324 L197.746804,501.588324 L193.699745,508.588324 L184.593863,501.588324 L175.487981,483.588324 L175.487981,443.588324 L167.393863,418.588324 L156.264451,395.588324 L140.076216,371.588324 L114.782098,304.588324 L155.762785,271.048725 Z" id="Path-7" transform="translate(179.029157, 406.818524) scale(-1, -1) rotate(320.000000) translate(-179.029157, -406.818524) "></path>
            <path d="M470.899507,238.768666 L490.899507,243.400949 L508.899507,253.591972 L522.899507,269.341735 C527.887476,274.354305 530.887476,277.751313 531.899507,279.532758 C532.911538,281.314204 536.911538,288.108219 543.899507,299.914805 L508.399507,514.852747 L512.899507,566.73432 L522.899507,613.983609 C527.643454,631.41163 530.643454,644.690842 531.899507,653.821245 C533.15556,662.951647 535.822227,681.171962 539.899507,708.482187 L539.899507,754.805019 L539.899507,792.789742 L535.899507,817.804071 C502.905255,819.090197 477.905255,819.090197 460.899507,817.804071 C443.893759,816.517942 419.893759,812.812116 388.899507,806.686592 C362.779652,802.886303 343.446319,799.180476 330.899507,795.569112 C318.352695,791.957748 287.813917,797.994973 270.360729,789.253581 C248.369517,775.198168 237.133102,780.582119 227.124314,771.784935 C217.115526,762.987751 116.710225,718.701773 106.719013,704.64636 C135.903218,655.890742 150.17427,638.116154 193.354498,614.791747 C236.534726,591.46734 302.598999,517.099814 305.899507,505.588181 C309.200015,494.076547 313.866682,471.532769 319.899507,437.956845 L319.899507,424.059996 L347.899507,286.017955 L396.899507,248.033232 L470.899507,238.768666 Z" id="Path-8" transform="translate(325.309260, 528.768666) rotate(-22.000000) translate(-325.309260, -528.768666) "></path>
            <path d="M474.370295,325.108138 C474.370295,331.108138 478.036962,348.441471 485.370295,377.108138 L497.370295,434.108138 C501.286733,448.713024 503.620066,459.713024 504.370295,467.108138 C505.120524,474.503252 505.120524,486.503252 504.370295,503.108138 L517.370295,567.108138 C522.036962,595.121084 524.370295,613.121084 524.370295,621.108138 C524.370295,629.095192 522.036962,644.428525 517.370295,667.108138 C528.53301,669.163988 536.53301,669.163988 541.370295,667.108138 C546.20758,665.052292 553.874247,661.052292 564.370295,655.108138 C574.104099,654.299293 580.770766,652.965959 584.370295,651.108138 C587.969824,649.250317 591.636495,645.250317 595.370295,639.108138 C589.018015,625.658217 584.018011,615.99155 580.370295,610.108138 C576.722579,604.224726 573.722579,594.224726 571.370295,580.108138 C568.363235,562.258134 566.029902,548.924801 564.370295,540.108138 C562.710688,531.291475 559.710688,516.291475 555.370295,495.108138 L555.370295,463.108138 L524.370295,384.108138 L493.370295,297.108138 L485.370295,229.108138 C478.036962,287.108138 474.370295,319.108138 474.370295,325.108138 Z" id="Path-9" transform="translate(534.870295, 448.879082) rotate(-14.000000) translate(-534.870295, -448.879082) "></path>
            <polygon id="Path-11" transform="translate(272.170420, 695.058248) rotate(16.000000) translate(-272.170420, -695.058248) " points="228.67042 663.058248 216.67042 678.058248 216.67042 697.058248 228.67042 720.058248 316.67042 727.058248 327.67042 697.058248 316.67042 663.058248"></polygon>
            <path d="M110.938791,690.391648 L110.938791,731.391648 L110.938791,792.391648 L110.938791,829.391648 C111.787367,838.830558 111.787367,845.830558 110.938791,850.391648 C110.090215,854.952738 107.423549,862.286078 102.938791,872.391648 C99.1354673,880.295828 95.4688013,885.962498 91.9387913,889.391648 C88.4087813,892.820798 80.4087813,898.487468 67.9387913,906.391648 L36.9387913,928.391648 L18.9387913,938.391648 C16.9387913,942.399968 15.9387913,945.399968 15.9387913,947.391648 C15.9387913,949.383328 16.9387913,951.716658 18.9387913,954.391648 C31.1845763,957.625628 39.8512433,959.292298 44.9387913,959.391648 C63.0864523,959.746048 74.8319473,955.260408 78.9387913,954.391648 C84.7726143,953.157568 92.7726143,950.824238 102.938791,947.391648 L127.938791,938.391648 L154.938791,938.391648 C160.06257,937.493708 163.395903,936.493708 164.938791,935.391648 C166.481679,934.289588 167.815012,931.956248 168.938791,928.391648 L160.938791,893.391648 L160.938791,859.391648 L178.938791,809.391648 C182.792881,798.413018 185.126215,790.079678 185.938791,784.391648 C186.751367,778.703618 188.418034,770.703618 190.938791,760.391648 L192.938791,726.391648 L194.938791,690.391648 C138.938791,685.724978 110.938791,685.724978 110.938791,690.391648 Z" id="Path-12" transform="translate(105.438791, 823.151596) rotate(7.000000) translate(-105.438791, -823.151596) "></path>
            <path d="M469.857461,724.233802 C469.857461,728.245613 463.5399,737.472724 460.857461,749.233802 C460.087579,752.609328 456.289754,769.531312 456.857461,798.233802 C456.914667,801.126032 456.914667,806.459372 456.857461,814.233802 L460.857461,859.233802 L544.857461,859.233802 L544.857461,818.233802 L562.857461,762.233802 L569.857461,749.233802 L589.857461,701.233802 L493.857461,668.233802 C477.857461,699.567135 469.857461,718.233802 469.857461,724.233802 Z" id="Path-10" transform="translate(523.328665, 763.733802) rotate(-41.000000) translate(-523.328665, -763.733802) "></path>
            <path d="M199.083668,648.075974 C199.083668,652.087785 192.766107,661.314896 190.083668,673.075974 C189.313786,676.4515 185.515961,693.373484 186.083668,722.075974 C186.140874,724.968204 186.140874,730.301544 186.083668,738.075974 L190.083668,783.075974 L274.083668,783.075974 L274.083668,742.075974 L292.083668,686.075974 L299.083668,673.075974 L319.083668,625.075974 L223.083668,592.075974 C207.083668,623.409307 199.083668,642.075974 199.083668,648.075974 Z" id="Path-10" transform="translate(252.554873, 687.575974) rotate(62.000000) translate(-252.554873, -687.575974) "></path>
            <polygon id="Path-11" transform="translate(573.428844, 847.062244) rotate(-89.000000) translate(-573.428844, -847.062244) " points="529.928844 815.062244 517.928844 830.062244 517.928844 849.062244 529.928844 872.062244 617.928844 879.062244 628.928844 849.062244 617.928844 815.062244"></polygon>
            <polygon id="Path-11" transform="translate(166.582352, 718.957070) rotate(-159.000000) translate(-166.582352, -718.957070) " points="123.082352 686.95707 111.082352 701.95707 111.082352 720.95707 123.082352 743.95707 211.082352 750.95707 222.082352 720.95707 211.082352 686.95707"></polygon>
            <path d="M716.363491,718.878461 L716.363491,759.878461 L716.363491,820.878461 L716.363491,857.878461 C717.212067,867.317371 717.212067,874.317371 716.363491,878.878461 C715.514915,883.439551 712.848249,890.772891 708.363491,900.878461 C704.560167,908.782641 700.893501,914.449311 697.363491,917.878461 C693.833481,921.307611 685.833481,926.974281 673.363491,934.878461 L642.363491,956.878461 L624.363491,966.878461 C622.363491,970.886781 621.363491,973.886781 621.363491,975.878461 C621.363491,977.870141 622.363491,980.203471 624.363491,982.878461 C636.609276,986.112441 645.275943,987.779111 650.363491,987.878461 C668.511152,988.232861 680.256647,983.747221 684.363491,982.878461 C690.197314,981.644381 698.197314,979.311051 708.363491,975.878461 L733.363491,966.878461 L760.363491,966.878461 C765.48727,965.980521 768.820603,964.980521 770.363491,963.878461 C771.906379,962.776401 773.239712,960.443061 774.363491,956.878461 L766.363491,921.878461 L766.363491,887.878461 L784.363491,837.878461 C788.217581,826.899831 790.550915,818.566491 791.363491,812.878461 C792.176067,807.190431 793.842734,799.190431 796.363491,788.878461 L798.363491,754.878461 L800.363491,718.878461 C744.363491,714.211791 716.363491,714.211791 716.363491,718.878461 Z" id="Path-12" transform="translate(710.863491, 851.638409) rotate(-113.000000) translate(-710.863491, -851.638409) "></path>
        </g>
    </g>
</svg>