<?xml version="1.0" encoding="UTF-8"?>
<svg width="495px" height="1298px" viewBox="0 0 495 1298" version="1.1" xmlns="http://www.w3.org/2000/svg" xmlns:xlink="http://www.w3.org/1999/xlink">
    <!-- Generator: Sketch 44.1 (41455) - http://www.bohemiancoding.com/sketch -->
    <title>princ with sword copy 2</title>
    <desc>Created with Sketch.</desc>
    <defs></defs>
    <g id="prince" stroke="none" stroke-width="1" fill="none" fill-rule="evenodd">
        <g id="princ-with-sword-copy-2" transform="translate(-47.000000, 0.000000)" fill-rule="nonzero" fill="#000000">
            <path d="M250,172 C245.128385,175.19229 241.461718,177.19229 239,178 C231.493179,180.463051 224.703951,180.196312 223,180 C216.604722,179.263199 216.57632,174.224679 216,173 C215.08005,171.045107 214.746717,167.711774 215,163 L209,161 C207.777024,159.216192 207.110357,157.882859 207,157 C206.889643,156.117141 207.222976,154.783808 208,153 C206.124579,151.791246 204.791246,150.791246 204,150 C203.208754,149.208754 202.542088,148.208754 202,147 L205,139 C196.332983,136.938885 191.332983,134.938885 190,133 C188.667017,131.061115 191.00035,126.394449 197,119 L200,108 L204,97 C202.439588,93.104798 201.106255,90.438132 200,89 C198.893745,87.561868 196.893745,85.895202 194,84 L190,74 L182,74 C177.150055,68.717049 174.483388,64.383716 174,61 C173.516612,57.616284 174.849945,52.616284 178,46 C179.3817,41.474945 180.715033,38.141611 182,36 C183.284967,33.858389 185.951634,30.525055 190,26 C194.071746,22.394892 197.405079,20.061558 200,19 C202.594921,17.938442 206.594921,17.271775 212,17 C217.898133,13.624582 222.5648,11.624582 226,11 C228.323927,10.577468 235.751897,13.901894 245,11 C247.057893,10.354269 251.82243,3.992411 264,1 C267.512341,0.136907 274.512341,0.136907 285,1 L303,11 L317,17 L328,32 C333.453853,39.365542 337.12052,45.032209 339,49 C340.279738,51.701669 344.299427,59.150509 346,71 C346.370502,73.581635 349.118787,83.161216 348,99 C347.676278,103.582962 346.342945,111.916295 344,124 L336,139 C333.568058,143.98609 332.234724,147.652757 332,150 C331.765276,152.347243 331.765276,158.01391 332,167 L334,177 L334,185 L259,188 L259,177 L250,172 Z" id="Path-6"></path>
            <path d="M391,205 C402.870235,213.227169 410.870235,219.560502 415,224 C419.129765,228.439498 425.129765,235.772831 433,246 C439.280521,258.825039 442.947188,268.491706 444,275 C445.052812,281.508294 445.052812,294.508294 444,314 L450,383 L462,420 L472,474 L488,508 L497,541 L512,569 L515,585 L509,585 L509,600 L520,615 C522.88449,619.879207 524.88449,623.545874 526,626 C526.7231,627.590823 530.29255,633.266424 534,644 C535.3413,647.883246 537.3413,655.216579 540,666 L542,684 L530,720 L525,732 C521.89245,735.891115 519.89245,737.557782 519,737 C518.10755,736.442218 516.77422,734.442218 515,731 L512,717 L512,695 L512,684 C510.55353,680.553531 509.2202,678.220198 508,677 C506.7798,675.779802 504.44647,674.446469 501,673 C498.48441,673.617805 496.81775,674.284472 496,675 C495.18225,675.715528 494.18225,677.382195 493,680 C492.72188,684.290378 492.72188,686.957045 493,688 C493.27812,689.042955 494.27812,691.709622 496,696 C496.35877,697.949126 496.35877,699.282459 496,700 C495.64123,700.717541 493.64123,700.717541 490,700 L485,694 C482.157049,690.633649 480.157049,687.966983 479,686 C477.842951,684.033017 476.842951,681.033017 476,677 C474.753032,670.45463 474.086366,665.45463 474,662 C473.942426,659.69704 475.684549,655.63911 476,649 C476.105168,646.786599 475.771834,642.786599 475,637 L467,612 L456,589 L440,565 L415,498 L399,451 L382,383 L377,324 L372,269 L391,205 Z" id="Path-7"></path>
            <path d="M121.550276,168.377824 L148.56351,193.492686 L166.23449,219.922311 C166.23449,219.922311 169.63172,236.819436 170.532745,244.437438 C171.025059,248.599863 176.109535,276.259169 178.832684,299.510488 C181.555833,322.761807 181.114046,334.740721 181.114046,334.740721 L189.576277,375.377824 C189.576277,375.377824 193.915962,393.294008 195.364703,402.241929 C196.813444,411.18985 198.229235,428.236893 198.229235,428.236893 L143.901676,453.377824 L128.352877,406.377824 L111.832276,338.377824 L106.973276,279.377824 L102.114276,224.377824 L121.550276,168.377824 Z" id="Path-7" transform="translate(150.171756, 310.877824) scale(-1, 1) rotate(-32.000000) translate(-150.171756, -310.877824) "></path>
            <path d="M133.951723,345.130689 C133.951723,345.130689 141.57731,352.859133 144.452731,358.898354 C147.328152,364.937574 151.591604,378.267023 151.591604,378.267023 L160.697486,411.267023 L175.873957,439.267023 L178.909251,455.267023 L172.838663,455.267023 L172.838663,470.267023 L183.968074,485.267023 L194.085721,507.267023 L206.226898,536.267023 L206.226898,554.267023 L194.085721,590.267023 L187.003368,606.267023 L178.909251,601.267023 L175.873957,587.267023 L175.873957,565.267023 L175.873957,554.267023 L164.744545,543.267023 L156.650427,547.267023 L160.697486,565.267023 L156.650427,572.267023 L147.544545,565.267023 L138.438663,547.267023 L138.438663,507.267023 L130.344545,482.267023 L119.215133,459.267023 L103.026898,435.267023 L77.7327798,368.267023 L133.951723,345.130689 Z" id="Path-7" transform="translate(141.979839, 475.698856) scale(-1, 1) rotate(50.000000) translate(-141.979839, -475.698856) "></path>
            <path d="M332,165 L352,170 L370,181 L384,198 C388.987969,203.410474 391.987969,207.077141 393,209 C394.012031,210.922859 398.012031,218.256192 405,231 L369.5,463 L374,519 L384,570 C388.743947,588.811481 391.743947,603.144814 393,613 C394.256053,622.855186 396.92272,642.521853 401,672 L401,722 L401,763 L397,790 C364.005748,791.38822 339.005748,791.38822 322,790 C304.994252,788.611776 280.994252,784.611776 250,778 C223.880145,773.898039 204.546812,769.898039 192,766 C179.453188,762.101961 164.453188,755.435295 147,746 C125.008788,730.82885 109.008788,718.495516 99,709 C88.991212,699.504484 78.991212,687.17115 69,672 C109.096421,599.696837 130.429754,558.696837 133,549 C135.570246,539.303163 140.236913,525.636496 147,508 C157.032825,483.758775 163.699492,465.425442 167,453 C170.300508,440.574558 174.967175,416.241225 181,380 L181,365 L209,216 L258,175 L332,165 Z" id="Path-8"></path>
            <path d="M372,446 C372,452 375.666667,469.333333 383,498 L395,555 C398.916438,569.604886 401.249771,580.604886 402,588 C402.750229,595.395114 402.750229,607.395114 402,624 L415,688 C419.666667,716.012946 422,734.012946 422,742 C422,749.987054 419.666667,765.320387 415,788 C426.162715,790.05585 434.162715,790.05585 439,788 C443.837285,785.944154 451.503952,781.944154 462,776 C471.733804,775.191155 478.400471,773.857821 482,772 C485.599529,770.142179 489.2662,766.142179 493,760 C486.64772,746.550079 481.647716,736.883412 478,731 C474.352284,725.116588 471.352284,715.116588 469,701 C465.99294,683.149996 463.659607,669.816663 462,661 C460.340393,652.183337 457.340393,637.183337 453,616 L453,584 L422,505 L391,418 L383,350 C375.666667,408 372,440 372,446 Z" id="Path-9"></path>
            <path d="M151,748 C151,752.011811 144.682439,761.238922 142,773 C141.230118,776.375526 137.432293,793.29751 138,822 C138.057206,824.89223 138.057206,830.22557 138,838 L142,883 L226,883 L226,842 L244,786 L251,773 L271,725 L175,692 C159,723.333333 151,742 151,748 Z" id="Path-10"></path>
            <polygon id="Path-11" points="142 881 130 896 130 915 142 938 230 945 241 915 230 881"></polygon>
            <path d="M143,940 L143,981 L143,1042 L143,1079 C143.848576,1088.43891 143.848576,1095.43891 143,1100 C142.151424,1104.56109 139.484758,1111.89443 135,1122 C131.196676,1129.90418 127.53001,1135.57085 124,1139 C120.46999,1142.42915 112.46999,1148.09582 100,1156 L69,1178 L51,1188 C49,1192.00832 48,1195.00832 48,1197 C48,1198.99168 49,1201.32501 51,1204 C63.245785,1207.23398 71.912452,1208.90065 77,1209 C95.147661,1209.3544 106.893156,1204.86876 111,1204 C116.833823,1202.76592 124.833823,1200.43259 135,1197 L160,1188 L187,1188 C192.123779,1187.10206 195.457112,1186.10206 197,1185 C198.542888,1183.89794 199.876221,1181.5646 201,1178 L193,1143 L193,1109 L211,1059 C214.85409,1048.02137 217.187424,1039.68803 218,1034 C218.812576,1028.31197 220.479243,1020.31197 223,1010 L225,976 L227,940 C171,935.33333 143,935.33333 143,940 Z" id="Path-12"></path>
            <polygon id="Path-13" points="314 727 308 795 321 856 334 925 422 903 415 868 399 826 399 785 389 727"></polygon>
            <path d="M335,917 L319,921 L327,960 L343,980 L363,991 L400,991 L427,980 L439,956 L439,932 L439,908 L420,900 L393,900 C379.219692,903.08138 369.219692,905.74804 363,908 C356.780308,910.25196 347.446975,913.25196 335,917 Z" id="Path-14"></path>
            <path d="M345,979 L358,1029 L369,1077 L380,1123 L388,1153 L395,1180 C393.666667,1186.23885 393,1190.90551 393,1194 C393,1197.09449 393.666667,1202.09449 395,1209 C397.196507,1214.72635 398.863174,1218.72635 400,1221 C401.705239,1224.41048 412.136083,1242.23666 414,1247 C415.242612,1250.17556 416.575945,1253.5089 418,1257 L430,1279 C433.853354,1282.85335 436.520021,1285.52002 438,1287 C439.479979,1288.47998 443.479979,1291.47998 450,1296 C453.476689,1297.33333 456.143355,1298 458,1298 C459.856645,1298 462.523311,1297.33333 466,1296 C469.846327,1293.11774 472.512993,1290.78441 474,1289 C475.487007,1287.21559 477.82034,1283.54893 481,1278 C482.333333,1269.95257 483,1263.95257 483,1260 C483,1256.04743 482.333333,1251.04743 481,1245 L457,1200 L439,1161 L432,1106 L432,1063 L432,1029 L432,966 L345,979 Z" id="Path-15"></path>
        </g>
    </g>
</svg>