<?xml version="1.0" encoding="UTF-8"?>
<svg width="489px" height="1223px" viewBox="0 0 489 1223" version="1.1" xmlns="http://www.w3.org/2000/svg" xmlns:xlink="http://www.w3.org/1999/xlink">
    <!-- Generator: Sketch 44.1 (41455) - http://www.bohemiancoding.com/sketch -->
    <title>princ standing</title>
    <desc>Created with Sketch.</desc>
    <defs></defs>
    <g id="prince" stroke="none" stroke-width="1" fill="none" fill-rule="evenodd">
        <g id="princ-standing" transform="translate(-6.000000, -15.000000)" fill-rule="nonzero" fill="#000000">
            <path d="M232.096464,184.64732 C227.224849,187.83961 223.558182,189.83961 221.096464,190.64732 C213.589643,193.110371 206.800415,192.843632 205.096464,192.64732 C198.701186,191.910519 198.672784,186.871999 198.096464,185.64732 C197.176514,183.692427 196.843181,180.359094 197.096464,175.64732 L191.096464,173.64732 C189.873488,171.863512 189.206821,170.530179 189.096464,169.64732 C188.986107,168.764461 189.31944,167.431128 190.096464,165.64732 C188.221043,164.438566 186.88771,163.438566 186.096464,162.64732 C185.305218,161.856074 184.638552,160.856074 184.096464,159.64732 L187.096464,151.64732 C178.429447,149.586205 173.429447,147.586205 172.096464,145.64732 C170.763481,143.708435 173.096814,139.041769 179.096464,131.64732 L182.096464,120.64732 L186.096464,109.64732 C184.536052,105.752118 183.202719,103.085452 182.096464,101.64732 C180.990209,100.209188 178.990209,98.5425218 176.096464,96.6473198 L172.096464,86.6473198 L164.096464,86.6473198 C159.246519,81.3643687 156.579852,77.0310358 156.096464,73.6473198 C155.613076,70.2636038 156.946409,65.2636038 160.096464,58.6473198 C161.478164,54.1222648 162.811497,50.7889308 164.096464,48.6473198 C165.381431,46.5057088 168.048098,43.1723748 172.096464,38.6473198 C176.16821,35.0422118 179.501543,32.7088778 182.096464,31.6473198 C184.691385,30.5857618 188.691385,29.9190948 194.096464,29.6473198 C199.994597,26.2719018 204.661264,24.2719018 208.096464,23.6473198 C210.420391,23.2247878 217.848361,26.5492138 227.096464,23.6473198 C229.154357,23.0015888 233.918894,16.6397308 246.096464,13.6473198 C249.608805,12.7842268 256.608805,12.7842268 267.096464,13.6473198 L285.096464,23.6473198 L299.096464,29.6473198 L310.096464,44.6473198 C315.550317,52.0128618 319.216984,57.6795288 321.096464,61.6473198 C322.376202,64.3489888 326.395891,71.7978288 328.096464,83.6473198 C328.466966,86.2289548 331.215251,95.8085358 330.096464,111.64732 C329.772742,116.230282 328.439409,124.563615 326.096464,136.64732 L318.096464,151.64732 C315.664522,156.63341 314.331188,160.300077 314.096464,162.64732 C313.86174,164.994563 313.86174,170.66123 314.096464,179.64732 L316.096464,189.64732 L316.096464,197.64732 L241.096464,200.64732 L241.096464,189.64732 L232.096464,184.64732 Z" id="Path-6" transform="translate(243.181258, 106.823660) rotate(9.000000) translate(-243.181258, -106.823660) "></path>
            <path d="M344,234 C355.870235,242.227169 363.870235,248.560502 368,253 C372.129765,257.439498 378.129765,264.772831 386,275 C392.280521,287.825039 395.947188,297.491706 397,304 C398.052812,310.508294 398.052812,323.508294 397,343 L403,412 L415,449 L425,503 L441,537 L450,570 L465,598 L468,614 L462,614 L462,629 L473,644 C475.88449,648.879207 477.88449,652.545874 479,655 C479.7231,656.590823 483.29255,662.266424 487,673 C488.3413,676.883246 490.3413,684.216579 493,695 L495,713 L483,749 L478,761 C474.89245,764.891115 472.89245,766.557782 472,766 C471.10755,765.442218 469.77422,763.442218 468,760 L465,746 L465,724 L465,713 C463.55353,709.553531 462.2202,707.220198 461,706 C459.7798,704.779802 457.44647,703.446469 454,702 C451.48441,702.617805 449.81775,703.284472 449,704 C448.18225,704.715528 447.18225,706.382195 446,709 C445.72188,713.290378 445.72188,715.957045 446,717 C446.27812,718.042955 447.27812,720.709622 449,725 C449.35877,726.949126 449.35877,728.282459 449,729 C448.64123,729.717541 446.64123,729.717541 443,729 L438,723 C435.157049,719.633649 433.157049,716.966983 432,715 C430.842951,713.033017 429.842951,710.033017 429,706 C427.753032,699.45463 427.086366,694.45463 427,691 C426.942426,688.69704 428.684549,684.63911 429,678 C429.105168,675.786599 428.771834,671.786599 428,666 L420,641 L409,618 L393,594 L368,527 L352,480 L335,412 L330,353 L325,298 L344,234 Z" id="Path-7"></path>
            <polygon id="Path-7" transform="translate(130.225578, 379.206315) scale(-1, 1) rotate(-8.000000) translate(-130.225578, -379.206315) " points="99.872637 236.706315 127.996774 261.821177 146.394462 288.250802 152.484402 337.706315 158.55499 406.706315 170.696166 443.706315 180.813813 497.706315 123.143225 521.706315 106.95499 474.706315 89.75499 406.706315 84.696166 347.706315 79.637343 292.706315"></polygon>
            <polygon id="Path-7" transform="translate(68.948986, 601.437627) scale(1, -1) rotate(182.000000) translate(-68.948986, -601.437627) " points="62.372515 470.437627 78.560751 504.437627 87.666633 537.437627 102.843104 565.437627 105.878398 581.437627 99.80781 581.437627 99.80781 596.437627 110.937221 611.437627 121.054868 633.437627 133.196045 662.437627 133.196045 680.437627 121.054868 716.437627 113.972515 732.437627 105.878398 727.437627 102.843104 713.437627 102.843104 691.437627 102.843104 680.437627 91.713692 669.437627 83.619574 673.437627 87.666633 691.437627 83.619574 698.437627 74.513692 691.437627 65.40781 673.437627 65.40781 633.437627 57.313692 608.437627 46.18428 585.437627 29.996045 561.437627 4.70192701 494.437627"></polygon>
            <path d="M307,194 L327,199 L345,210 L359,227 C363.987969,232.410474 366.987969,236.077141 368,238 C369.012031,239.922859 373.012031,247.256192 380,260 L344.5,492 L349,548 L359,599 C363.743947,617.811481 366.743947,632.144814 368,642 C369.256053,651.855186 371.92272,671.521853 376,701 L376,751 L376,792 L372,819 C339.005748,820.38822 314.005748,820.38822 297,819 C279.994252,817.611776 255.994252,813.611776 225,807 C198.880145,802.898039 179.546812,798.898039 167,795 C154.453188,791.101961 139.453188,784.435295 122,775 C100.008788,759.82885 84.008788,747.495516 74,738 C63.991212,728.504484 53.991212,716.17115 44,701 C84.096421,628.696837 105.429754,587.696837 108,578 C110.570246,568.303163 115.236913,554.636496 122,537 C132.032825,512.758775 138.699492,494.425442 142,482 C145.300508,469.574558 149.967175,445.241225 156,409 L156,394 L184,245 L233,204 L307,194 Z" id="Path-8" transform="translate(212.000000, 507.020583) rotate(-6.000000) translate(-212.000000, -507.020583) "></path>
            <path d="M325,475 C325,481 328.666667,498.333333 336,527 L348,584 C351.916438,598.604886 354.249771,609.604886 355,617 C355.750229,624.395114 355.750229,636.395114 355,653 L368,717 C372.666667,745.012946 375,763.012946 375,771 C375,778.987054 372.666667,794.320387 368,817 C379.162715,819.05585 387.162715,819.05585 392,817 C396.837285,814.944154 404.503952,810.944154 415,805 C424.733804,804.191155 431.400471,802.857821 435,801 C438.599529,799.142179 442.2662,795.142179 446,789 C439.64772,775.550079 434.647716,765.883412 431,760 C427.352284,754.116588 424.352284,744.116588 422,730 C418.99294,712.149996 416.659607,698.816663 415,690 C413.340393,681.183337 410.340393,666.183337 406,645 L406,613 L375,534 L344,447 L336,379 C328.666667,437 325,469 325,475 Z" id="Path-9"></path>
            <polygon id="Path-11" points="117 910 105 925 105 944 117 967 205 974 216 944 205 910"></polygon>
            <path d="M118,969 L118,1010 L118,1071 L118,1108 C118.848576,1117.43891 118.848576,1124.43891 118,1129 C117.151424,1133.56109 114.484758,1140.89443 110,1151 C106.196676,1158.90418 102.53001,1164.57085 99,1168 C95.46999,1171.42915 87.46999,1177.09582 75,1185 L44,1207 L26,1217 C24,1221.00832 23,1224.00832 23,1226 C23,1227.99168 24,1230.32501 26,1233 C38.245785,1236.23398 46.912452,1237.90065 52,1238 C70.147661,1238.3544 81.893156,1233.86876 86,1233 C91.833823,1231.76592 99.833823,1229.43259 110,1226 L135,1217 L162,1217 C167.123779,1216.10206 170.457112,1215.10206 172,1214 C173.542888,1212.89794 174.876221,1210.5646 176,1207 L168,1172 L168,1138 L186,1088 C189.85409,1077.02137 192.187424,1068.68803 193,1063 C193.812576,1057.31197 195.479243,1049.31197 198,1039 L200,1005 L202,969 C146,964.33333 118,964.33333 118,969 Z" id="Path-12"></path>
            <path d="M262.057591,775 C262.057591,779.011811 255.74003,788.238922 253.057591,800 C252.287709,803.375526 248.489884,820.29751 249.057591,849 C249.114797,851.89223 249.114797,857.22557 249.057591,865 L253.057591,910 L337.057591,910 L337.057591,869 L355.057591,813 L362.057591,800 L382.057591,752 L286.057591,719 C270.057591,750.333333 262.057591,769 262.057591,775 Z" id="Path-10"></path>
            <path d="M253,908 L341,908 L352,942 L341,972 L253,965 L241,942 L241,923 L253,908 Z M130.207082,781 C130.207082,775 138.207082,756.333333 154.207082,725 L250.207082,758 L230.207082,806 L223.207082,819 L205.207082,916 L121.207082,916 C121.207082,916 130.207082,785.011811 130.207082,781 Z" id="Path-11"></path>
            <path d="M254,967.500003 L254,1008.5 L254,1069.5 L254,1106.5 C254.848576,1115.93891 254.848576,1122.93891 254,1127.5 C253.151424,1132.06109 250.484758,1139.39443 246,1149.5 C242.196676,1157.40418 238.53001,1163.07085 235,1166.5 C231.46999,1169.92915 223.46999,1175.59582 211,1183.5 L180,1205.5 L162,1215.5 C160,1219.50832 159,1222.50832 159,1224.5 C159,1226.49168 160,1228.82501 162,1231.5 C174.245785,1234.73398 182.912452,1236.40065 188,1236.5 C206.147661,1236.8544 217.893156,1232.36876 222,1231.5 C227.833823,1230.26592 235.833823,1227.93259 246,1224.5 L271,1215.5 L298,1215.5 C303.123779,1214.60206 306.457112,1213.60206 308,1212.5 C309.542888,1211.39794 310.876221,1209.0646 312,1205.5 L304,1170.5 L304,1136.5 L322,1086.5 C325.85409,1075.52137 328.187424,1067.18803 329,1061.5 C329.812576,1055.81197 331.479243,1047.81197 334,1037.5 L336,1003.5 L338,967.500003 C282,962.833332 254,962.833332 254,967.500003 Z" id="Path-12"></path>
        </g>
    </g>
</svg>