<?xml version="1.0" encoding="UTF-8"?>
<svg width="1060px" height="163px" viewBox="0 0 1060 163" version="1.1" xmlns="http://www.w3.org/2000/svg" xmlns:xlink="http://www.w3.org/1999/xlink">
    <!-- Generator: Sketch 44.1 (41455) - http://www.bohemiancoding.com/sketch -->
    <title>Group 2</title>
    <desc>Created with Sketch.</desc>
    <defs></defs>
    <g id="Scene" stroke="none" stroke-width="1" fill="none" fill-rule="evenodd">
        <g id="Group-2" transform="translate(0.095521, 0.601118)">
            <path d="M571.855171,160.969261 C571.855171,160.969261 551.937054,125.372404 538.990714,112.030117 C526.044374,98.6878303 516.741713,104.170231 516.741713,104.170231 C516.741713,104.170231 508.267573,106.44121 501.717765,104.170231 C495.167956,101.899251 467.304233,68.2471716 467.304233,68.2471716 C467.304233,68.2471716 443.2698,48.7368411 418.803626,38.1527652 C394.337452,27.5686893 369.744107,38.1766275 364.095947,38.1527652 C351.625614,38.1000805 333.934079,53.1691219 333.934079,53.1691219 L304.824047,76.8104072 C304.824047,76.8104072 281.781701,100.694118 258.103632,102.337622 C234.425564,103.981126 208.886473,83.4657555 200.987078,83.6854878 C185.37124,84.1198631 171.156997,96.8127636 163.313845,95.0565338 C146.89613,91.3802971 140.652448,78.3791763 138.131943,76.8104072 C132.046278,73.0226743 112.621609,50.1530784 112.621609,50.1530784 C112.621609,50.1530784 97.4282406,43.5483603 89.4805566,43.7088612 C81.5328727,43.8693621 65.7762868,51.0991045 65.7762868,51.0991045 C65.7762868,51.0991045 38.7851684,74.6410292 28.205012,90.8509328 C17.6248556,107.060836 0,157.587921 0,157.587921 L178.583229,157.587921 L435.123737,160.969261 L541.471133,159.152142 L571.855171,160.969261 Z" id="Path-3" fill-opacity="0.651919158" fill="#9B9B9B"></path>
            <path d="M1059.64763,161.30713 C1059.64763,161.30713 1039.59974,130.305008 1026.56904,118.684903 C1013.53835,107.064798 1004.17508,111.839547 1004.17508,111.839547 C1004.17508,111.839547 995.645722,113.817395 989.053238,111.839547 C982.460754,109.861699 954.415481,80.5533282 954.415481,80.5533282 C954.415481,80.5533282 931.039821,27.94629 906.414235,18.7283748 C881.788648,9.5104596 866.069443,18.7491571 860.384482,18.7283748 C847.832898,18.6824906 820.17634,67.4215079 820.17634,67.4215079 L790.876639,88.0112472 C790.876639,88.0112472 767.684157,108.81212 743.851812,110.243486 C720.019467,111.674851 694.313973,93.8075432 686.363109,93.998913 C670.645525,94.3772205 656.338667,105.43176 648.444413,103.902219 C631.919726,100.7005 625.635363,89.3775243 623.098434,88.0112472 C616.973118,84.7124235 597.421886,64.7947662 597.421886,64.7947662 C597.421886,64.7947662 582.129523,59.0425652 574.130055,59.1823491 C566.130587,59.322133 550.271338,65.6186821 550.271338,65.6186821 C550.271338,65.6186821 523.104356,86.121886 512.455264,100.239464 C501.806171,114.357042 487.792461,161.30713 487.792461,161.30713 L663.813285,158.362242 L688.371005,158.642321 L922.02531,161.30713 L1029.06562,159.724559 L1059.64763,161.30713 Z" id="Path-3" fill-opacity="0.752264493" fill="#4A4A4A"></path>
            <path d="M857.782756,161.44368 C857.782756,161.44368 837.790857,130.528149 824.796559,118.9405 C811.802261,107.352852 802.46514,112.114264 802.46514,112.114264 L762.692274,80.7218401 C762.692274,80.7218401 745.101629,21.1868524 720.544824,11.9946835 C715.770532,10.2075578 713.981392,3.97284101 705.506824,1.44846086 C697.032256,-1.07591929 682.394336,0.215419579 677.299464,1.44846086 C666.9491,3.95341583 658.163487,24.052135 654.665066,24.039346 C642.148539,23.9935899 618.980326,67.8202879 618.980326,67.8202879 L589.762461,88.3525185 C589.762461,88.3525185 566.634758,109.095293 542.868979,110.522661 C519.103199,111.950029 493.469502,94.132625 485.540845,94.3234604 C469.867162,94.7007112 455.600264,105.724374 447.728059,104.199105 C431.249527,101.006329 424.982717,89.7149795 422.452874,88.3525185 C416.344666,85.0629087 396.848042,65.2008829 396.848042,65.2008829 C396.848042,65.2008829 381.598392,59.4647482 373.621267,59.6041417 C365.644143,59.7435352 349.829189,66.0224975 349.829189,66.0224975 C349.829189,66.0224975 322.738087,86.4684344 312.118738,100.546581 C301.499389,114.624727 285.927585,161.44368 285.927585,161.44368 L463.054005,158.507018 L720.544824,161.44368 L827.286166,159.865529 L857.782756,161.44368 Z" id="Path-3" fill-opacity="0.871716486" fill="#9B9B9B"></path>
        </g>
    </g>
</svg>