<?xml version="1.0" encoding="UTF-8"?>
<svg width="573px" height="147px" viewBox="0 0 573 147" version="1.1" xmlns="http://www.w3.org/2000/svg" xmlns:xlink="http://www.w3.org/1999/xlink">
    <!-- Generator: Sketch 44.1 (41455) - http://www.bohemiancoding.com/sketch -->
    <title>Path 3</title>
    <desc>Created with Sketch.</desc>
    <defs></defs>
    <g id="Scene" stroke="none" stroke-width="1" fill="none" fill-rule="evenodd" fill-opacity="0.752264493">
        <g id="Group-2" transform="translate(-486.904479, -14.398882)" fill="#4A4A4A">
            <path d="M1059.64763,161.30713 C1059.64763,161.30713 1039.59974,130.305008 1026.56904,118.684903 C1013.53835,107.064798 1004.17508,111.839547 1004.17508,111.839547 C1004.17508,111.839547 995.645722,113.817395 989.053238,111.839547 C982.460754,109.861699 954.415481,80.5533282 954.415481,80.5533282 C954.415481,80.5533282 931.039821,27.94629 906.414235,18.7283748 C881.788648,9.5104596 866.069443,18.7491571 860.384482,18.7283748 C847.832898,18.6824906 820.17634,67.4215079 820.17634,67.4215079 L790.876639,88.0112472 C790.876639,88.0112472 767.684157,108.81212 743.851812,110.243486 C720.019467,111.674851 694.313973,93.8075432 686.363109,93.998913 C670.645525,94.3772205 656.338667,105.43176 648.444413,103.902219 C631.919726,100.7005 625.635363,89.3775243 623.098434,88.0112472 C616.973118,84.7124235 597.421886,64.7947662 597.421886,64.7947662 C597.421886,64.7947662 582.129523,59.0425652 574.130055,59.1823491 C566.130587,59.322133 550.271338,65.6186821 550.271338,65.6186821 C550.271338,65.6186821 523.104356,86.121886 512.455264,100.239464 C501.806171,114.357042 487.792461,161.30713 487.792461,161.30713 L663.813285,158.362242 L688.371005,158.642321 L922.02531,161.30713 L1029.06562,159.724559 L1059.64763,161.30713 Z" id="Path-3"></path>
        </g>
    </g>
</svg>