<?xml version="1.0" encoding="UTF-8"?>
<svg width="572px" height="163px" viewBox="0 0 572 163" version="1.1" xmlns="http://www.w3.org/2000/svg" xmlns:xlink="http://www.w3.org/1999/xlink">
    <!-- Generator: Sketch 44.1 (41455) - http://www.bohemiancoding.com/sketch -->
    <title>Path 3</title>
    <desc>Created with Sketch.</desc>
    <defs></defs>
    <g id="Scene" stroke="none" stroke-width="1" fill="none" fill-rule="evenodd" fill-opacity="0.871716486">
        <g id="Group-2" transform="translate(-285.904479, 0.601118)" fill="#9B9B9B">
            <path d="M857.782756,161.44368 C857.782756,161.44368 837.790857,130.528149 824.796559,118.9405 C811.802261,107.352852 802.46514,112.114264 802.46514,112.114264 L762.692274,80.7218401 C762.692274,80.7218401 745.101629,21.1868524 720.544824,11.9946835 C715.770532,10.2075578 713.981392,3.97284101 705.506824,1.44846086 C697.032256,-1.07591929 682.394336,0.215419579 677.299464,1.44846086 C666.9491,3.95341583 658.163487,24.052135 654.665066,24.039346 C642.148539,23.9935899 618.980326,67.8202879 618.980326,67.8202879 L589.762461,88.3525185 C589.762461,88.3525185 566.634758,109.095293 542.868979,110.522661 C519.103199,111.950029 493.469502,94.132625 485.540845,94.3234604 C469.867162,94.7007112 455.600264,105.724374 447.728059,104.199105 C431.249527,101.006329 424.982717,89.7149795 422.452874,88.3525185 C416.344666,85.0629087 396.848042,65.2008829 396.848042,65.2008829 C396.848042,65.2008829 381.598392,59.4647482 373.621267,59.6041417 C365.644143,59.7435352 349.829189,66.0224975 349.829189,66.0224975 C349.829189,66.0224975 322.738087,86.4684344 312.118738,100.546581 C301.499389,114.624727 285.927585,161.44368 285.927585,161.44368 L463.054005,158.507018 L720.544824,161.44368 L827.286166,159.865529 L857.782756,161.44368 Z" id="Path-3"></path>
        </g>
    </g>
</svg>