<?xml version="1.0" encoding="UTF-8"?>
<svg width="831px" height="541px" viewBox="0 0 831 541" version="1.1" xmlns="http://www.w3.org/2000/svg" xmlns:xlink="http://www.w3.org/1999/xlink">
    <!-- Generator: Sketch 44.1 (41455) - http://www.bohemiancoding.com/sketch -->
    <title>tower copy</title>
    <desc>Created with Sketch.</desc>
    <defs>
        <rect id="path-1" x="767.798658" y="469" width="61.2013423" height="33" rx="8"></rect>
    </defs>
    <g id="Tower" stroke="none" stroke-width="1" fill="none" fill-rule="evenodd">
        <g id="tower-open-door" transform="translate(-104.000000, 1.000000)">
            <g id="tower-copy" transform="translate(105.000000, 0.000000)">
                <path d="M258.633577,7.92619926 L246.635112,18.8247232 L237.302972,18.8247232 L237.302972,25.7601476 L225.304507,37.6494465 L214.639205,37.6494465 L214.639205,45.5756458 L198.641252,58.4557196 L186.642787,58.4557196 L186.642787,65.3911439 L167.978509,79.2619926 L159.979532,79.2619926 L159.979532,85.2066421 L133.316277,104.031365 L125.3173,104.031365 L125.3173,108.98524 L101.32037,124.837638 L91.9882309,126.819188 L91.9882309,132.763838 L69.3244638,147.625461 L61.3254872,147.625461 L61.3254872,152.579336 L49.3270223,163.47786 L26.6632553,152.579336 L10.6653021,139.699262 L10.6653021,124.837638 L22.663767,119.883764 L34.6622319,122.856089 L43.9943713,129.791513 L46.6606968,136.726937 L39.994883,139.699262 L31.9959064,139.699262 L29.3295809,134.745387 L34.6622319,136.726937 L34.6622319,129.791513 L26.6632553,126.819188 L22.663767,129.791513 L22.663767,136.726937 L26.6632553,143.662362 L37.3285575,145.643911 L49.3270223,143.662362 L53.3265106,136.726937 L49.3270223,124.837638 L31.9959064,113.939114 L22.663767,111.957565 L7.9989766,117.902214 L0,129.791513 L0,141.680812 L10.6653021,152.579336 L22.663767,158.523985 L39.994883,166.450185 L69.3244638,177.348708 L91.9882309,186.265683 L110.65251,195.182657 L125.3173,207.071956 L137.315765,215.98893 L142.648416,229.859779 L133.316277,237.785978 L121.317812,235.804428 L115.985161,229.859779 L121.317812,222.924354 L125.3173,227.878229 L125.3173,217.97048 L113.318835,219.95203 L106.653021,229.859779 L110.65251,239.767528 L129.316788,245.712177 L146.647904,237.785978 L154.646881,484.48893 L82.6560915,486.47048 L85.322417,497.369004 L94.6545564,497.369004 L137.315765,537 C137.315765,537 384.435305,532.547686 502.602363,537 C620.769421,541.452314 825.372716,537 825.372716,537 C825.372716,537 833.534105,486.433395 825.372716,486.47048 C817.211328,486.507564 389.283528,486.47048 389.283528,486.47048 L374.618737,486.47048 L359.953947,486.47048 L357.287621,370.549815 L354.621296,342.808118 C355.847875,328.64965 356.736649,320.393193 357.287621,318.038745 C357.838594,315.684298 359.616143,311.721198 362.620272,306.149446 L369.286086,295.250923 C374.722313,291.889268 378.721802,289.907718 381.284551,289.306273 C383.847301,288.704828 388.291176,288.704828 394.616179,289.306273 C399.327948,290.234552 402.883049,291.225327 405.281481,292.278598 C407.679913,293.331869 413.901339,296.634451 423.94576,302.186347 L421.279434,245.712177 L434.611062,251.656827 L443.943201,251.656827 L451.942178,245.712177 L457.274829,235.804428 L454.608503,225.896679 L447.942689,222.924354 L443.943201,227.878229 L441.276876,233.822878 L447.942689,235.804428 L443.943201,241.749077 L430.611573,241.749077 L421.279434,229.859779 L437.277387,213.016605 L465.273805,195.182657 L490.603898,177.348708 L519.933479,158.523985 L531.931944,150.597786 L541.264083,139.699262 L541.264083,124.837638 L531.931944,115.920664 L515.933991,113.939114 L499.936037,119.883764 L497.269712,126.819188 L499.936037,136.726937 L506.601851,141.680812 L515.933991,139.699262 L519.933479,132.763838 L511.934502,129.791513 L506.601851,129.791513 L509.268177,132.763838 L502.602363,129.791513 L511.934502,119.883764 L525.26613,122.856089 L531.931944,136.726937 L515.933991,152.579336 L487.937572,170.413284 L483.938084,166.450185 L477.27227,166.450185 L462.60748,154.560886 L462.60748,147.625461 L451.942178,147.625461 L430.611573,136.726937 L434.611062,129.791513 C428.746072,129.804023 425.190971,129.473764 423.94576,128.800738 C422.700548,128.127712 416.479122,123.173837 405.281481,113.939114 L405.281481,108.98524 L397.282504,108.98524 L378.618226,95.1143911 L378.618226,87.1881919 L371.952412,87.1881919 L351.95497,71.3357934 L351.95497,65.3911439 L345.289156,65.3911439 L323.958552,49.5387454 L323.958552,41.6125461 L314.626413,41.6125461 L298.62846,25.7601476 L298.62846,21.797048 L290.629483,18.8247232 L274.63153,3.96309963 L267.965716,0 L258.633577,7.92619926 Z" id="Path-19" stroke="#000000" fill="#000000" fill-rule="nonzero"></path>
                <g id="Rectangle">
                    <use fill="#000000" fill-rule="evenodd" xlink:href="#path-1"></use>
                    <rect stroke="#000000" stroke-width="1" x="768.298658" y="469.5" width="60.2013423" height="32" rx="8"></rect>
                </g>
                <polygon id="Triangle-2" fill="#FFFFFF" fill-rule="nonzero" transform="translate(105.644638, 180.280191) rotate(-97.000000) translate(-105.644638, -180.280191) " points="126.604444 154.66503 126.604444 205.895353 84.6848315 205.895353"></polygon>
                <polygon id="Triangle-2" fill="#FFFFFF" fill-rule="nonzero" transform="translate(438.357389, 196.280191) scale(-1, 1) rotate(-91.000000) translate(-438.357389, -196.280191) " points="459.317195 170.66503 459.317195 221.895352 417.397583 221.895352"></polygon>
                <rect id="Rectangle-3" fill="#000000" x="391" y="468" width="45" height="23" rx="7"></rect>
                <rect id="Rectangle-3" fill="#000000" x="465" y="468" width="45" height="23" rx="7"></rect>
                <rect id="Rectangle-3" fill="#000000" x="539" y="468" width="45" height="23" rx="7"></rect>
                <rect id="Rectangle-3" fill="#000000" x="613" y="467" width="45" height="23" rx="7"></rect>
            </g>
        </g>
    </g>
</svg>