<?xml version="1.0" encoding="UTF-8"?>
<svg width="284px" height="356px" viewBox="0 0 284 356" version="1.1" xmlns="http://www.w3.org/2000/svg" xmlns:xlink="http://www.w3.org/1999/xlink">
    <!-- Generator: Sketch 44.1 (41455) - http://www.bohemiancoding.com/sketch -->
    <title>Group</title>
    <desc>Created with Sketch.</desc>
    <defs></defs>
    <g id="Scene" stroke="none" stroke-width="1" fill="none" fill-rule="evenodd">
        <g id="Group" transform="translate(1.000000, 1.000000)" stroke="#000000" fill="#000000">
            <path d="M45.7265607,167.14338 C54.676771,167.14338 61.93235,161.716627 61.93235,155.022388 C61.93235,149.654205 56.3087552,147.226554 49.8448506,145.633354 C43.3809461,144.040154 47.4994997,142.901397 45.7265607,142.901397 C40.0849811,142.901397 36.8370365,145.255086 33.9347415,148.525702 C31.0324466,151.796319 29.5207715,152.547724 29.5207715,155.022388 C29.5207715,155.981047 26.6533357,158.493946 26.8832415,159.870785 C27.1131473,161.247624 30.4627924,161.551337 31.4104508,162.13992 C33.2831697,163.303051 34.8428729,159.476971 35.1874503,159.870785 C35.6777807,160.431178 33.7443993,163.717041 33.9347415,164.916858 C34.1250838,166.116674 36.4822913,165.396734 37.6960134,166.290531 C40.0497194,168.023822 43.4968916,167.14338 45.7265607,167.14338 Z" id="Oval"></path>
            <path d="M27.3762348,142.723521 C36.3264451,142.723521 43.5820241,137.296768 43.5820241,130.602529 C43.5820241,125.234346 37.9584293,122.806696 31.4945247,121.213496 C25.0306202,119.620296 29.1491738,118.481538 27.3762348,118.481538 C21.7346551,118.481538 18.4867106,120.835227 15.5844156,124.105844 C12.6821206,127.37646 11.1704456,128.127865 11.1704456,130.602529 C11.1704456,131.561188 8.30300979,134.074087 8.5329156,135.450926 C8.76282142,136.827765 12.1124665,137.131478 13.0601249,137.720061 C14.9328438,138.883192 16.492547,135.057112 16.8371244,135.450926 C17.3274548,136.01132 15.3940734,139.297182 15.5844156,140.496999 C15.7747579,141.696816 18.1319653,140.976875 19.3456875,141.870672 C21.6993934,143.603964 25.1465657,142.723521 27.3762348,142.723521 Z" id="Oval"></path>
            <path d="M80.1334218,130.362852 C89.0836321,130.362852 96.3392111,124.936099 96.3392111,118.24186 C96.3392111,112.873677 90.7156163,110.446026 84.2517118,108.852826 C77.7878072,107.259626 81.9063608,106.120868 80.1334218,106.120868 C74.4918422,106.120868 71.2438976,108.474557 68.3416027,111.745174 C65.4393077,115.015791 63.9276326,115.767196 63.9276326,118.24186 C63.9276326,119.200519 61.0601968,121.713418 61.2901026,123.090257 C61.5200085,124.467095 64.8696535,124.770808 65.8173119,125.359391 C67.6900308,126.522522 69.2497341,122.696443 69.5943114,123.090257 C70.0846418,123.65065 68.1512604,126.936513 68.3416027,128.13633 C68.5319449,129.336146 70.8891524,128.616206 72.1028745,129.510003 C74.4565805,131.243294 77.9037527,130.362852 80.1334218,130.362852 Z" id="Oval"></path>
            <path d="M97.5006946,97.50156 C106.450905,97.50156 113.706484,92.0748072 113.706484,85.3805684 C113.706484,80.0123852 108.082889,77.5847346 101.618985,75.9915346 C95.15508,74.3983346 99.2736336,73.2595767 97.5006946,73.2595767 C91.8591149,73.2595767 88.6111704,75.6132657 85.7088754,78.8838826 C82.8065804,82.1544995 81.2949053,82.9059043 81.2949053,85.3805684 C81.2949053,86.3392269 78.4274696,88.8521264 78.6573754,90.228965 C78.8872812,91.6058037 82.2369263,91.9095168 83.1845847,92.4980999 C85.0573035,93.6612306 86.6170068,89.8351511 86.9615842,90.228965 C87.4519145,90.7893586 85.5185331,94.0752214 85.7088754,95.275038 C85.8992177,96.4748546 88.2564251,95.7549143 89.4701472,96.6487109 C91.8238532,98.3820026 95.2710255,97.50156 97.5006946,97.50156 Z" id="Oval"></path>
            <path d="M58.1785676,48.6618422 C67.1287779,48.6618422 74.3843569,43.2350894 74.3843569,36.5408505 C74.3843569,31.1726674 68.7607621,28.7450168 62.2968575,27.1518168 C55.832953,25.5586168 59.9515066,24.4198589 58.1785676,24.4198589 C52.536988,24.4198589 49.2890434,26.7735479 46.3867484,30.0441647 C43.4844534,33.3147816 41.9727784,34.0661865 41.9727784,36.5408505 C41.9727784,37.4995091 39.1053426,40.0124086 39.3352484,41.3892472 C39.5651542,42.7660858 42.9147993,43.069799 43.8624577,43.6583821 C45.7351766,44.8215128 47.2948798,40.9954333 47.6394572,41.3892472 C48.1297876,41.9496408 46.1964062,45.2355036 46.3867484,46.4353202 C46.5770907,47.6351368 48.9342981,46.9151965 50.1480203,47.8089931 C52.5017262,49.5422848 55.9488985,48.6618422 58.1785676,48.6618422 Z" id="Oval"></path>
            <path d="M36.2237134,73.0817011 C45.1739237,73.0817011 52.4295026,67.6549483 52.4295026,60.9607095 C52.4295026,55.5925263 46.8059078,53.1648757 40.3420033,51.5716757 C33.8780988,49.9784757 37.9966524,48.8397178 36.2237134,48.8397178 C30.5821337,48.8397178 27.3341892,51.1934068 24.4318942,54.4640237 C21.5295992,57.7346405 20.0179241,58.4860454 20.0179241,60.9607095 C20.0179241,61.919368 17.1504884,64.4322675 17.3803942,65.8091061 C17.6103,67.1859447 20.959945,67.4896579 21.9076035,68.078241 C23.7803223,69.2413717 25.3400256,65.4152922 25.684603,65.8091061 C26.1749333,66.3694997 24.2415519,69.6553625 24.4318942,70.8551791 C24.6222365,72.0549957 26.9794439,71.3350554 28.193166,72.228852 C30.546872,73.9621437 33.9940443,73.0817011 36.2237134,73.0817011 Z" id="Oval"></path>
            <path d="M18.8564406,105.942993 C27.8066509,105.942993 35.0622299,100.51624 35.0622299,93.8220011 C35.0622299,88.4538179 29.4386351,86.0261673 22.9747305,84.4329673 C16.510826,82.8397673 20.6293796,81.7010094 18.8564406,81.7010094 C13.214861,81.7010094 9.96691643,84.0546984 7.06462144,87.3253153 C4.16232645,90.5959322 2.65065137,91.347337 2.65065137,93.8220011 C2.65065137,94.7806596 -0.216784392,97.2935591 0.0131214244,98.6703977 C0.243027241,100.047236 3.59267229,100.350949 4.5403307,100.939533 C6.41304957,102.102663 7.97275284,98.2765838 8.31733021,98.6703977 C8.80766058,99.2307913 6.87427917,102.516654 7.06462144,103.716471 C7.2549637,104.916287 9.61217115,104.196347 10.8258933,105.090144 C13.1795992,106.823435 16.6267715,105.942993 18.8564406,105.942993 Z" id="Oval"></path>
            <path d="M148.61946,142.723521 C157.56967,142.723521 164.825249,137.296768 164.825249,130.602529 C164.825249,125.234346 159.201654,122.806696 152.73775,121.213496 C146.273845,119.620296 150.392399,118.481538 148.61946,118.481538 C142.97788,118.481538 139.729935,120.835227 136.82764,124.105844 C133.925345,127.37646 132.41367,128.127865 132.41367,130.602529 C132.41367,131.561188 129.546235,134.074087 129.77614,135.450926 C130.006046,136.827765 133.355691,137.131478 134.30335,137.720061 C136.176069,138.883192 137.735772,135.057112 138.080349,135.450926 C138.57068,136.01132 136.637298,139.297182 136.82764,140.496999 C137.017983,141.696816 139.37519,140.976875 140.588912,141.870672 C142.942618,143.603964 146.389791,142.723521 148.61946,142.723521 Z" id="Oval"></path>
            <path d="M130.269134,118.303662 C139.219344,118.303662 146.474923,112.876909 146.474923,106.18267 C146.474923,100.814487 140.851328,98.3868366 134.387424,96.7936366 C127.923519,95.2004366 132.042073,94.0616788 130.269134,94.0616788 C124.627554,94.0616788 121.37961,96.4153677 118.477315,99.6859846 C115.57502,102.956601 114.063344,103.708006 114.063344,106.18267 C114.063344,107.141329 111.195909,109.654228 111.425815,111.031067 C111.65572,112.407906 115.005365,112.711619 115.953024,113.300202 C117.825743,114.463333 119.385446,110.637253 119.730023,111.031067 C120.220354,111.591461 118.286972,114.877323 118.477315,116.07714 C118.667657,117.276957 121.024864,116.557016 122.238586,117.450813 C124.592292,119.184105 128.039465,118.303662 130.269134,118.303662 Z" id="Oval"></path>
            <path d="M183.026321,105.942993 C191.976531,105.942993 199.23211,100.51624 199.23211,93.8220011 C199.23211,88.4538179 193.608515,86.0261673 187.144611,84.4329673 C180.680706,82.8397673 184.79926,81.7010094 183.026321,81.7010094 C177.384741,81.7010094 174.136797,84.0546984 171.234502,87.3253153 C168.332207,90.5959322 166.820532,91.347337 166.820532,93.8220011 C166.820532,94.7806596 163.953096,97.2935591 164.183002,98.6703977 C164.412907,100.047236 167.762552,100.350949 168.710211,100.939533 C170.58293,102.102663 172.142633,98.2765838 172.48721,98.6703977 C172.977541,99.2307913 171.044159,102.516654 171.234502,103.716471 C171.424844,104.916287 173.782051,104.196347 174.995773,105.090144 C177.349479,106.823435 180.796652,105.942993 183.026321,105.942993 Z" id="Oval"></path>
            <path d="M200.393594,73.0817011 C209.343804,73.0817011 216.599383,67.6549483 216.599383,60.9607095 C216.599383,55.5925263 210.975788,53.1648757 204.511883,51.5716757 C198.047979,49.9784757 202.166533,48.8397178 200.393594,48.8397178 C194.752014,48.8397178 191.504069,51.1934068 188.601774,54.4640237 C185.699479,57.7346405 184.187804,58.4860454 184.187804,60.9607095 C184.187804,61.919368 181.320369,64.4322675 181.550274,65.8091061 C181.78018,67.1859447 185.129825,67.4896579 186.077484,68.078241 C187.950202,69.2413717 189.509906,65.4152922 189.854483,65.8091061 C190.344813,66.3694997 188.411432,69.6553625 188.601774,70.8551791 C188.792117,72.0549957 191.149324,71.3350554 192.363046,72.228852 C194.716752,73.9621437 198.163924,73.0817011 200.393594,73.0817011 Z" id="Oval"></path>
            <path d="M161.071467,24.2419833 C170.021677,24.2419833 177.277256,18.8152305 177.277256,12.1209916 C177.277256,6.75280846 171.653661,4.32515788 165.189756,2.73195788 C158.725852,1.13875788 162.844406,0 161.071467,0 C155.429887,0 152.181942,2.35368894 149.279647,5.62430583 C146.377352,8.89492272 144.865677,9.6463276 144.865677,12.1209916 C144.865677,13.0796502 141.998242,15.5925496 142.228147,16.9693883 C142.458053,18.3462269 145.807698,18.6499401 146.755357,19.2385231 C148.628075,20.4016539 150.187779,16.5755743 150.532356,16.9693883 C151.022687,17.5297818 149.089305,20.8156447 149.279647,22.0154613 C149.46999,23.2152779 151.827197,22.4953376 153.040919,23.3891342 C155.394625,25.1224259 158.841797,24.2419833 161.071467,24.2419833 Z" id="Oval"></path>
            <path d="M139.116612,48.6618422 C148.066823,48.6618422 155.322402,43.2350894 155.322402,36.5408505 C155.322402,31.1726674 149.698807,28.7450168 143.234902,27.1518168 C136.770998,25.5586168 140.889551,24.4198589 139.116612,24.4198589 C133.475033,24.4198589 130.227088,26.7735479 127.324793,30.0441647 C124.422498,33.3147816 122.910823,34.0661865 122.910823,36.5408505 C122.910823,37.4995091 120.043387,40.0124086 120.273293,41.3892472 C120.503199,42.7660858 123.852844,43.069799 124.800502,43.6583821 C126.673221,44.8215128 128.232925,40.9954333 128.577502,41.3892472 C129.067832,41.9496408 127.134451,45.2355036 127.324793,46.4353202 C127.515135,47.6351368 129.872343,46.9151965 131.086065,47.8089931 C133.439771,49.5422848 136.886943,48.6618422 139.116612,48.6618422 Z" id="Oval"></path>
            <path d="M121.74934,81.5231338 C130.69955,81.5231338 137.955129,76.096381 137.955129,69.4021422 C137.955129,64.033959 132.331534,61.6063084 125.867629,60.0131084 C119.403725,58.4199084 123.522279,57.2811505 121.74934,57.2811505 C116.10776,57.2811505 112.859815,59.6348395 109.95752,62.9054564 C107.055225,66.1760733 105.54355,66.9274781 105.54355,69.4021422 C105.54355,70.3608007 102.676115,72.8737002 102.90602,74.2505388 C103.135926,75.6273775 106.485571,75.9310906 107.43323,76.5196737 C109.305949,77.6828044 110.865652,73.8567249 111.210229,74.2505388 C111.70056,74.8109324 109.767178,78.0967952 109.95752,79.2966118 C110.147863,80.4964284 112.50507,79.7764881 113.718792,80.6702847 C116.072498,82.4035764 119.51967,81.5231338 121.74934,81.5231338 Z" id="Oval"></path>
            <path d="M174.834211,165.334501 C183.784421,165.334501 191.04,159.907749 191.04,153.21351 C191.04,147.845327 185.416405,145.417676 178.952501,143.824476 C172.488596,142.231276 176.60715,141.092518 174.834211,141.092518 C169.192631,141.092518 165.944687,143.446207 163.042392,146.716824 C160.140097,149.987441 158.628422,150.738846 158.628422,153.21351 C158.628422,154.172168 155.760986,156.685068 155.990892,158.061906 C156.220798,159.438745 159.570443,159.742458 160.518101,160.331041 C162.39082,161.494172 163.950523,157.668092 164.295101,158.061906 C164.785431,158.6223 162.85205,161.908163 163.042392,163.107979 C163.232734,164.307796 165.589942,163.587856 166.803664,164.481652 C169.15737,166.214944 172.604542,165.334501 174.834211,165.334501 Z" id="Oval"></path>
            <path d="M97.5006946,191.563239 C106.450905,191.563239 113.706484,186.136486 113.706484,179.442247 C113.706484,174.074064 108.082889,171.646413 101.618985,170.053213 C95.15508,168.460013 99.2736336,167.321256 97.5006946,167.321256 C91.8591149,167.321256 88.6111704,169.674944 85.7088754,172.945561 C82.8065804,176.216178 81.2949053,176.967583 81.2949053,179.442247 C81.2949053,180.400906 78.4274696,182.913805 78.6573754,184.290644 C78.8872812,185.667482 82.2369263,185.971196 83.1845847,186.559779 C85.0573035,187.722909 86.6170068,183.89683 86.9615842,184.290644 C87.4519145,184.851037 85.5185331,188.1369 85.7088754,189.336717 C85.8992177,190.536533 88.2564251,189.816593 89.4701472,190.71039 C91.8238532,192.443681 95.2710255,191.563239 97.5006946,191.563239 Z" id="Oval"></path>
            <path d="M156.483885,140.914643 C165.434095,140.914643 172.689674,135.48789 172.689674,128.793651 C172.689674,123.425468 167.06608,120.997817 160.602175,119.404617 C154.13827,117.811417 158.256824,116.672659 156.483885,116.672659 C150.842305,116.672659 147.594361,119.026348 144.692066,122.296965 C141.789771,125.567582 140.278096,126.318987 140.278096,128.793651 C140.278096,129.752309 137.41066,132.265209 137.640566,133.642048 C137.870472,135.018886 141.220117,135.322599 142.167775,135.911182 C144.040494,137.074313 145.600197,133.248234 145.944775,133.642048 C146.435105,134.202441 144.501724,137.488304 144.692066,138.688121 C144.882408,139.887937 147.239616,139.167997 148.453338,140.061793 C150.807044,141.795085 154.254216,140.914643 156.483885,140.914643 Z" id="Oval"></path>
            <path d="M266.258156,85.4423704 C275.208367,85.4423704 282.463945,80.0156176 282.463945,73.3213788 C282.463945,67.9531956 276.840351,65.525545 270.376446,63.932345 C263.912542,62.339145 268.031095,61.2003871 266.258156,61.2003871 C260.616577,61.2003871 257.368632,63.5540761 254.466337,66.824693 C251.564042,70.0953099 250.052367,70.8467147 250.052367,73.3213788 C250.052367,74.2800373 247.184931,76.7929368 247.414837,78.1697754 C247.644743,79.5466141 250.994388,79.8503272 251.942046,80.4389103 C253.814765,81.6020411 255.374468,77.7759615 255.719046,78.1697754 C256.209376,78.730169 254.275995,82.0160318 254.466337,83.2158484 C254.656679,84.415665 257.013887,83.6957247 258.227609,84.5895213 C260.581315,86.322813 264.028487,85.4423704 266.258156,85.4423704 Z" id="Oval"></path>
            <path d="M244.303302,109.862229 C253.253512,109.862229 260.509091,104.435477 260.509091,97.7412377 C260.509091,92.3730545 254.885496,89.9454039 248.421592,88.3522039 C241.957687,86.7590039 246.076241,85.6202461 244.303302,85.6202461 C238.661722,85.6202461 235.413778,87.973935 232.511483,91.2445519 C229.609188,94.5151688 228.097513,95.2665737 228.097513,97.7412377 C228.097513,98.6998963 225.230077,101.212796 225.459983,102.589634 C225.689889,103.966473 229.039534,104.270186 229.987192,104.858769 C231.859911,106.0219 233.419614,102.19582 233.764192,102.589634 C234.254522,103.150028 232.321141,106.435891 232.511483,107.635707 C232.701825,108.835524 235.059033,108.115584 236.272755,109.00938 C238.626461,110.742672 242.073633,109.862229 244.303302,109.862229 Z" id="Oval"></path>
            <path d="M226.936029,142.723521 C235.88624,142.723521 243.141819,137.296768 243.141819,130.602529 C243.141819,125.234346 237.518224,122.806696 231.054319,121.213496 C224.590415,119.620296 228.708968,118.481538 226.936029,118.481538 C221.29445,118.481538 218.046505,120.835227 215.14421,124.105844 C212.241915,127.37646 210.73024,128.127865 210.73024,130.602529 C210.73024,131.561188 207.862804,134.074087 208.09271,135.450926 C208.322616,136.827765 211.672261,137.131478 212.619919,137.720061 C214.492638,138.883192 216.052341,135.057112 216.396919,135.450926 C216.887249,136.01132 214.953868,139.297182 215.14421,140.496999 C215.334552,141.696816 217.69176,140.976875 218.905482,141.870672 C221.259188,143.603964 224.70636,142.723521 226.936029,142.723521 Z" id="Oval"></path>
            <path d="M209.241072,199.703192 C218.191282,199.703192 225.446861,194.276439 225.446861,187.5822 C225.446861,182.214017 219.823267,179.786366 213.359362,178.193166 C206.895457,176.599966 211.014011,175.461208 209.241072,175.461208 C203.599492,175.461208 200.351548,177.814897 197.449253,181.085514 C194.546958,184.356131 193.035283,185.107536 193.035283,187.5822 C193.035283,188.540859 190.167847,191.053758 190.397753,192.430597 C190.627659,193.807435 193.977304,194.111149 194.924962,194.699732 C196.797681,195.862862 198.357384,192.036783 198.701962,192.430597 C199.192292,192.99099 197.258911,196.276853 197.449253,197.47667 C197.639595,198.676486 199.996803,197.956546 201.210525,198.850343 C203.564231,200.583634 207.011403,199.703192 209.241072,199.703192 Z" id="Oval"></path>
            <path d="M261.998259,142.723521 C270.948469,142.723521 278.204048,137.296768 278.204048,130.602529 C278.204048,125.234346 272.580454,122.806696 266.116549,121.213496 C259.652645,119.620296 263.771198,118.481538 261.998259,118.481538 C256.356679,118.481538 253.108735,120.835227 250.20644,124.105844 C247.304145,127.37646 245.79247,128.127865 245.79247,130.602529 C245.79247,131.561188 242.925034,134.074087 243.15494,135.450926 C243.384846,136.827765 246.734491,137.131478 247.682149,137.720061 C249.554868,138.883192 251.114571,135.057112 251.459149,135.450926 C251.949479,136.01132 250.016098,139.297182 250.20644,140.496999 C250.396782,141.696816 252.75399,140.976875 253.967712,141.870672 C256.321418,143.603964 259.76859,142.723521 261.998259,142.723521 Z" id="Oval"></path>
            <path d="M209.241072,128.553973 C218.191282,128.553973 225.446861,123.12722 225.446861,116.432982 C225.446861,111.064798 219.823267,108.637148 213.359362,107.043948 C206.895457,105.450748 211.014011,104.31199 209.241072,104.31199 C203.599492,104.31199 200.351548,106.665679 197.449253,109.936296 C194.546958,113.206913 193.035283,113.958318 193.035283,116.432982 C193.035283,117.39164 190.167847,119.90454 190.397753,121.281378 C190.627659,122.658217 193.977304,122.96193 194.924962,123.550513 C196.797681,124.713644 198.357384,120.887564 198.701962,121.281378 C199.192292,121.841772 197.258911,125.127635 197.449253,126.327451 C197.639595,127.527268 199.996803,126.807327 201.210525,127.701124 C203.564231,129.434416 207.011403,128.553973 209.241072,128.553973 Z" id="Oval"></path>
            <path d="M166.314417,69.1624645 C175.264627,69.1624645 182.520206,63.7357117 182.520206,57.0414728 C182.520206,51.6732897 176.896611,49.2456391 170.432707,47.6524391 C163.968802,46.0592391 168.087356,44.9204812 166.314417,44.9204812 C160.672837,44.9204812 157.424893,47.2741701 154.522598,50.544787 C151.620303,53.8154039 150.108628,54.5668088 150.108628,57.0414728 C150.108628,58.0001314 147.241192,60.5130309 147.471098,61.8898695 C147.701003,63.2667081 151.050648,63.5704213 151.998307,64.1590043 C153.871026,65.3221351 155.430729,61.4960555 155.775306,61.8898695 C156.265637,62.450263 154.332255,65.7361259 154.522598,66.9359425 C154.71294,68.1357591 157.070147,67.4158188 158.283869,68.3096154 C160.637575,70.0429071 164.084748,69.1624645 166.314417,69.1624645 Z" id="Oval"></path>
            <path d="M147.964091,104.134114 C156.914301,104.134114 164.16988,98.7073615 164.16988,92.0131226 C164.16988,86.6449395 158.546285,84.2172889 152.082381,82.6240889 C145.618476,81.0308889 149.73703,79.892131 147.964091,79.892131 C142.322511,79.892131 139.074567,82.2458199 136.172272,85.5164368 C133.269977,88.7870537 131.758302,89.5384586 131.758302,92.0131226 C131.758302,92.9717812 128.890866,95.4846807 129.120772,96.8615193 C129.350678,98.2383579 132.700323,98.5420711 133.647981,99.1306541 C135.5207,100.293785 137.080403,96.4677053 137.42498,96.8615193 C137.915311,97.4219128 135.981929,100.707776 136.172272,101.907592 C136.362614,103.107409 138.719821,102.387469 139.933544,103.281265 C142.28725,105.014557 145.734422,104.134114 147.964091,104.134114 Z" id="Oval"></path>
            <path d="M145.458355,251.237774 C144.020712,241.2754 133.748045,215.514717 131.315352,212.484595 C127.313104,207.499462 123.292678,192.468283 123.292678,192.468283 L82.628485,165.458789 L58.5650685,158.252474 L46.2832706,150.415783 L50.6716266,153.242342 L49.0366972,146.8341 L38.0401174,149.511574 L30.19878,146.67047 L24.8078606,133.018866 L26.7471161,130.909855 L33.3685142,122.118673 L29.7495367,137.107196 L33.269707,143.677856 L38.2061135,145.944437 L38.7001493,140.857357 L46.5243601,142.406389 L51.9851033,139.719218 L55.4710204,153.795049 L62.5969939,156.767057 L66.6981503,151.938149 L70.7900848,159.442107 L78.6828019,160.214199 L77.0412854,156.797359 L73.9058044,155.788912 L72.6832303,149.556421 L68.0761811,147.573466 L63.4928456,149.276432 L66.8983995,143.390594 L64.3056993,138.193216 L72.7029917,144.966292 L80.0239446,155.20348 L92.6659933,164.123142 L101.064603,168.760542 L99.0423496,161.393548 L88.2473364,151.170906 L78.3468575,142.997882 L67.0090636,131.89406 L60.7815767,132.40798 L61.1768054,135.556952 L54.9071608,132.220109 L46.7417359,129.928074 L36.3854266,121.953831 L23.6827762,110.972429 L18.6422929,95.2615091 L16.3842196,86.4169958 L19.957087,82.6583504 L19.957087,86.4169958 L22.8119556,92.6797888 L26.7537032,106.990762 L35.4065768,116.298288 L46.1581149,125.365823 L53.4184661,129.176588 L58.9002881,128.347528 L50.1143541,119.059395 L44.4862975,117.78308 L45.8432493,114.712893 L36.294524,102.91334 L28.9762059,88.9078105 L24.9580475,72.4987354 L33.9152472,82.6765315 L33.8730895,91.3052954 L35.4540043,98.0141321 L40.5946122,100.747362 L43.9369296,106.704712 L62.1714643,123.889515 L50.7348632,104.737514 L47.7680131,90.6095642 L44.0923862,85.2691605 L36.6080721,82.7868303 L35.8992953,78.8584944 L43.7564418,81.6280864 L33.8849463,73.5180907 L25.3730376,61.623996 L25.9513889,50.7492565 L31.1302023,63.669979 L44.4862975,74.6150188 L47.5783033,70.0673124 L32.3712204,46.0912512 L58.5650685,82.7868303 L58.2012706,95.6172448 L70.0514329,118.514987 L83.6265276,131.226066 L97.3374762,143.406884 L99.3279412,119.533843 L90.3862867,97.1133342 L80.5471733,81.0123825 L72.867313,70.4109796 L65.9078899,57.9120052 L56.8962501,46.7481484 L44.3318258,41.0080891 L32.8871667,39.7865984 L45.5524522,36.9951608 L48.1027998,29.5450145 L51.9911021,34.1222904 C51.9911021,34.1222904 81.963055,74.4068664 104.73999,104.737514 C105.608356,105.893863 106.597253,127.997122 107.449636,133.018866 C108.302018,138.04061 116.869705,146.453435 117.751275,147.573466 C119.223083,149.443392 116.22231,119.92161 117.751275,121.953831 C119.940358,124.863445 124.068116,154.773821 125.642424,156.797359 C127.216731,158.820897 128.882121,133.018866 128.882121,133.018866 C128.882121,133.018866 109.110112,69.6470447 111.799569,46.0912512 C112.12671,43.2259712 116.446386,45.0611195 117.751275,50.7492565 C119.056165,56.4373936 122.284652,92.0243266 125.642424,90.6095642 C130.454071,88.5822264 137.341914,29.5450145 137.341914,29.5450145 C137.341914,29.5450145 141.781156,30.7127506 141.841348,34.1222904 C141.901539,37.5318303 137.800706,59.8797846 137.341914,70.0673124 C137.333372,70.2569748 161.790509,21.347143 166.400642,21.347143 C171.010775,21.347143 129.64732,94.9414057 128.882121,100.747362 C127.001193,115.018933 129.71357,128.298342 131.315352,126.444261 C132.111427,125.522794 135.727443,142.457488 141.841348,138.193216 C148.828153,133.32012 142.519278,102.912164 151.07811,92.6797888 C151.972533,91.6104759 152.997336,97.716097 157.211064,90.6095642 C161.424791,83.5030314 176.133716,51.2239307 175.283678,57.9120052 C173.943514,68.4563891 148.192749,126.447451 151.07811,126.444261 C158.088008,126.436512 186.605964,88.1901019 189.242617,85.2691605 C191.688829,82.5591941 193.131277,72.9179446 193.983094,72.4987354 C194.834911,72.0795262 193.997674,85.0231007 193.983094,85.2691605 C193.770537,88.8562205 131.315352,163.365474 131.315352,163.365474 C131.315352,163.365474 138.383865,178.387586 145.458355,178.023882 C152.532846,177.660179 163.174537,160.59118 166.400642,164.123142 C169.132477,167.113974 154.544327,175.789312 153.969154,183.53304 C153.393981,191.276768 166.400642,201.777095 166.400642,201.777095 L193.983094,165.528175 L189.242617,156.396349 C189.242617,156.396349 178.299012,130.560689 175.283678,116.298288 C172.268345,102.035886 177.425542,107.795694 177.716923,106.990762 C178.236059,105.556658 184.599377,131.204129 189.242617,135.556952 C193.885857,139.909775 200.085097,126.444261 200.085097,126.444261 C200.085097,126.444261 198.585115,147.184031 200.085097,153.795049 C201.585078,160.406066 204.780501,150.536707 205.814775,147.573466 C208.477006,139.946052 210.599071,128.628206 214.11005,126.444261 C216.574033,124.911582 207.993698,155.204381 214.11005,153.795049 C220.226402,152.385716 244.78293,88.9078105 244.78293,88.9078105 C244.78293,88.9078105 245.73512,90.2883985 244.78293,92.6797888 C243.83074,95.0711791 228.932758,130.169094 233.228419,135.556952 C238.533676,142.211101 267.342077,117.334504 266.147448,118.514987 C265.462951,119.191379 266.105,122.055003 262.139618,125.365823 C258.174237,128.676643 235.595522,144.12191 236.042282,144.966292 C236.966232,146.712568 258.299608,137.049451 258.299608,137.049451 C258.299608,137.049451 254.454045,141.445596 251.618216,143.390594 C248.782388,145.335593 214.11005,167.357571 214.11005,167.357571 C214.11005,167.357571 191.769379,198.57778 184.697688,215.493649 C177.625997,232.409518 182.001691,239.789195 182.001691,239.789195 C182.001691,239.789195 182.76493,248.083094 182.001691,258.330564 C181.238453,268.578034 182.001691,272.675445 182.001691,277.219039 C182.001691,279.89271 184.451463,285.795204 184.697688,293.33361 C184.943913,300.872017 184.697688,353.984759 184.697688,353.984759 L131.315352,353.984759 C131.315352,353.984759 133.133228,322.801971 137.341914,293.33361 C141.5506,263.86525 146.005305,255.027949 145.458355,251.237774 Z" id="Path-2"></path>
        </g>
    </g>
</svg>