<?xml version="1.0" encoding="UTF-8"?>
<svg width="263px" height="405px" viewBox="0 0 263 405" version="1.1" xmlns="http://www.w3.org/2000/svg" xmlns:xlink="http://www.w3.org/1999/xlink">
    <!-- Generator: Sketch 44.1 (41455) - http://www.bohemiancoding.com/sketch -->
    <title>princess-two-hands-up</title>
    <desc>Created with Sketch.</desc>
    <defs></defs>
    <g id="princess" stroke="none" stroke-width="1" fill="none" fill-rule="evenodd">
        <g id="princess-two-hands-up" transform="translate(1.000000, 0.000000)" fill="#000000">
            <path d="M95.5967908,35.4167193 L88.9162305,39.0714581 C86.4873741,36.9426066 85.272946,35.8781808 85.272946,35.8781808 C83.500652,34.813755 82.2862238,34.2815421 81.6296617,34.2815421 C79.1295911,34.2815421 76.3229682,34.3202328 76.3229682,34.3202328 C75.1085402,38.5779358 76.1647352,42.2647354 76.1647352,42.2647354 L76.1647352,47.0546513 C74.950307,48.1190771 74.343093,48.65129 74.343093,48.65129 C73.1286649,50.1595414 72.5214509,51.2239673 72.5214509,51.8445673 C72.5214509,53.7965165 74.343093,55.0378446 74.343093,55.0378446 C72.3878724,55.6871369 71.1734442,56.2193497 70.6998087,56.6344833 C68.7342214,58.3572875 68.8781665,59.8277606 68.8781665,59.8277606 C70.0925947,63.0210379 70.6998087,64.6176765 70.6998087,64.6176765 C76.7719494,67.8109538 79.8080195,69.4075925 79.8080195,69.4075925 C80.6142043,70.9921911 81.2214183,72.0566169 81.6296617,72.6008698 C82.1880998,73.3453562 83.3238121,73.8064029 83.4513038,74.1975085 C84.4948464,77.3987749 82.1348089,79.6619795 82.1112782,79.9413948 C82.0894893,80.2001216 82.0787181,80.4433333 82.0884534,80.4634749 C82.127981,80.5452542 82.2197663,80.887275 82.4934227,80.887275 C83.1010859,81.009677 84.3463646,81.2573715 84.4042545,81.255643 C84.6498119,81.2483109 84.8580023,81.2244006 85.0365046,81.1929895 C85.7117412,81.0741676 85.9621545,80.8480112 86.2033908,81.0058736 C86.9211721,81.4755816 87.4654622,82.1991345 87.5340861,82.6871699 C87.594382,83.1159777 87.7525129,84.0126321 87.829717,84.0854456 C88.0040992,84.2499108 89.5999148,84.9414034 89.9476791,84.5971589 C90.2155483,84.3320008 90.7801969,82.4974222 91.6316505,81.6513208 C92.4831041,80.8052194 93.3214565,81.2268559 93.3810865,81.2815559 C93.4749945,81.3676999 93.8762504,82.7542933 93.4253202,83.5087202 C92.9743901,84.2631472 91.1580916,86.4723342 91.625103,86.6202209 C91.625103,86.6202209 92.8677873,86.7167307 92.9268821,86.7617165 C94.1478905,87.6912088 94.2841891,89.1274101 96.5860521,89.5206955 C99.4612089,90.0119313 99.8887455,89.0667951 103.487018,88.5672564 C103.501431,90.8019862 109.328398,101.174893 109.189006,101.279933 C109.132382,101.322601 114.162969,111.526272 122.97247,118.795331 C128.135013,123.055144 134.119489,134.174944 141.020202,139.216998 C143.396608,140.953336 144.687354,138.653372 146.898162,138.881469 C147.910847,138.985951 149.873891,138.184367 151.738695,138.53333 C153.603499,138.882294 161.071278,137.807975 162.59626,137.111274 C167.137788,135.036437 167.246843,131.6765 167.246843,131.6765 C169.992157,131.991323 171.813798,131.991323 172.71177,131.6765 C175.420103,130.726977 176.355054,128.483223 176.355054,128.483223 C178.2614,127.876768 179.475829,127.344555 179.998339,126.886584 C181.716584,125.380571 181.819982,123.693307 181.819982,123.693307 C184.643639,123.980662 186.465282,123.980662 187.284907,123.693307 C190.415323,122.595804 190.928192,120.500029 190.928192,120.500029 C194.073138,120.017982 195.894781,119.48577 196.393119,118.903391 C198.238621,116.746655 196.393119,114.113475 196.393119,114.113475 C198.700578,112.942236 199.915007,111.87781 200.036403,110.920198 C200.282872,108.975965 202.078263,107.688905 201.858045,106.130282 C201.355189,102.571249 200.036403,99.743727 198.21476,99.743727 C199.947682,99.1672805 201.162111,98.6350677 201.858045,98.1470883 C203.864932,96.739886 206.426371,95.8410599 207.322972,94.953811 C208.074445,94.2101745 207.322972,93.3571723 207.322972,93.3571723 C208.384402,91.7647173 208.991617,90.7002915 209.144613,90.163895 C209.822339,87.787838 209.144613,86.9706177 209.144613,86.9706177 C209.308303,85.10561 209.308303,83.8144306 209.144613,83.0970797 C208.517364,80.3482062 207.322972,78.9874244 207.322972,78.9874244 C205.640008,77.1854542 204.42558,76.1210284 203.679688,75.7941471 C198.892274,73.6961037 196.393119,74.1975085 196.393119,74.1975085 C196.648792,72.6288915 196.648792,71.5644658 196.393119,71.0042312 C194.825083,67.5683395 192.749835,66.2143152 192.749835,66.2143152 C189.10655,65.1498895 187.284907,64.6176765 187.284907,64.6176765 C181.392095,63.7095426 177.141596,63.1773298 174.533411,63.0210379 C168.182512,62.640469 162.588607,63.1347545 159.960274,63.0210379 C155.496361,62.8279037 152.791122,63.0918526 150.852064,63.0210379 C145.909224,62.8405248 145.387138,63.0210379 145.387138,63.0210379 C143.737847,62.881655 138.100569,58.2311219 138.100569,58.2311219 C136.519856,55.8173309 132.635642,53.4412059 132.635642,53.4412059 C131.209325,51.7773608 128.305761,49.7951973 127.170716,48.65129 C123.519195,44.971259 121.163113,44.0764893 118.062505,42.2647354 C116.077015,41.1045699 114.587224,40.4441786 113.822689,39.848533 C111.791521,38.2660573 110.775936,37.4748195 110.775936,37.4748195 C110.018673,36.7297084 109.462246,36.3571529 109.106656,36.3571529 C102.932941,36.3571529 99.8460834,37.4748195 99.8460834,37.4748195 C98.6316553,36.4103937 98.0244413,35.8781808 98.0244413,35.8781808 C97.3184858,35.3459679 96.7112718,35.0798615 96.2027991,35.0798615 C95.901653,35.0798615 95.2944391,35.3459679 94.381157,35.8781808 C95.1915796,35.5705398 95.5967908,35.4167193 95.5967908,35.4167193 Z" id="Path" fill-rule="nonzero" transform="translate(139.160821, 87.075928) rotate(44.000000) translate(-139.160821, -87.075928) "></path>
            <path d="M81.9196566,12.4993419 L85.1117591,17.7633487 L96.284118,24.3433572 C97.1697397,24.4904651 97.7017563,24.4904651 97.8801693,24.3433572 C98.0585823,24.1962492 98.0585823,23.7575824 97.8801693,23.0273555 L93.0920155,17.7633487 L97.8801693,17.7633487 L107.456477,24.3433572 C108.324339,24.5051083 108.856356,24.5051083 109.052528,24.3433572 C109.2487,24.1816061 109.2487,23.7429393 109.052528,23.0273555 L109.052528,21.7113538 C109.052528,21.408372 108.520512,20.5310384 107.456477,19.0793504 L106.570273,16.8872297 L105.860426,15.1313453 L104.264374,13.8153436 L99.4762205,11.1833402 L88.3038617,8.55133675 L81.9196566,12.4993419 Z" id="Path-4" fill-rule="nonzero" transform="translate(95.559657, 16.508004) scale(-1, -1) rotate(83.000000) translate(-95.559657, -16.508004) "></path>
            <path d="M116.308642,127.781513 L123.54321,127.781513 L130.777778,127.781513 L138.012346,127.781513 L145.246914,127.781513 L152.481481,127.781513 L159.716049,127.781513 L166.950617,127.781513 C163.333333,138.42577 161.524691,143.747899 161.524691,143.747899 C160.318929,147.883341 159.716049,150.544405 159.716049,151.731092 C159.716049,152.677249 160.449944,155.846657 161.587165,157.715804 C165.499461,164.146083 174.185185,172.487395 174.185185,172.487395 C180.213991,179.938375 183.228395,183.663866 183.228395,183.663866 L190.462963,198.033613 C194.080247,210.806723 195.888889,217.193277 195.888889,217.193277 L203.123457,236.352941 C209.152263,259.770309 212.166667,271.478992 212.166667,271.478992 C220.606996,291.703082 224.82716,301.815126 224.82716,301.815126 C231.351581,306.510349 235.571745,309.703626 237.487654,311.394958 C241.944358,315.329261 242.91358,317.781513 242.91358,317.781513 C247.402481,319.004096 250.416883,320.068522 251.95679,320.97479 C257.164368,324.039565 259.191358,327.361345 259.191358,327.361345 C260.39712,330.2053 261,332.184785 261,333.299799 C261,337.856236 259.191358,340.134454 259.191358,340.134454 C257.830605,344.263952 256.624843,346.925017 255.574074,348.117647 C250.807203,353.528079 246.530864,354.504202 246.530864,354.504202 C247.736626,357.715379 248.339506,359.924062 248.339506,361.130251 C248.339506,365.22829 246.530864,367.277311 246.530864,367.277311 C242.518086,372.329079 239.503682,375.522356 237.487654,376.857143 C230.347337,381.584657 224.82716,381.647059 224.82716,381.647059 C219.694441,384.26942 216.077157,385.866058 213.975309,386.436975 C205.825637,388.650634 201.314815,388.033613 201.314815,388.033613 L186.845679,394.420168 C182.022633,396.549019 179.611111,397.613445 179.611111,397.613445 C173.332881,398.677872 169.112717,399.210084 166.950617,399.210084 C157.69232,399.210084 154.290123,397.613445 154.290123,397.613445 C150.67284,399.742296 148.864198,400.806723 148.864198,400.806723 C139.126545,402.935574 132.494858,404 128.969136,404 C117.9751,404 112.691358,400.806723 112.691358,400.806723 C103.688108,398.723703 97.6593019,397.127065 94.6049383,396.016807 C85.601474,392.744057 81.9444444,389.630252 81.9444444,389.630252 C71.0272147,389.192939 63.7926468,388.660727 60.2407407,388.033613 C49.3995995,386.119537 45.7716049,383.243697 45.7716049,383.243697 C38.7567017,381.28923 33.9336563,379.692591 31.3024691,378.453782 C22.9816781,374.536207 18.6419753,370.470588 18.6419753,370.470588 C13.0925021,366.017879 9.47521818,362.824602 7.79012346,360.890756 C1.86632036,354.092492 0.555555556,349.714286 0.555555556,349.714286 C-2.92956655,348.510983 12.5755008,312.577405 38.9899581,277.817462 C47.058449,267.199781 58.8184398,252.586778 66.410472,243.510238 C79.5484812,227.803289 86.5638095,217.445672 86.8179492,217.193277 C89.3619253,214.666776 99.2046608,199.951293 105.45679,183.663866 C108.174838,176.583076 115.879561,166.050332 118.117284,157.715804 C121.026834,146.879021 118.117284,138.957983 118.117284,138.957983 L116.308642,127.781513 Z" id="Path-3" stroke="#000000" fill-rule="nonzero"></path>
            <path d="M84.8123937,72.4654074 L87.864473,66.6486237 C87.864473,66.6486237 89.9015787,61.5836033 90.7172054,58.8931417 C91.0319204,57.8550092 91.978612,52.4784862 93.4666721,47.0021095 C94.0408626,44.8889665 95.1574949,41.5017058 96.1354855,38.3145515 C97.1134761,35.1273973 99.4922748,28.2211614 99.4922748,28.2211614 L93.6450555,25.4276615 C93.6450555,25.4276615 87.0591174,36.9155593 83.1609261,46.3234463 C79.2627349,55.7313333 80.1037854,53.7643176 79.0070129,56.5067395 C75.0386818,66.4293422 75.2521809,66.1522872 75.2521809,66.1522872 L73.7251844,72.4654074 C73.7251844,72.4654074 72.7535429,76.4031729 72.6705618,77.6331108 C72.5875807,78.8630487 72.8024817,80.3647635 73.1364657,80.8040927 C73.7811337,81.6521016 75.2521809,83.0377269 75.2521809,83.0377269 C75.2521809,83.0377269 77.4457891,83.8449815 78.565672,84.0007529 C79.6855548,84.1565244 82.1756346,84.0007529 82.1756346,84.0007529 L84.8123937,72.4654074 Z" id="Path-2" stroke="#000000" transform="translate(86.072492, 54.748823) rotate(-5.000000) translate(-86.072492, -54.748823) "></path>
            <path d="M114.971848,82.1345494 C114.971848,82.1345494 100.467711,85.6576217 93.5087834,88.0850558 C86.5498563,90.5124899 77.1513777,93.9095951 77.1513777,93.9095951 L69.3723364,93.9095951 L75.6796054,107.091086 C75.6796054,107.091086 91.3645355,104.72649 97.9064139,102.893629 C104.448292,101.060768 122.57377,91.88416 122.57377,91.88416 L114.971848,82.1345494 Z" id="Path-2" stroke="#000000" transform="translate(95.973053, 94.612818) rotate(65.000000) translate(-95.973053, -94.612818) "></path>
            <g id="Group" transform="translate(163.500000, 61.000000) scale(-1, 1) translate(-163.500000, -61.000000) translate(139.000000, 0.000000)">
                <path d="M11.9196566,10.4993419 L15.1117591,15.7633487 L26.284118,22.3433572 C27.1697397,22.4904651 27.7017563,22.4904651 27.8801693,22.3433572 C28.0585823,22.1962492 28.0585823,21.7575824 27.8801693,21.0273555 L23.0920155,15.7633487 L27.8801693,15.7633487 L37.4564769,22.3433572 C38.3243393,22.5051083 38.8563559,22.5051083 39.0525281,22.3433572 C39.2487004,22.1816061 39.2487004,21.7429393 39.0525281,21.0273555 L39.0525281,19.7113538 C39.0525281,19.408372 38.5205116,18.5310384 37.4564769,17.0793504 L36.5702726,14.8872297 L35.8604256,13.1313453 L34.2643743,11.8153436 L29.4762205,9.18334015 L18.3038617,6.55133675 L11.9196566,10.4993419 Z" id="Path-4" fill-rule="nonzero" transform="translate(25.559657, 14.508004) scale(-1, -1) rotate(83.000000) translate(-25.559657, -14.508004) "></path>
                <path d="M14.8123937,70.4654074 L17.864473,64.6486237 C17.864473,64.6486237 19.9015787,59.5836033 20.7172054,56.8931417 C21.0319204,55.8550092 21.978612,50.4784862 23.4666721,45.0021095 C24.0408626,42.8889665 25.1574949,39.5017058 26.1354855,36.3145515 C27.1134761,33.1273973 29.4922748,26.2211614 29.4922748,26.2211614 L23.6450555,23.4276615 C23.6450555,23.4276615 17.0591174,34.9155593 13.1609261,44.3234463 C9.2627349,53.7313333 10.1037854,51.7643176 9.00701287,54.5067395 C5.03868181,64.4293422 5.25218086,64.1522872 5.25218086,64.1522872 L3.72518436,70.4654074 C3.72518436,70.4654074 2.75354292,74.4031729 2.67056184,75.6331108 C2.58758075,76.8630487 2.80248169,78.3647635 3.1364657,78.8040927 C3.78113374,79.6521016 5.25218086,81.0377269 5.25218086,81.0377269 C5.25218086,81.0377269 7.4457891,81.8449815 8.56567196,82.0007529 C9.68555482,82.1565244 12.1756346,82.0007529 12.1756346,82.0007529 L14.8123937,70.4654074 Z" id="Path-2" stroke="#000000" transform="translate(16.072492, 52.748823) rotate(-5.000000) translate(-16.072492, -52.748823) "></path>
                <path d="M44.9718476,80.1345494 C44.9718476,80.1345494 30.4677106,83.6576217 23.5087834,86.0850558 C16.5498563,88.5124899 7.15137769,91.9095951 7.15137769,91.9095951 L-0.627663614,91.9095951 L5.67960543,105.091086 C5.67960543,105.091086 21.3645355,102.72649 27.9064139,100.893629 C34.4482922,99.0607679 52.5737702,89.88416 52.5737702,89.88416 L44.9718476,80.1345494 Z" id="Path-2" stroke="#000000" transform="translate(25.973053, 92.612818) rotate(65.000000) translate(-25.973053, -92.612818) "></path>
            </g>
        </g>
    </g>
</svg>