<?xml version="1.0" encoding="UTF-8"?>
<svg width="164px" height="196px" viewBox="0 0 164 196" version="1.1" xmlns="http://www.w3.org/2000/svg" xmlns:xlink="http://www.w3.org/1999/xlink">
    <!-- Generator: Sketch 44.1 (41455) - http://www.bohemiancoding.com/sketch -->
    <title>princess-bend</title>
    <desc>Created with Sketch.</desc>
    <defs></defs>
    <g id="princess" stroke="none" stroke-width="1" fill="none" fill-rule="evenodd">
        <g id="princess-bend" transform="translate(80.520746, 94.139065) scale(-1, 1) rotate(-13.000000) translate(-80.520746, -94.139065) translate(-16.979254, -14.860935)" stroke="#000000" fill-rule="nonzero" fill="#000000">
            <path d="M66.8512927,113.794699 C66.8469501,119.938194 66.8447788,123.009941 66.8447788,123.009941 C64.7394046,127.398608 63.6867174,129.592941 63.6867174,129.592941 C60.5286561,135.737074 58.9496254,138.80914 58.9496254,138.80914 C52.6335027,140.564607 49.4754414,141.44234 49.4754414,141.44234 C44.2120058,143.197807 41.580288,144.07554 41.580288,144.07554 C32.8659417,147.708563 27.5075823,149.94247 25.5052097,150.777261 C25.1401393,150.92946 24.6706596,151.125103 24.0967709,151.364191 C23.1202036,151.77149 22.6319199,151.97514 22.6319199,151.97514 C17.3684844,158.997006 14.7367666,162.507939 14.7367666,162.507939 C12.0256047,164.783339 10.6700238,165.921038 10.6700238,165.921038 C9.75690822,166.635336 9.15503731,166.992484 8.86441087,166.992484 C7.81139037,166.992484 5.58432504,169.138242 5.58432504,169.138242 C5.53949999,170.552273 5.57677506,171.464299 5.69615041,171.874324 C6.07622988,173.1798 6.4964311,173.328893 6.4964311,173.328893 L8.42064388,169.090939 L9.99967455,169.090939 C7.66417892,171.916242 6.4964311,173.328893 6.4964311,173.328893 L7.49343202,173.475474 C7.87968045,173.329778 8.48155136,172.972629 9.29904475,172.404027 C10.5252851,171.551126 11.7099476,171.421573 11.7099476,171.421573 C14.7805141,169.867816 16.3157972,169.090939 16.3157972,169.090939 C19.4738586,165.580006 21.0528893,163.824539 21.0528893,163.824539 C25.2636378,160.313606 27.369012,158.558139 27.369012,158.558139 C28.4216991,157.680406 28.9480426,157.24154 28.9480426,157.24154 C34.2114781,155.486073 36.843196,154.60834 36.843196,154.60834 C42.1066315,153.730606 44.7383494,153.29174 44.7383494,153.29174 C53.1598462,151.536273 57.3705947,150.65854 57.3705947,150.65854 C62.6620664,149.51681 66.1285121,148.512825 67.769932,147.646583 C72.3875579,145.209681 73.6935349,141.996859 74.2495544,141.058565 C76.6377541,137.028429 79.4329311,131.012221 82.6350855,123.009941 C72.1125569,116.866446 66.8512927,113.794699 66.8512927,113.794699 Z" id="Path-2" transform="translate(44.100528, 143.635087) rotate(-10.000000) translate(-44.100528, -143.635087) "></path>
            <path d="M66.5627031,121.307692 L71.2997951,121.307692 L76.0368871,121.307692 L82.3530098,121.307692 L88.6691325,121.307692 L94.9852552,121.307692 L101.301378,121.307692 L107.617501,121.307692 L113.933623,121.307692 L120.249746,121.307692 C117.091685,130.085025 115.512654,134.473692 115.512654,134.473692 C114.459966,137.883807 113.933623,140.078141 113.933623,141.056691 C113.933623,141.836899 114.574348,144.450416 115.567197,145.991729 C118.982817,151.294184 126.565869,158.172491 126.565869,158.172491 C131.829304,164.316624 134.461022,167.38869 134.461022,167.38869 L140.777145,179.23809 C143.935206,189.770889 145.514237,195.037289 145.514237,195.037289 L151.830359,210.836488 C157.093794,230.146621 51.2575541,201.516169 52.9244863,200.371857 C54.8084985,199.078525 56.5528393,197.679247 57.3226782,196.957115 C62.4300076,192.166298 64.9836724,188.454289 64.9836724,188.454289 C71.2997951,177.92149 74.4578564,172.65509 74.4578564,172.65509 C79.7212919,165.633224 82.3530098,162.12229 82.3530098,162.12229 C86.5637583,155.100424 88.6691325,151.589491 88.6691325,151.589491 C90.383703,148.970541 91.3415983,147.164345 91.5428181,146.170904 C92.1321373,143.26138 90.6478985,141.556642 90.2481631,141.056691 C88.2654511,138.576906 77.6159178,130.523892 77.6159178,130.523892 L74.4578564,127.890692 C69.1944209,123.502026 66.5627031,121.307692 66.5627031,121.307692 Z" id="Path-3"></path>
            <path d="M43.8461538,119.473692 L48.5832459,127.373291 C51.7531957,131.454498 54.384914,134.526564 56.4783992,136.589491 C58.5718844,138.652418 61.7299458,141.285618 65.9525833,144.489091 L78.5848286,156.33849 L81.74289,161.60489 L92.7961047,168.187889 C93.672282,168.335064 94.198625,168.335064 94.3751354,168.187889 C94.5516457,168.040715 94.5516457,167.601848 94.3751354,166.871289 L89.6380434,161.60489 L94.3751354,161.60489 L103.849319,168.187889 C104.707927,168.349714 105.23427,168.349714 105.42835,168.187889 C105.62243,168.026065 105.62243,167.587199 105.42835,166.871289 L105.42835,165.55469 C105.42835,165.25157 104.902007,164.373838 103.849319,162.92149 L102.972566,160.728373 L102.270289,158.97169 L100.691258,157.65509 L95.954166,155.02189 L84.9009513,152.38869 L78.5848286,144.489091 L72.268706,137.906091 L63.9142236,126.457143 L54.8993686,116.840492 L53.3203379,114.207292 L48.5832459,106.307692 L43.8461538,119.473692 Z" id="Path-4" transform="translate(74.710032, 137.308475) scale(-1, 1) translate(-74.710032, -137.308475) "></path>
            <path d="M55.6642763,13.1699423 L48.0106153,17.3869487 C45.227968,14.9305815 43.8366443,13.7023979 43.8366443,13.7023979 C41.8061952,12.4742144 40.4148716,11.8601226 39.6626736,11.8601226 C36.798439,11.8601226 35.4887029,13.7023979 35.4887029,13.7023979 C34.0973794,18.6151323 33.4017175,21.0714994 33.4017175,21.0714994 L33.4017175,26.5983255 C32.0103939,27.8265091 31.3147321,28.4406008 31.3147321,28.4406008 C29.9234085,30.180891 29.2277468,31.4090746 29.2277468,32.1251516 C29.2277468,34.3774007 31.3147321,35.8097023 31.3147321,35.8097023 C29.074711,36.5588857 27.6833874,37.1729774 27.1407614,37.6519777 C24.8888636,39.6398287 25.053776,41.3365284 25.053776,41.3365284 C26.4450997,45.0210792 27.1407614,46.8633546 27.1407614,46.8633546 C34.0973794,50.5479053 37.5756882,52.3901807 37.5756882,52.3901807 C38.4993031,54.2185636 39.1949648,55.4467473 39.6626736,56.0747314 C40.3024548,56.9337542 41.6035966,57.4657311 41.749659,57.9170068 C42.9452056,61.6107757 40.2414014,64.2221657 40.2144431,64.5445679 C40.1894805,64.8430989 40.1771403,65.1237277 40.1882937,65.146968 C40.2335789,65.2413288 40.3387338,65.6359682 40.6522515,65.6359682 C41.3484278,65.7772012 42.7750957,66.0630026 42.8414179,66.0610082 C43.1227436,66.0525481 43.3612594,66.0249593 43.5657625,65.9887156 C44.3393551,65.8516135 44.6262441,65.5906638 44.9026192,65.7728127 C45.7249536,66.3147834 46.2764933,68.0059604 46.3551131,68.5690782 C46.4241918,69.0638564 46.9973353,69.6348993 47.085785,69.7189148 C47.285568,69.9086824 47.522985,70.1055629 47.8022034,70.2619655 C47.864089,70.2966305 48.2085094,69.9484922 48.6069296,69.5512869 C49.1569801,69.0029138 49.809954,68.361019 49.9644887,68.5037901 C50.2662499,68.7825802 48.7881622,71.1409388 49.0054932,71.3631005 C49.0290011,71.3871307 49.3377335,71.6716258 49.5947824,71.906367 C49.7567465,72.0542756 49.8981916,72.1824311 49.9348381,72.2132306 C49.9940581,72.2630022 50.276632,72.2832464 50.6378601,72.2940105 C51.7376661,72.3140233 52.4815234,72.3191458 52.6054647,72.41417 C54.004327,73.4866611 54.1604791,75.1438163 56.797635,75.5976072 C60.0915915,76.1644177 60.5814038,75.073876 64.7038067,74.4974851 C64.7203189,77.0760196 64.6901572,78.6049342 64.6133219,79.0842291 C64.5441804,79.5155295 64.0995493,82.3627412 63.1082951,83.4775551 C61.6122559,85.1600754 59.2882717,85.2216169 58.4455421,85.5511374 C50.9804731,88.4700967 46.1369869,89.9888211 45.3658535,91.0779635 C42.2487813,95.48049 37.5756882,98.447065 37.5756882,98.447065 C29.2277468,102.131616 25.7494378,103.973891 27.1407614,103.973891 C29.0204203,106.111415 30.4117439,107.339599 31.3147321,107.658442 C35.0744121,108.985977 37.5756882,107.658442 37.5756882,107.658442 C38.9670119,110.114809 39.6626736,111.342993 39.6626736,111.342993 C41.0539973,112.571176 41.749659,113.185268 41.749659,113.185268 C43.6811152,114.29657 45.0724388,114.910661 45.9236299,115.027543 C47.5659072,115.253054 50.5872381,114.808202 52.184586,115.027543 C54.6436223,115.365208 58.3525223,119.100871 60.7064522,119.414997 C62.9547547,119.715027 64.7897732,122.61171 66.9374223,122.878791 C69.6347054,123.214226 71.9161188,125.940802 74.4573974,126.211601 C77.8359273,126.571616 80.3308587,128.120114 83.4383607,128.34864 C86.7700466,128.593654 90.6297156,130.308127 93.6618108,130.40343 C96.398906,130.48946 98.6717417,131.191535 101.152384,131.151563 C105.416211,131.082857 110.0204,131.662889 113.545716,131.283978 C116.828189,130.931168 121.809394,132.190832 124.402865,131.63118 C127.033621,131.063482 130.675879,131.313699 132.422991,130.509813 C137.626045,128.115771 137.750985,124.23892 137.750985,124.23892 C140.896186,124.602177 142.98317,124.602177 144.011943,124.23892 C147.114775,123.143317 148.185913,120.554369 148.185913,120.554369 C150.36994,119.854614 151.761265,119.240522 152.359884,118.712094 C154.328412,116.974386 154.44687,115.027543 154.44687,115.027543 C157.681826,115.359107 159.768813,115.359107 160.707826,115.027543 C164.294223,113.761194 164.881796,111.342993 164.881796,111.342993 C168.484841,110.786784 170.571827,110.172693 171.142753,109.500717 C173.257074,107.012176 171.142753,103.973891 171.142753,103.973891 C173.786321,102.622462 175.177645,101.394278 175.316724,100.28934 C175.599093,98.0459955 177.656004,96.5609254 177.403708,94.7625142 C176.827607,90.6559378 175.316724,87.3934127 173.229738,87.3934127 C175.21508,86.7282822 176.606404,86.1141905 177.403708,85.5511374 C179.702922,83.9274424 182.637465,82.8903354 183.664666,81.8665866 C184.525599,81.0085445 183.664666,80.0243112 183.664666,80.0243112 C184.880705,78.1868632 185.576367,76.9586795 185.75165,76.3397605 C186.528094,73.5981563 185.75165,72.6552098 185.75165,72.6552098 C185.939182,70.5032777 185.939182,69.0134554 185.75165,68.1857429 C185.033034,65.0139657 183.664666,63.4438329 183.664666,63.4438329 C181.736559,61.3646365 180.345234,60.1364529 179.490695,59.7592822 C174.005939,57.3384629 171.142753,57.9170068 171.142753,57.9170068 C171.435668,56.1070641 171.435668,54.8788806 171.142753,54.232456 C169.346315,50.2679657 166.968783,48.7056299 166.968783,48.7056299 C162.794812,47.4774465 160.707826,46.8633546 160.707826,46.8633546 C153.956657,45.8155077 149.087024,45.201416 146.098927,45.0210792 C138.822946,44.5819612 132.414224,45.1522906 129.403044,45.0210792 C124.288911,44.798232 121.189622,45.1027885 118.968118,45.0210792 C113.305296,44.8127948 112.707162,45.0210792 112.707162,45.0210792 C110.817633,44.8602528 109.42631,44.2461611 108.533191,43.1788038 C108.213486,42.7967281 105.841969,41.8097841 105.57391,41.3365284 C105.344829,40.932088 104.582514,39.8376639 104.35922,39.4942531 C102.548258,36.7091096 100.212141,36.4509483 98.0982643,33.967427 C96.4641868,32.0476056 93.1376856,29.7604939 91.8373082,28.4406008 C87.6539007,24.1944113 84.9546288,23.1619847 81.4023812,21.0714994 C79.1276821,19.7328469 77.4208849,18.970857 76.5449875,18.2835735 C74.2179556,16.4576401 73.0544397,15.5446733 73.0544397,15.5446733 C72.1868723,14.6849298 71.5493955,14.2550581 71.1420093,14.2550581 C64.0690214,14.2550581 60.5325275,15.5446733 60.5325275,15.5446733 C59.1412038,14.3164897 58.4455421,13.7023979 58.4455421,13.7023979 C57.6367561,13.0883062 56.9410944,12.7812603 56.3585568,12.7812603 C56.0135453,12.7812603 55.3178836,13.0883062 54.2715714,13.7023979 C55.2000414,13.3474275 55.6642763,13.1699423 55.6642763,13.1699423 Z" id="Path" transform="translate(105.573910, 71.818425) rotate(9.000000) translate(-105.573910, -71.818425) "></path>
        </g>
    </g>
</svg>