<?xml version="1.0" encoding="UTF-8"?>
<svg width="294px" height="395px" viewBox="0 0 294 395" version="1.1" xmlns="http://www.w3.org/2000/svg" xmlns:xlink="http://www.w3.org/1999/xlink">
    <!-- Generator: Sketch 44.1 (41455) - http://www.bohemiancoding.com/sketch -->
    <title>princess-black copy</title>
    <desc>Created with Sketch.</desc>
    <defs></defs>
    <g id="princess" stroke="none" stroke-width="1" fill="none" fill-rule="evenodd">
        <g id="princess-black-copy" transform="translate(0.000000, -5.000000)" stroke="#000000" fill-rule="nonzero" fill="#000000">
            <path d="M127.121294,29.1327644 L120.488121,32.7875032 C118.076494,30.6586517 116.87068,29.5942259 116.87068,29.5942259 C115.110957,28.5298001 113.905144,27.9975873 113.253239,27.9975873 C110.770902,27.9975873 109.635797,29.5942259 109.635797,29.5942259 C108.429984,33.851929 107.827077,35.9807805 107.827077,35.9807805 L107.827077,40.7706964 C106.621263,41.8351223 106.018356,42.3673351 106.018356,42.3673351 C104.812542,43.8755865 104.209635,44.9400124 104.209635,45.5606124 C104.209635,47.5125616 106.018356,48.7538897 106.018356,48.7538897 C104.077004,49.403182 102.871191,49.9353948 102.400915,50.3505284 C100.44927,52.0733326 100.592194,53.5438057 100.592194,53.5438057 C101.798008,56.737083 102.400915,58.3337216 102.400915,58.3337216 C108.429984,61.526999 111.444518,63.1236376 111.444518,63.1236376 C112.244984,64.7082362 112.847891,65.772662 113.253239,66.3169149 C113.807716,67.0614013 114.935372,67.522448 115.061959,67.9135536 C116.0981,71.11482 113.754803,73.3780246 113.731439,73.6574399 C113.709805,73.9161667 113.69911,74.1593784 113.708776,74.17952 C113.748023,74.2612993 113.839158,74.6033201 114.110873,74.6033201 C114.714226,74.7257221 115.950671,74.9734166 116.00815,74.9716881 C116.251966,74.964356 116.45868,74.9404457 116.635916,74.9090346 C117.306363,74.7902127 117.555,74.5640564 117.794525,74.7219187 C118.507215,75.1916267 118.985216,76.6573133 119.053353,77.1453488 C119.113221,77.5741566 119.609946,78.0690604 119.686602,78.1418739 C119.859747,78.3063392 120.065509,78.4769689 120.307498,78.6125178 C120.361132,78.6425608 120.65963,78.3408409 121.004927,77.9965964 C121.481638,77.5213396 122.047548,76.9650308 122.181478,77.0887658 C122.443005,77.3303839 121.161995,79.3742947 121.350349,79.5668348 C121.370723,79.587661 121.638291,79.8342234 121.861066,80.0376658 C122.001435,80.1658532 122.124021,80.2769213 122.155781,80.3036142 C122.207105,80.3467496 122.452003,80.3642946 122.765067,80.3736235 C123.718232,80.3909679 124.362909,80.3954074 124.470324,80.4777617 C125.682672,81.407254 125.818003,82.8434552 128.103539,83.2367406 C130.958301,83.7279764 136.807169,80.2984868 140.379918,79.7989481 C140.385777,80.7139417 141.985212,84.900659 140.903453,86.0025691 C140.375513,86.5403435 130.751233,92.9616873 126.603318,100.469115 C124.839536,103.661432 123.079199,109.193766 124.107441,112.963775 C124.614909,114.824386 126.441506,119.923546 129.236597,122.217018 C132.031689,124.51049 135.948663,124.096534 136.891354,124.213767 C139.229,124.504477 141.206225,126.86751 143.408666,127.102202 C144.901161,127.261242 147.486093,129.060637 151.017675,129.93481 C154.549257,130.808984 158.764129,130.694625 160.052491,130.73512 C162.42464,130.80968 164.394431,131.418145 166.544321,131.383502 C170.239638,131.323957 174.229935,131.826651 177.285209,131.498262 C180.130019,131.192493 184.447063,132.284202 186.694738,131.799171 C188.974727,131.307166 192.13135,131.52402 193.645514,130.827319 C198.154827,128.752483 198.263109,125.392545 198.263109,125.392545 C200.988949,125.707368 202.797669,125.707368 203.689272,125.392545 C206.378393,124.443022 207.306713,122.199268 207.306713,122.199268 C209.199537,121.592813 210.405351,121.0606 210.924154,120.602629 C212.630212,119.096616 212.732876,117.409352 212.732876,117.409352 C215.536504,117.696707 217.345226,117.696707 218.159037,117.409352 C221.267248,116.311849 221.776478,114.216075 221.776478,114.216075 C224.899117,113.734028 226.707838,113.201815 227.202641,112.619436 C229.035052,110.462701 227.202641,107.82952 227.202641,107.82952 C229.493733,106.658281 230.699547,105.593856 230.820082,104.636243 C231.064803,102.69201 232.847458,101.40495 232.628802,99.8463267 C232.129514,96.2872938 230.820082,93.4597721 229.011361,93.4597721 C230.731991,92.8833256 231.937805,92.3511128 232.628802,91.8631334 C234.621454,90.4559311 237.164724,89.557105 238.054965,88.6698561 C238.801108,87.9262196 238.054965,87.0732174 238.054965,87.0732174 C239.108866,85.4807625 239.711773,84.4163366 239.863685,83.8799401 C240.536603,81.5038832 239.863685,80.6866628 239.863685,80.6866628 C240.026213,78.8216551 240.026213,77.5304757 239.863685,76.8131248 C239.240884,74.0642513 238.054965,72.7034695 238.054965,72.7034695 C236.383939,70.9014993 235.178125,69.8370735 234.437524,69.5101922 C229.684069,67.4121489 227.202641,67.9135536 227.202641,67.9135536 C227.4565,66.3449366 227.4565,65.2805109 227.202641,64.7202763 C225.645728,61.2843846 223.5852,59.9303603 223.5852,59.9303603 C219.967759,58.8659346 218.159037,58.3337216 218.159037,58.3337216 C212.308024,57.4255877 208.087676,56.8933749 205.497992,56.737083 C199.192141,56.3565141 195.472469,57.3147605 192.86278,57.2010439 C188.430531,57.0079097 165.729444,49.3096362 163.897417,47.1572511 C162.481217,45.4934059 159.598249,43.5112424 158.471255,42.3673351 C154.845636,38.6873041 152.506267,37.7925344 149.427652,35.9807805 C147.456246,34.8206151 145.977022,34.1602238 145.217911,33.5645781 C143.20115,31.9821024 142.192769,31.1908646 142.192769,31.1908646 C141.440878,30.4457535 140.888398,30.073198 140.53533,30.073198 C134.405407,30.073198 131.340445,31.1908646 131.340445,31.1908646 C130.134632,30.1264388 129.531725,29.5942259 129.531725,29.5942259 C128.830777,29.062013 128.22787,28.7959066 127.723004,28.7959066 C127.423994,28.7959066 126.821087,29.062013 125.914283,29.5942259 C126.718957,29.2865849 127.121294,29.1327644 127.121294,29.1327644 Z" id="Path" transform="translate(170.376310, 79.961449) rotate(29.000000) translate(-170.376310, -79.961449) "></path>
            <path d="M129.437535,111.434793 C129.432561,118.884999 129.430074,122.610102 129.430074,122.610102 C127.018551,127.932231 125.81279,130.593295 125.81279,130.593295 C122.195506,138.044276 120.386864,141.769766 120.386864,141.769766 C113.152296,143.898617 109.535012,144.963043 109.535012,144.963043 C103.506205,147.091895 100.491802,148.15632 100.491802,148.15632 C90.5102781,152.562081 84.3727445,155.271136 82.0792013,156.283487 C81.6610449,156.468058 81.1232969,156.705314 80.4659574,156.995256 C79.3473847,157.489187 78.7880983,157.736152 78.7880983,157.736152 C72.7592918,166.251559 69.7448884,170.509262 69.7448884,170.509262 C66.6394889,173.268635 65.0867891,174.648322 65.0867891,174.648322 C64.0408948,175.514549 63.3515042,175.947662 63.0186169,175.947662 C61.8124737,175.947662 59.2615646,178.549819 59.2615646,178.549819 C59.2102214,180.264612 59.2529167,181.370625 59.3896508,181.867861 C59.8249987,183.45101 60.3063025,183.631815 60.3063025,183.631815 L62.5103205,178.492455 L64.3189625,178.492455 C61.6438559,181.918695 60.3063025,183.631815 60.3063025,183.631815 L61.4482802,183.809573 C61.8906941,183.632888 62.5800847,183.199774 63.5164521,182.510232 C64.9210035,181.47592 66.2779312,181.318811 66.2779312,181.318811 C69.7949974,179.434573 71.5535304,178.492455 71.5535304,178.492455 C75.1708143,174.234752 76.9794563,172.1059 76.9794563,172.1059 C81.8025017,167.848197 84.2140242,165.719346 84.2140242,165.719346 C85.4197856,164.65492 86.0226662,164.122707 86.0226662,164.122707 C92.0514727,161.993855 95.0658761,160.92943 95.0658761,160.92943 C101.094683,159.865004 104.109086,159.332791 104.109086,159.332791 C113.755176,157.203939 118.578222,156.139514 118.578222,156.139514 C124.639141,154.75494 128.609653,153.537408 130.489756,152.486918 C135.778844,149.531691 137.274727,145.635507 137.911599,144.497639 C140.647073,139.6103 143.848705,132.314454 147.516493,122.610102 C135.463854,115.159896 129.437535,111.434793 129.437535,111.434793 Z" id="Path-2" transform="translate(103.378517, 147.622183) rotate(-10.000000) translate(-103.378517, -147.622183) "></path>
            <path d="M148.308642,122.781513 L155.54321,122.781513 L162.777778,122.781513 L170.012346,122.781513 L177.246914,122.781513 L184.481481,122.781513 L191.716049,122.781513 L198.950617,122.781513 C195.333333,133.42577 193.524691,138.747899 193.524691,138.747899 C192.318929,142.883341 191.716049,145.544405 191.716049,146.731092 C191.716049,147.677249 192.449944,150.846657 193.587165,152.715804 C197.499461,159.146083 206.185185,167.487395 206.185185,167.487395 C212.213991,174.938375 215.228395,178.663866 215.228395,178.663866 L222.462963,193.033613 C226.080247,205.806723 227.888889,212.193277 227.888889,212.193277 L235.123457,231.352941 C241.152263,254.770309 244.166667,266.478992 244.166667,266.478992 C252.606996,286.703082 256.82716,296.815126 256.82716,296.815126 C263.351581,301.510349 267.571745,304.703626 269.487654,306.394958 C273.944358,310.329261 274.91358,312.781513 274.91358,312.781513 C279.402481,314.004096 282.416883,315.068522 283.95679,315.97479 C289.164368,319.039565 291.191358,322.361345 291.191358,322.361345 C292.39712,325.2053 293,327.184785 293,328.299799 C293,332.856236 291.191358,335.134454 291.191358,335.134454 C289.830605,339.263952 288.624843,341.925017 287.574074,343.117647 C282.807203,348.528079 278.530864,349.504202 278.530864,349.504202 C279.736626,352.715379 280.339506,354.924062 280.339506,356.130251 C280.339506,360.22829 278.530864,362.277311 278.530864,362.277311 C274.518086,367.329079 271.503682,370.522356 269.487654,371.857143 C262.347337,376.584657 256.82716,376.647059 256.82716,376.647059 C251.694441,379.26942 248.077157,380.866058 245.975309,381.436975 C237.825637,383.650634 233.314815,383.033613 233.314815,383.033613 L218.845679,389.420168 C214.022633,391.549019 211.611111,392.613445 211.611111,392.613445 C205.332881,393.677872 201.112717,394.210084 198.950617,394.210084 C189.69232,394.210084 186.290123,392.613445 186.290123,392.613445 C182.67284,394.742296 180.864198,395.806723 180.864198,395.806723 C171.126545,397.935574 164.494858,399 160.969136,399 C149.9751,399 144.691358,395.806723 144.691358,395.806723 C135.688108,393.723703 129.659302,392.127065 126.604938,391.016807 C117.601474,387.744057 113.944444,384.630252 113.944444,384.630252 C103.027215,384.192939 95.7926468,383.660727 92.2407407,383.033613 C81.3995995,381.119537 77.7716049,378.243697 77.7716049,378.243697 C70.7567017,376.28923 65.9336563,374.692591 63.3024691,373.453782 C54.9816781,369.536207 50.6419753,365.470588 50.6419753,365.470588 C45.0925021,361.017879 41.4752182,357.824602 39.7901235,355.890756 C33.8663204,349.092492 32.5555556,344.714286 32.5555556,344.714286 C26.1636629,342.507367 21.9434983,340.910728 19.8950617,339.92437 C14.5400607,337.34584 12.6604938,335.134454 12.6604938,335.134454 C10.6469931,334.065899 9.24553272,333.113488 8.45611254,332.277224 C5.23022681,328.859915 3.61728395,325.554622 3.61728395,325.554622 C1.92878078,324.06211 0.996077446,322.84735 0.819173958,321.910347 C0.273057986,319.017734 1.80864198,315.97479 1.80864198,315.97479 C1.87524163,313.353946 2.75658983,311.538521 4.45268658,310.528515 C5.2915412,310.028986 4.0710125,309.235908 4.48253702,308.397165 C5.31911681,306.6921 7.2345679,304.798319 7.2345679,304.798319 C22.9094651,292.02521 30.7469136,285.638655 30.7469136,285.638655 C33.1584362,281.380952 34.3641975,279.252101 34.3641975,279.252101 C28.335391,274.994397 25.3209877,272.865546 25.3209877,272.865546 C21.7037037,269.672269 19.8950617,268.07563 19.8950617,268.07563 C18.6893004,264.882353 18.0864198,263.285714 18.0864198,263.285714 C27.3234556,258.228583 33.3522622,253.97088 36.1728395,250.512605 C47.8866858,236.150403 50.6419753,223.369748 50.6419753,223.369748 C59.0823046,202.081233 63.3024691,191.436975 63.3024691,191.436975 L83.1975309,173.87395 C84.6481366,181.24825 85.853898,186.038166 86.8148148,188.243697 C87.3929112,189.570565 88.3037204,193.171264 89.3619859,195.237888 C89.7496291,195.994893 91.8284436,202.052778 94.2559915,205.312371 C96.3279696,208.094524 99.0724425,212.692329 101.51706,215.185129 C102.465053,216.151806 104.536804,219.089338 106.600953,220.30922 C109.375243,221.948784 112.135802,221.773109 112.135802,221.773109 C114.177669,222.116525 115.597076,222.147526 116.394022,221.866113 C117.891512,221.337331 119.926076,220.050205 121.835402,218.662499 C123.993374,217.094078 125.991364,215.397175 126.873147,214.521448 C132.723148,208.711631 135.648148,204.210084 135.648148,204.210084 C142.882716,191.436975 146.5,185.05042 146.5,185.05042 C152.528807,176.535014 155.54321,172.277311 155.54321,172.277311 C160.366255,163.761905 162.777778,159.504202 162.777778,159.504202 C164.741669,156.328205 165.838854,154.137835 166.069334,152.93309 C166.744348,149.404714 165.044282,147.337382 164.58642,146.731092 C163.37094,145.121586 159.053886,143.317241 155.54321,140.369097 C152.032534,137.420952 150.117284,133.957983 150.117284,133.957983 L142.744997,122.781513 C136.71619,117.459384 148.308642,122.781513 148.308642,122.781513 Z" id="Path-3"></path>
            <path d="M191.716049,137.151261 L197.141975,146.731092 C200.772877,151.680365 203.78728,155.405855 206.185185,157.907563 C208.58309,160.409271 212.200374,163.602548 217.037037,167.487395 L231.506173,181.857143 L235.123457,188.243697 L247.783951,196.226891 C248.787535,196.405369 249.390415,196.405369 249.592593,196.226891 C249.79477,196.048412 249.79477,195.5162 249.592593,194.630252 L244.166667,188.243697 L249.592593,188.243697 L260.444444,196.226891 C261.427904,196.423135 262.030784,196.423135 262.253086,196.226891 C262.475388,196.030646 262.475388,195.498434 262.253086,194.630252 L262.253086,193.033613 C262.253086,192.666021 261.650206,191.601596 260.444444,189.840336 L259.4402,187.180746 L258.635802,185.05042 L256.82716,183.453782 L251.401235,180.260504 L238.740741,177.067227 L231.506173,167.487395 L224.271605,159.504202 L214.702274,145.620081 L204.376543,133.957983 L202.567901,130.764706 L197.141975,121.184874 L191.716049,137.151261 Z" id="Path-4"></path>
        </g>
    </g>
</svg>